<svg xmlns="http://www.w3.org/2000/svg" xmlns:xlink="http://www.w3.org/1999/xlink" width="500" zoomAndPan="magnify" viewBox="0 0 375 374.999991" height="500" preserveAspectRatio="xMidYMid meet" version="1.0"><defs><clipPath id="011b993ced"><path d="M 149 94.234375 L 237 94.234375 L 237 280.984375 L 149 280.984375 Z M 149 94.234375 " clip-rule="nonzero"/></clipPath></defs><g clip-path="url(#011b993ced)"><path fill="#b7a4ad" d="M 199.34375 130.636719 C 200.726562 132.035156 202.148438 132.917969 203.878906 133.203125 C 204.089844 133.242188 204.257812 133.320312 204.351562 133.527344 C 205.648438 136.234375 208.171875 137.007812 210.804688 137.523438 C 212.6875 137.890625 214.601562 137.921875 216.488281 137.453125 C 219.296875 136.753906 221.140625 134.558594 221.1875 131.269531 C 221.214844 129.296875 221.664062 127.632812 222.640625 125.949219 C 224.882812 122.085938 222.785156 117.921875 219.964844 115.078125 C 217.390625 112.480469 215.210938 112.300781 210.839844 113.976562 C 210.984375 112.660156 211.671875 111.59375 212.136719 110.453125 C 212.914062 108.550781 212.175781 107.472656 210.105469 107.566406 C 208.964844 107.617188 207.984375 108.09375 207.136719 108.820312 C 206.488281 109.375 205.886719 109.980469 205.261719 110.5625 C 204.90625 110.886719 204.738281 110.863281 204.503906 110.355469 C 202.765625 106.613281 200.46875 103.242188 197.632812 100.230469 C 193.453125 95.792969 188.261719 94.214844 182.359375 94.972656 C 175.074219 95.910156 169.445312 99.523438 165.667969 105.882812 C 165.417969 106.3125 164.890625 106.980469 165.25 107.273438 C 165.722656 107.65625 166.078125 106.871094 166.441406 106.570312 C 167.355469 105.816406 168.277344 105.105469 169.394531 104.667969 C 172.335938 103.519531 175.003906 104.695312 176.023438 107.695312 C 176.4375 108.917969 176.652344 110.210938 176.941406 111.476562 C 178.117188 116.578125 181.152344 120.011719 186.183594 121.511719 C 191.730469 123.160156 197.359375 123.460938 203.035156 122.167969 C 203.65625 122.023438 204.296875 121.890625 204.957031 122.039062 C 204.902344 122.492188 204.503906 122.472656 204.238281 122.59375 C 200.082031 124.46875 195.859375 126.222656 191.246094 126.5 C 183.25 126.984375 175.734375 125.269531 168.945312 120.945312 C 166.261719 119.234375 164.398438 116.792969 164.015625 113.460938 C 163.964844 112.992188 163.882812 112.382812 163.324219 112.285156 C 162.710938 112.175781 162.585938 112.832031 162.375 113.230469 C 161.726562 114.457031 161.304688 115.765625 161.046875 117.167969 C 160.300781 115.824219 160.53125 113.722656 161.617188 112.453125 C 162.351562 111.589844 163.183594 110.804688 163.964844 109.980469 C 164.253906 109.671875 164.667969 109.4375 164.71875 108.96875 C 164.339844 108.671875 164.128906 108.957031 163.945312 109.128906 C 162.152344 110.859375 159.972656 112.328125 159.925781 115.222656 C 159.890625 117.328125 160.644531 119.207031 161.597656 121.007812 C 162.226562 122.1875 162.945312 123.320312 163.667969 124.445312 C 165.375 127.125 165.292969 128.054688 163.117188 130.308594 C 162.667969 130.773438 162.207031 131.246094 161.835938 131.773438 C 160.992188 132.960938 161.050781 133.992188 162.019531 135.089844 C 162.933594 136.125 163.917969 137.09375 164.832031 138.125 C 166.464844 139.960938 166.644531 142.050781 165.769531 144.265625 C 165.199219 145.695312 164.523438 147.089844 163.929688 148.507812 C 163.179688 150.300781 163.351562 151.992188 164.53125 153.566406 C 165.308594 154.597656 166.261719 155.519531 166.605469 156.832031 C 166.65625 157.03125 166.824219 157.199219 167.0625 157.117188 C 167.308594 157.03125 167.269531 156.800781 167.226562 156.605469 C 167.03125 155.703125 166.589844 154.914062 165.957031 154.277344 C 163.917969 152.226562 163.746094 149.988281 165.09375 147.503906 C 165.578125 146.617188 165.945312 145.664062 166.347656 144.734375 C 167.472656 142.132812 167.152344 139.734375 165.277344 137.589844 C 164.507812 136.707031 163.664062 135.878906 162.855469 135.019531 C 161.65625 133.742188 161.636719 132.964844 162.796875 131.644531 C 163.199219 131.1875 163.652344 130.777344 164.074219 130.339844 C 165.777344 128.566406 165.964844 127.113281 164.777344 124.945312 C 164.628906 124.671875 164.484375 124.398438 164.425781 124.054688 C 165.894531 125.46875 167.550781 126.691406 168.6875 128.421875 C 169.550781 129.75 169.34375 131.21875 169.125 132.679688 C 168.714844 135.386719 168.714844 135.386719 171.375 135.148438 C 172.785156 135.023438 172.996094 135.1875 173.023438 136.648438 C 173.039062 137.351562 173.191406 137.855469 174.019531 137.847656 C 174.214844 137.847656 174.566406 137.84375 174.539062 138.019531 C 174.3125 139.46875 175.300781 139.355469 176.21875 139.398438 C 176.5625 139.414062 176.589844 139.785156 176.722656 140.023438 C 178.191406 142.746094 180.085938 143.371094 182.882812 142.039062 C 183.804688 141.597656 184.6875 141.078125 185.414062 140.367188 C 185.957031 139.832031 186.179688 139.980469 186.546875 140.574219 C 189.246094 144.96875 188.816406 148.648438 185.132812 152.3125 C 182.871094 154.558594 180.183594 156.257812 177.707031 158.226562 C 173.226562 161.796875 168.792969 165.417969 164.714844 169.449219 C 163.527344 170.625 162.46875 171.917969 161.753906 173.445312 C 160.609375 175.875 160.578125 178.226562 162.40625 180.386719 C 162.554688 180.566406 162.6875 180.761719 162.886719 181.03125 C 162.164062 181.257812 161.511719 181.441406 160.878906 181.675781 C 159.8125 182.070312 159.328125 182.925781 159.136719 183.988281 C 159.097656 184.214844 159.054688 184.519531 159.371094 184.585938 C 159.699219 184.660156 159.785156 184.34375 159.820312 184.128906 C 160.109375 182.460938 161.363281 182.128906 162.757812 181.886719 C 163.410156 181.777344 163.914062 181.828125 164.417969 182.296875 C 164.921875 182.765625 165.503906 183.15625 166.222656 183.242188 C 167.019531 183.335938 167.625 183.003906 167.785156 182.222656 C 167.949219 181.410156 167.382812 181.066406 166.65625 180.957031 C 166.296875 180.898438 165.933594 180.859375 165.570312 180.820312 C 164.769531 180.738281 163.898438 181.195312 163.222656 180.300781 C 162.316406 179.109375 161.554688 177.90625 161.691406 176.324219 C 161.871094 174.1875 162.960938 172.496094 164.3125 170.945312 C 166.324219 168.644531 168.675781 166.703125 170.964844 164.695312 C 174.785156 161.34375 178.8125 158.257812 182.867188 155.199219 C 184.488281 153.972656 186.011719 152.632812 187.195312 150.953125 C 189.46875 147.738281 189.675781 144.445312 187.625 141.039062 C 186.621094 139.375 186.632812 139.359375 187.855469 137.800781 C 189.015625 136.320312 189.988281 134.734375 190.515625 132.914062 C 190.691406 132.289062 190.824219 131.648438 190.734375 130.988281 C 190.5 129.273438 189.136719 128.707031 187.742188 129.75 C 185.058594 131.757812 184.066406 134.964844 185.296875 138.101562 C 185.652344 139.011719 185.464844 139.492188 184.753906 140.019531 C 183.730469 140.769531 182.695312 141.46875 181.453125 141.800781 C 179.035156 142.4375 176.878906 140.539062 177.105469 138.046875 C 177.167969 137.363281 177.867188 136.503906 177.167969 136.03125 C 176.613281 135.65625 176.101562 136.566406 175.523438 136.824219 C 174.265625 137.398438 173.964844 137.253906 173.765625 135.886719 C 173.601562 134.777344 172.835938 134.3125 171.371094 134.433594 C 169.53125 134.585938 169.496094 134.578125 169.84375 132.71875 C 170.324219 130.164062 169.75 128.007812 167.765625 126.226562 C 166.410156 125.007812 165.222656 123.59375 163.863281 122.378906 C 161.777344 120.515625 161.40625 118.277344 162.15625 115.730469 C 162.390625 114.933594 162.71875 114.160156 163.128906 113.03125 C 163.546875 114.476562 163.667969 115.597656 164.175781 116.605469 C 165.570312 119.363281 167.730469 121.375 170.441406 122.707031 C 180.078125 127.449219 189.984375 129.105469 200.316406 124.988281 C 200.417969 124.949219 200.542969 124.964844 200.992188 124.917969 C 199.023438 126.460938 198.644531 128.386719 198.613281 130.480469 C 198.574219 133.109375 199.449219 135.300781 201.390625 137.109375 C 203.710938 139.261719 206.144531 141.296875 208.25 143.679688 C 209.570312 145.171875 210.898438 146.691406 211.808594 148.457031 C 213.867188 152.441406 216.890625 155.683594 219.777344 159.027344 C 223.570312 163.421875 227.789062 167.4375 231.269531 172.105469 C 233.070312 174.515625 234.824219 176.972656 235.695312 179.902344 C 237.226562 185.035156 235.550781 188.535156 230.601562 190.554688 C 227.554688 191.800781 224.414062 192.769531 221.253906 193.675781 C 216.761719 194.964844 212.152344 195.746094 207.609375 196.820312 C 206.46875 197.09375 205.351562 197.480469 204.242188 197.863281 C 203.078125 198.257812 202.742188 199.109375 203 200.277344 C 203.246094 201.378906 203.8125 202.308594 204.496094 203.171875 C 205.097656 203.933594 205.46875 204.730469 205.425781 205.730469 C 205.382812 206.800781 205.867188 207.683594 206.5625 208.472656 C 207.394531 209.414062 208.234375 210.355469 209.011719 211.34375 C 209.476562 211.9375 209.933594 212.574219 209.972656 213.292969 C 209.027344 212.441406 208.058594 211.519531 207.027344 210.679688 C 206.539062 210.28125 206.011719 209.214844 205.476562 209.730469 C 204.992188 210.203125 206.078125 210.65625 206.46875 211.082031 C 208.097656 212.847656 209.570312 214.734375 211.046875 216.621094 C 211.476562 217.171875 211.710938 217.796875 211.804688 218.710938 C 209.984375 217.203125 208.316406 215.820312 206.648438 214.445312 C 205.929688 213.851562 205.207031 213.257812 204.460938 212.699219 C 204.246094 212.535156 203.992188 212.058594 203.671875 212.449219 C 203.386719 212.800781 203.808594 213.03125 204.035156 213.21875 C 205.753906 214.648438 207.5 216.039062 209.199219 217.488281 C 210.03125 218.199219 210.785156 219.003906 211.5625 219.773438 C 211.730469 219.941406 211.976562 220.140625 211.773438 220.382812 C 211.675781 220.492188 211.394531 220.492188 211.203125 220.472656 C 210.964844 220.441406 210.71875 220.375 210.507812 220.261719 C 206.066406 217.96875 201.625 215.648438 198.449219 211.601562 C 195.773438 208.191406 193.871094 204.417969 193.183594 200.101562 C 192.632812 196.675781 193.847656 194.066406 196.824219 192.265625 C 198.710938 191.125 200.75 190.320312 202.8125 189.578125 C 207.125 188.019531 210.964844 185.765625 214.003906 182.269531 C 214.082031 182.175781 214.175781 182.09375 214.261719 182.011719 C 216.78125 179.535156 216.78125 179.535156 219.96875 180.878906 C 221.359375 181.460938 222.777344 181.949219 224.28125 182.15625 C 225 182.25 225.839844 182.390625 226.238281 181.59375 C 226.65625 180.753906 226.082031 180.070312 225.5 179.582031 C 223.449219 177.859375 221.042969 177.59375 218.621094 178.445312 C 217.386719 178.878906 216.511719 178.589844 215.585938 177.957031 C 214.078125 176.929688 213.089844 175.542969 212.785156 173.710938 C 212.601562 172.59375 212.457031 171.460938 212.039062 170.390625 C 211.210938 168.28125 208 167.148438 206.042969 168.277344 C 205.90625 168.355469 205.75 168.429688 205.796875 168.640625 C 205.847656 168.847656 206.027344 168.859375 206.175781 168.851562 C 206.664062 168.824219 207.148438 168.777344 207.632812 168.730469 C 210.070312 168.484375 211.042969 169.164062 211.652344 171.558594 C 211.753906 171.953125 211.855469 172.347656 211.902344 172.75 C 212.121094 174.746094 212.78125 176.535156 214.382812 177.847656 C 214.289062 177.960938 214.238281 178.070312 214.199219 178.066406 C 209.421875 177.628906 205.714844 179.878906 202.390625 182.898438 C 197.410156 187.421875 193.28125 192.613281 190.765625 198.925781 C 189.710938 201.578125 189.171875 204.375 189.09375 207.246094 C 188.996094 210.617188 188.550781 213.960938 188.273438 217.320312 C 188.214844 218.019531 187.894531 218.957031 188.671875 219.328125 C 189.539062 219.742188 190.167969 218.945312 190.730469 218.378906 C 191.824219 217.277344 192.136719 215.851562 192.253906 214.371094 C 192.304688 213.726562 192.28125 213.070312 192.320312 212.425781 C 192.417969 210.863281 193.273438 210.269531 194.792969 210.71875 C 196.035156 211.085938 197.003906 211.910156 197.953125 212.738281 C 201.304688 215.660156 204.945312 218.15625 208.863281 220.25 C 209.433594 220.554688 210.023438 220.84375 210.632812 221.054688 C 211.945312 221.507812 212.4375 221.230469 212.882812 219.847656 C 213.390625 220.144531 213.496094 220.691406 213.609375 221.160156 C 214.601562 225.15625 216.582031 228.679688 218.648438 232.183594 C 220.160156 234.746094 221.421875 237.445312 221.699219 240.460938 C 222.367188 247.785156 220.996094 254.535156 215.941406 260.199219 C 214.75 261.53125 213.589844 262.886719 212.433594 264.25 C 211.535156 265.308594 210.835938 266.5 210.222656 267.742188 C 210.113281 267.960938 209.988281 268.238281 210.226562 268.410156 C 210.488281 268.597656 210.691406 268.355469 210.789062 268.140625 C 212.449219 264.617188 215.582031 262.214844 217.726562 259.074219 C 223.40625 250.746094 224.367188 241.996094 219.800781 232.851562 C 218.875 231.007812 217.78125 229.238281 216.71875 227.460938 C 216.042969 226.332031 215.617188 225.109375 215.253906 223.867188 C 214.359375 220.800781 213.003906 217.957031 211.253906 215.292969 C 211.082031 215.023438 210.800781 214.789062 210.863281 214.429688 C 211.175781 212.691406 210.171875 211.503906 209.15625 210.316406 C 208.601562 209.671875 208.054688 209.019531 207.460938 208.402344 C 206.550781 207.449219 205.964844 206.398438 206.078125 205.023438 C 206.140625 204.242188 205.714844 203.636719 205.277344 203.035156 C 204.675781 202.21875 204.089844 201.398438 203.757812 200.417969 C 203.421875 199.417969 203.699219 198.8125 204.710938 198.429688 C 207.382812 197.417969 210.1875 196.945312 212.972656 196.382812 C 218.671875 195.230469 224.257812 193.695312 229.707031 191.660156 C 230.390625 191.40625 231.0625 191.121094 231.71875 190.796875 C 236.265625 188.5625 237.828125 185.035156 236.488281 180.128906 C 235.777344 177.542969 234.382812 175.308594 232.871094 173.136719 C 229.9375 168.917969 226.378906 165.238281 222.902344 161.484375 C 220.167969 158.535156 217.597656 155.445312 215.050781 152.335938 C 214.566406 151.742188 214.101562 151.105469 213.75 150.425781 C 211.488281 146.023438 208.285156 142.394531 204.621094 139.125 C 203.378906 138.019531 202.183594 136.855469 201.039062 135.652344 C 199.789062 134.316406 199.339844 132.679688 199.34375 130.636719 Z M 203.84375 113.203125 C 204.003906 113.261719 204.160156 113.316406 204.320312 113.375 C 204.378906 113.222656 204.441406 113.070312 204.496094 112.914062 C 205.164062 110.992188 206.824219 109.992188 208.320312 108.851562 C 208.90625 108.40625 209.621094 108.167969 210.375 108.195312 C 211.648438 108.238281 212.03125 108.820312 211.554688 109.992188 C 210.921875 111.570312 210.1875 113.117188 209.785156 114.78125 C 209.722656 115.039062 209.671875 115.300781 209.253906 115.296875 C 208.054688 115.285156 207.707031 116.230469 207.457031 117.125 C 206.964844 118.875 207.179688 120.621094 207.996094 122.214844 C 208.472656 123.140625 208.269531 123.730469 207.664062 124.460938 C 205.855469 126.640625 204.285156 128.953125 204.164062 131.921875 C 204.132812 132.597656 203.757812 132.507812 203.34375 132.355469 C 201.71875 131.753906 200.050781 131.097656 199.636719 129.191406 C 199.253906 127.402344 200.488281 126.257812 201.679688 125.175781 C 201.886719 124.984375 202.117188 124.808594 202.363281 124.671875 C 203.351562 124.109375 204.351562 123.582031 205.332031 123.007812 C 205.730469 122.773438 206.367188 122.605469 206.246094 122.015625 C 206.109375 121.335938 205.441406 121.3125 204.871094 121.28125 C 203.882812 121.230469 202.925781 121.453125 201.980469 121.652344 C 196.648438 122.769531 191.390625 122.394531 186.226562 120.796875 C 181.566406 119.347656 178.75 116.136719 177.644531 111.394531 C 177.339844 110.089844 177.128906 108.753906 176.695312 107.496094 C 175.476562 103.980469 172.246094 102.640625 168.855469 104.171875 C 168.253906 104.441406 167.679688 104.773438 167.027344 105.109375 C 167.074219 104.929688 167.070312 104.84375 167.109375 104.785156 C 167.265625 104.546875 167.417969 104.304688 167.597656 104.085938 C 170.890625 100.011719 175.003906 97.128906 180.15625 96.035156 C 185.375 94.929688 190.441406 95.261719 194.871094 98.6875 C 197.902344 101.03125 200.164062 104.042969 202.09375 107.316406 C 203.15625 109.121094 204.554688 110.816406 203.84375 113.203125 Z M 220.460938 129.289062 C 220.664062 130.175781 220.621094 130.871094 220.527344 131.550781 C 220.117188 134.597656 218.691406 136.351562 216.121094 136.835938 C 213.214844 137.390625 210.378906 137.09375 207.675781 135.824219 C 206.789062 135.410156 205.984375 134.863281 205.421875 134.023438 C 205.09375 133.527344 204.953125 133.199219 205.65625 132.792969 C 208.394531 131.214844 209.75 128.722656 209.667969 125.632812 C 209.625 123.972656 209.949219 122.578125 210.761719 121.171875 C 211.617188 119.695312 211.910156 118.046875 210.847656 116.5625 C 210.125 115.558594 210.65625 115.117188 211.347656 114.632812 C 213.535156 113.074219 216.578125 113.1875 218.742188 114.875 C 220.355469 116.132812 221.371094 117.820312 222.230469 119.640625 C 223.625 122.597656 222.546875 125.09375 220.871094 127.664062 C 220.519531 126.976562 220.269531 126.429688 219.96875 125.910156 C 219.21875 124.59375 218.324219 123.390625 216.953125 122.644531 C 215.652344 121.9375 214.855469 122.125 214.054688 123.339844 C 212.960938 124.996094 212.304688 126.8125 212.109375 128.789062 C 211.875 131.148438 212.617188 131.839844 214.976562 131.46875 C 216.917969 131.164062 218.722656 130.488281 220.460938 129.289062 Z M 195.46875 192.074219 C 197.742188 188.492188 200.472656 185.308594 203.746094 182.625 C 205.570312 181.125 207.519531 179.796875 209.84375 179.167969 C 211.988281 178.589844 214.113281 178.652344 216.597656 179.265625 C 214.949219 180.199219 213.914062 181.289062 212.902344 182.390625 C 210.429688 185.070312 207.445312 186.949219 204.074219 188.292969 C 201.179688 189.445312 198.1875 190.382812 195.46875 192.074219 Z M 192.367188 197.148438 C 192.085938 199.652344 192.738281 201.984375 193.550781 204.292969 C 194.355469 206.585938 195.523438 208.695312 196.84375 210.761719 C 196.507812 210.6875 196.234375 210.539062 195.960938 210.402344 C 193.242188 209.066406 191.640625 210.03125 191.601562 213.042969 C 191.589844 214.179688 191.550781 215.316406 191.144531 216.398438 C 190.757812 217.433594 190.15625 218.273438 188.789062 218.785156 C 190.019531 211.402344 188.917969 203.917969 192.367188 197.148438 Z M 212.761719 129.640625 C 212.878906 127.457031 213.445312 125.621094 214.480469 123.933594 C 215.191406 122.769531 215.8125 122.625 216.953125 123.414062 C 218.402344 124.417969 219.238281 125.886719 219.976562 127.4375 C 220.320312 128.160156 220.191406 128.636719 219.515625 129.0625 C 217.875 130.097656 216.101562 130.691406 214.167969 130.847656 C 213.121094 130.933594 212.640625 130.503906 212.761719 129.640625 Z M 186.363281 138.460938 C 184.796875 135.925781 185.378906 132.863281 187.816406 130.664062 C 188.277344 130.25 188.757812 129.621094 189.472656 130.019531 C 190.191406 130.417969 190.117188 131.171875 190 131.867188 C 189.550781 134.476562 188.105469 136.527344 186.363281 138.460938 Z M 208.75 124.332031 C 209.425781 127.25 207.964844 130.730469 205.703125 131.984375 C 205.5 132.097656 205.222656 132.246094 205.042969 132.183594 C 204.691406 132.0625 204.839844 131.699219 204.882812 131.441406 C 205.347656 128.699219 206.777344 126.492188 208.75 124.332031 Z M 218.171875 179.265625 C 220.804688 178.410156 222.957031 178.523438 224.941406 179.984375 C 225.324219 180.269531 225.78125 180.703125 225.597656 181.1875 C 225.382812 181.757812 224.75 181.511719 224.3125 181.445312 C 222.246094 181.136719 220.371094 180.285156 218.171875 179.265625 Z M 209.96875 116.625 C 211.195312 118.085938 210.960938 120.234375 209.46875 121.660156 C 209.304688 119.949219 209.390625 118.328125 209.96875 116.625 Z M 209.414062 115.917969 C 208.761719 117.921875 208.542969 119.824219 208.667969 121.765625 C 207.457031 119.328125 207.722656 116.871094 209.414062 115.917969 Z M 164.828125 181.542969 C 165.707031 181.550781 166.4375 181.34375 167.023438 181.921875 C 167.203125 182.09375 167.011719 182.332031 166.832031 182.386719 C 166.070312 182.617188 165.4375 182.398438 164.828125 181.542969 Z M 170.078125 186.328125 C 167.617188 186.328125 165.152344 186.328125 162.695312 186.328125 C 161.230469 186.328125 159.765625 186.363281 158.339844 186.726562 C 156.269531 187.253906 155.582031 188.5625 156.488281 190.464844 C 156.964844 191.464844 157.136719 192.332031 156.554688 193.328125 C 156.34375 193.699219 156.285156 194.179688 156.25 194.617188 C 156.15625 195.828125 156.671875 196.367188 157.875 196.3125 C 158.519531 196.28125 159.152344 196.164062 159.855469 196.078125 C 159.875 196.707031 159.4375 196.992188 159.085938 197.257812 C 152.746094 201.984375 150.582031 208.851562 149.6875 216.210938 C 148.304688 227.554688 153.632812 235.796875 162.320312 242.339844 C 164.140625 243.710938 166.136719 244.824219 168.132812 245.894531 C 169.566406 246.664062 171.257812 246.703125 172.878906 246.828125 C 173.074219 246.84375 173.261719 246.878906 173.390625 246.898438 C 173.535156 247.171875 173.410156 247.296875 173.308594 247.40625 C 168.289062 252.613281 164.179688 258.480469 160.605469 264.75 C 157.953125 269.402344 155.203125 274.003906 152.503906 278.625 C 152.300781 278.972656 152.089844 279.328125 151.925781 279.695312 C 151.824219 279.929688 151.539062 280.242188 151.871094 280.453125 C 152.320312 280.734375 152.40625 280.238281 152.539062 280.003906 C 154.101562 277.292969 155.570312 274.535156 157.203125 271.871094 C 160.828125 265.960938 164.007812 259.765625 168.316406 254.285156 C 170.101562 252.019531 172.023438 249.871094 173.960938 247.738281 C 174.5 247.148438 175.058594 246.890625 175.84375 246.851562 C 179.40625 246.664062 182.835938 245.898438 186.035156 244.273438 C 187.53125 243.511719 188.910156 242.574219 189.792969 241.085938 C 190.351562 240.144531 190.734375 239.109375 190.082031 238.101562 C 189.460938 237.136719 188.386719 237.066406 187.347656 237.164062 C 185.734375 237.3125 184.3125 238.007812 182.960938 238.855469 C 180.1875 240.59375 177.855469 242.859375 175.550781 245.152344 C 174.746094 245.953125 173.957031 246.226562 172.773438 246.183594 C 169.738281 246.0625 167.257812 244.691406 164.808594 243.152344 C 158.761719 239.347656 154.046875 234.398438 151.546875 227.597656 C 149.21875 221.265625 149.984375 214.976562 152.042969 208.742188 C 152.703125 206.734375 153.632812 204.839844 154.6875 203.003906 C 155.652344 201.328125 156.847656 199.886719 158.417969 198.726562 C 159.410156 197.996094 160.519531 197.304688 160.855469 195.953125 C 160.933594 195.628906 161.304688 195.648438 161.566406 195.574219 C 162.738281 195.238281 163.914062 194.929688 165.078125 194.5625 C 165.714844 194.363281 166.5625 194.238281 166.527344 193.339844 C 166.488281 192.359375 165.558594 192.578125 164.570312 192.332031 C 166.195312 192.015625 167.46875 191.769531 168.742188 191.511719 C 169.140625 191.433594 169.535156 191.347656 169.917969 191.222656 C 170.355469 191.078125 170.796875 190.84375 170.75 190.3125 C 170.710938 189.8125 170.3125 189.570312 169.828125 189.484375 C 169.4375 189.414062 169.050781 189.324219 168.664062 189.097656 C 169.074219 189.074219 169.492188 189.070312 169.902344 189.023438 C 170.480469 188.957031 171.242188 189.167969 171.441406 188.382812 C 171.636719 187.632812 170.789062 187.589844 170.410156 187.195312 C 170.789062 186.90625 171.519531 187.261719 171.605469 186.632812 C 171.691406 185.972656 171.058594 185.785156 170.589844 185.582031 C 168.96875 184.898438 167.222656 184.710938 165.507812 184.382812 C 164.550781 184.203125 163.597656 184.015625 162.628906 183.886719 C 162.285156 183.839844 161.707031 183.402344 161.601562 183.996094 C 161.492188 184.613281 162.207031 184.503906 162.59375 184.574219 C 164.148438 184.859375 165.71875 185.089844 167.273438 185.363281 C 168.222656 185.539062 169.183594 185.703125 170.078125 186.328125 Z M 165.648438 193.417969 C 163.078125 194.382812 160.507812 195.3125 157.765625 195.59375 C 157.132812 195.664062 156.917969 195.246094 156.929688 194.671875 C 156.941406 194.125 157.148438 193.636719 157.394531 193.171875 C 157.863281 192.308594 157.789062 191.503906 157.339844 190.632812 C 156.285156 188.597656 156.761719 187.675781 159.074219 187.296875 C 161.699219 186.867188 164.335938 186.917969 166.960938 187.273438 C 168.128906 187.429688 169.328125 187.519531 170.484375 188.015625 C 170.199219 188.433594 169.890625 188.316406 169.632812 188.335938 C 167.566406 188.492188 165.503906 188.605469 163.441406 188.792969 C 162.851562 188.84375 161.859375 188.675781 161.890625 189.527344 C 161.925781 190.429688 162.890625 190.105469 163.476562 190.101562 C 164.976562 190.09375 166.480469 190 167.984375 189.976562 C 168.613281 189.964844 169.285156 189.875 169.84375 190.355469 C 169.425781 190.890625 168.796875 190.765625 168.265625 190.875 C 166.035156 191.324219 163.808594 191.765625 161.628906 192.410156 C 161.214844 192.53125 160.613281 192.585938 160.707031 193.171875 C 160.816406 193.851562 161.453125 193.632812 161.910156 193.621094 C 162.230469 193.617188 162.546875 193.507812 162.871094 193.472656 C 163.78125 193.382812 164.675781 193.046875 165.648438 193.417969 Z M 175.527344 246.203125 C 176.257812 245.472656 176.722656 244.976562 177.21875 244.515625 C 179.507812 242.402344 181.714844 240.175781 184.550781 238.765625 C 185.679688 238.210938 186.839844 237.703125 188.148438 237.835938 C 189.53125 237.972656 189.972656 238.695312 189.507812 240.019531 C 189.132812 241.09375 188.394531 241.90625 187.492188 242.542969 C 184 245.003906 180.007812 245.859375 175.527344 246.203125 Z M 175.527344 246.203125 " fill-opacity="1" fill-rule="nonzero"/></g></svg>