<svg xmlns="http://www.w3.org/2000/svg" xmlns:xlink="http://www.w3.org/1999/xlink" width="500" zoomAndPan="magnify" viewBox="0 0 375 374.999991" height="500" preserveAspectRatio="xMidYMid meet" version="1.0"><defs><clipPath id="048df166a0"><path d="M 115 106 L 258 106 L 258 269.566406 L 115 269.566406 Z M 115 106 " clip-rule="nonzero"/></clipPath></defs><g clip-path="url(#048df166a0)"><path fill="#b7a4ad" d="M 254.355469 139.640625 C 248.125 127.402344 237.445312 126.289062 231.289062 127.253906 C 228.375 127.710938 225.515625 129.152344 222.945312 131.144531 C 220.902344 124.796875 217.359375 116.15625 213.859375 113.460938 C 209.335938 109.972656 200.363281 105.300781 188.941406 107.082031 C 187.421875 107.316406 185.957031 107.816406 184.554688 108.433594 C 179.144531 110.820312 174.464844 114.917969 170.410156 119.144531 C 168.417969 121.21875 166.539062 123.410156 164.832031 125.726562 C 162.589844 128.773438 160.894531 132.4375 159.925781 136.082031 C 159.277344 138.523438 158.65625 140.976562 158.144531 143.453125 C 157.15625 148.238281 156.183594 153.671875 157.570312 158.476562 C 158.390625 161.320312 159.386719 163.324219 160.550781 164.785156 C 160.199219 164.558594 159.800781 164.335938 159.347656 164.113281 C 155.984375 162.472656 152.066406 161.832031 148.71875 161.78125 C 149.226562 159.890625 149.691406 157.324219 150.078125 153.65625 C 151.117188 143.792969 151.042969 140.824219 148.296875 136.449219 C 145.554688 132.074219 139.472656 132.074219 137.25 136.746094 C 135.023438 141.417969 134.355469 144.683594 134.578125 146.019531 C 134.800781 147.351562 134.800781 147.351562 134.800781 147.351562 C 134.800781 147.351562 132.796875 144.980469 129.089844 144.535156 C 125.382812 144.089844 123.230469 143.570312 121.230469 145.574219 C 119.226562 147.574219 118.855469 151.433594 121.007812 154.324219 C 123.15625 157.214844 127.382812 159.8125 130.425781 160.480469 C 133.464844 161.148438 136.730469 160.628906 137.398438 160.257812 C 137.398438 160.257812 130.425781 160.777344 125.53125 157.511719 C 120.636719 154.25 119.226562 150.097656 121.007812 146.980469 C 122.785156 143.867188 126.199219 144.460938 128.496094 145.128906 C 130.796875 145.796875 132.722656 145.5 134.28125 147.5 C 135.839844 149.503906 135.914062 151.0625 136.582031 151.65625 C 137.25 152.246094 137.25 151.804688 136.878906 150.46875 C 136.507812 149.132812 135.542969 148.6875 135.46875 146.242188 C 135.394531 143.792969 135.914062 139.714844 137.839844 137.339844 C 139.769531 134.96875 142.441406 133.113281 145.332031 135.265625 C 148.222656 137.414062 149.484375 140.828125 149.78125 144.757812 C 150.066406 148.507812 149.199219 156.898438 147.574219 161.789062 C 145.226562 161.851562 143.261719 162.203125 142.144531 162.707031 C 139.324219 163.964844 136.878906 165.078125 134.726562 166.265625 C 132.574219 167.453125 128.644531 170.34375 127.234375 171.679688 C 125.828125 173.015625 123.898438 176.722656 123.453125 178.355469 C 123.042969 179.859375 122.371094 182.882812 122.3125 184.5 C 122.296875 183.464844 122.300781 182.429688 122.339844 181.394531 C 122.414062 179.46875 123.378906 177.019531 120.933594 176.648438 C 118.484375 176.277344 117.371094 179.6875 116.703125 183.546875 C 116.035156 187.402344 114.394531 193.78125 116.105469 199.269531 C 117.792969 204.683594 120.417969 209.222656 123.515625 213.925781 C 124.429688 215.316406 125.683594 216.5625 126.699219 217.890625 C 128.078125 219.699219 129.503906 221.542969 130.648438 223.519531 C 131.464844 224.929688 133.09375 227.230469 133.09375 227.230469 C 133.09375 227.230469 132.5 225.078125 129.015625 220.183594 C 125.53125 215.289062 120.339844 206.832031 118.929688 204.089844 C 117.519531 201.34375 116.183594 196.894531 116.109375 193.484375 C 116.035156 190.070312 116.851562 184.585938 117.667969 181.914062 C 118.039062 180.695312 118.625 179.304688 119.464844 178.335938 C 120.015625 177.703125 120.992188 177.3125 121.496094 178.222656 C 121.894531 178.9375 121.574219 179.570312 121.515625 180.296875 C 121.367188 182.109375 121.507812 183.886719 121.597656 185.695312 C 121.894531 191.480469 122.191406 197.488281 125.011719 200.679688 C 126.675781 202.558594 128.398438 204.445312 130.363281 206.03125 C 131.902344 207.277344 136.484375 209.988281 136.359375 205.945312 C 136.285156 203.570312 135.320312 199.492188 135.171875 196.523438 C 135.023438 193.558594 135.914062 191.109375 137.171875 190.21875 C 138.433594 189.332031 139.324219 188.738281 139.398438 190.664062 C 139.449219 191.96875 139.585938 193.53125 139.84375 194.800781 C 140.078125 195.964844 140.726562 197.125 141.03125 198.304688 C 141.699219 200.898438 144.070312 208.316406 144.21875 213.285156 C 144.367188 218.253906 145.183594 221.964844 146.519531 224.335938 C 147.851562 226.710938 150.375 230.863281 153.191406 233.976562 C 156.011719 237.09375 160.460938 242.433594 171.511719 247.699219 C 182.5625 252.964844 191.164062 255.261719 194.949219 257.191406 C 196.75 258.109375 198.570312 259.015625 200.222656 260.003906 C 200.6875 262.113281 201.460938 265.152344 202.289062 266.535156 C 203.625 268.761719 205.035156 269.652344 206.589844 269.28125 C 208.148438 268.910156 208.59375 267.054688 205.996094 263.792969 C 204.675781 262.128906 203.019531 260.734375 201.03125 259.484375 C 200.773438 257.988281 200.535156 256.425781 200.214844 254.890625 C 199.101562 249.625 197.765625 237.683594 198.136719 233.679688 C 198.457031 230.234375 199.488281 224.214844 201.046875 219.957031 C 202.640625 220.957031 204.121094 221.84375 205.480469 222.554688 C 209.855469 224.855469 216.53125 228.042969 222.089844 227.597656 C 224.246094 227.425781 226.410156 227.226562 228.527344 226.765625 C 234.425781 225.476562 239.5 220.832031 240.410156 214.769531 C 241.078125 210.320312 240.410156 211.800781 240.410156 211.800781 C 240.410156 211.800781 239.074219 218.699219 236.183594 221.371094 C 233.289062 224.039062 228.765625 225.375 225.652344 225.894531 C 222.535156 226.414062 216.332031 227.078125 208.445312 222.628906 C 206.246094 221.390625 203.917969 220.003906 201.59375 218.589844 C 201.675781 218.402344 201.757812 218.210938 201.84375 218.03125 C 203.847656 213.878906 211.410156 202.085938 214.082031 197.785156 C 216.75 193.484375 219.570312 188.886719 221.054688 184.136719 C 222.535156 179.390625 224.390625 172.125 221.644531 165.96875 C 218.902344 159.8125 215.195312 157.144531 213.042969 156.550781 C 212.960938 156.527344 212.875 156.507812 212.792969 156.488281 C 212.941406 155.421875 212.976562 154.261719 212.808594 153.015625 C 213.75 153.085938 214.632812 153.105469 215.417969 153.0625 C 219.570312 152.839844 223.722656 151.136719 225.058594 148.019531 C 226.394531 144.90625 225.652344 141.492188 224.316406 135.933594 C 224.0625 134.878906 223.691406 133.542969 223.230469 132.046875 C 225.738281 129.832031 228.390625 128.722656 233.289062 128.070312 C 241.671875 126.957031 250.050781 133.78125 253.09375 139.714844 C 256.132812 145.648438 257.246094 150.988281 254.574219 157.367188 C 251.90625 163.742188 246.195312 166.265625 241.597656 167.675781 C 237.4375 168.949219 232.253906 169.308594 229.378906 168.101562 C 229.449219 167.507812 229.539062 166.832031 229.65625 166.042969 C 230.25 162.039062 230.324219 157.511719 227.875 156.996094 C 225.429688 156.476562 222.832031 160.40625 224.613281 164.261719 C 225.625 166.457031 226.472656 168.050781 228.367188 168.949219 C 228.15625 171.058594 228.078125 173.480469 228.765625 174.941406 C 229.878906 177.316406 230.769531 178.875 233.882812 179.242188 C 237 179.613281 240.1875 179.984375 240.707031 179.242188 C 240.707031 179.242188 236.109375 178.871094 233.808594 178.28125 C 231.511719 177.6875 229.730469 175.90625 229.433594 173.535156 C 229.238281 171.972656 229.140625 170.953125 229.265625 169.296875 C 230.625 169.722656 232.441406 169.878906 234.996094 169.75 C 242.339844 169.378906 248.125 167.082031 251.609375 163.296875 C 255.09375 159.515625 260.582031 151.878906 254.355469 139.640625 Z M 204.8125 263.71875 C 207.035156 266.460938 208.222656 269.648438 204.8125 267.722656 C 202.652344 266.5 201.832031 263.792969 201.238281 260.636719 C 202.632812 261.554688 203.871094 262.554688 204.8125 263.71875 Z M 158.3125 154.175781 C 157.648438 146.078125 161.957031 132.078125 166.171875 125.621094 C 168.238281 122.460938 171.003906 119.699219 173.828125 117.210938 C 177.320312 114.132812 181.199219 111.351562 185.46875 109.457031 C 186.671875 108.921875 187.925781 108.507812 189.207031 108.199219 C 192.949219 107.296875 196.835938 107.667969 200.582031 108.519531 C 204.625 109.4375 208.738281 110.800781 212.058594 113.359375 C 213.882812 114.761719 215.394531 116.53125 216.457031 118.578125 C 218.382812 122.292969 220.585938 127.046875 222.21875 131.726562 C 219.664062 133.859375 217.433594 136.519531 215.789062 139.269531 C 214.171875 141.972656 212.558594 145.105469 210.996094 147.929688 C 210.703125 147.421875 210.378906 146.910156 210.003906 146.386719 C 206.371094 141.34375 201.179688 140.75 199.621094 142.902344 C 198.0625 145.054688 197.839844 148.242188 201.03125 150.023438 C 202.71875 150.964844 205.488281 151.820312 208.339844 152.386719 C 207.554688 153.554688 206.796875 154.507812 206.074219 155.140625 C 203.179688 157.660156 200.882812 160.480469 192.722656 163.816406 C 184.566406 167.15625 175.21875 169.824219 168.398438 168.195312 C 161.574219 166.5625 158.976562 162.273438 158.3125 154.175781 Z M 210.992188 149.511719 C 211.378906 150.34375 211.683594 151.175781 211.894531 151.9375 C 211.214844 151.878906 210.535156 151.804688 209.867188 151.707031 C 210.28125 150.972656 210.640625 150.246094 210.992188 149.511719 Z M 208.882812 151.546875 C 207.011719 151.222656 205.257812 150.757812 203.847656 150.246094 C 199.351562 148.609375 198.507812 146.019531 200.214844 143.71875 C 201.917969 141.417969 204.738281 142.878906 207.703125 145.128906 C 208.859375 146.003906 209.832031 147.308594 210.574219 148.683594 C 210.003906 149.703125 209.4375 150.671875 208.882812 151.546875 Z M 165.949219 189.171875 C 166.285156 188.875 166.730469 188.613281 167.160156 188.484375 C 167.371094 188.417969 167.589844 188.414062 167.804688 188.359375 C 168.535156 188.171875 169.253906 188.167969 169.984375 188.023438 C 170.398438 187.945312 170.742188 187.867188 171.140625 187.726562 C 171.496094 187.605469 171.84375 187.472656 172.1875 187.308594 C 172.910156 186.96875 173.398438 186.246094 173.632812 185.496094 C 173.734375 185.164062 173.875 184.636719 173.683594 184.292969 C 173.421875 183.828125 172.742188 184.144531 172.4375 184.390625 C 171.914062 184.808594 171.371094 185.105469 170.945312 185.648438 C 170.90625 185.695312 170.167969 186.597656 170.488281 186.648438 C 171.015625 186.734375 171.554688 186.109375 171.875 185.777344 C 172.03125 185.613281 173.039062 184.597656 172.996094 185.148438 C 172.96875 185.5 172.683594 185.707031 172.429688 185.902344 C 172.175781 186.097656 171.984375 186.308594 171.691406 186.460938 C 171.039062 186.796875 170.316406 186.949219 169.617188 187.148438 C 169.25 187.253906 168.890625 187.246094 168.527344 187.359375 C 168.109375 187.492188 167.675781 187.566406 167.261719 187.703125 C 166.953125 187.804688 166.492188 187.9375 166.371094 188.28125 C 166.355469 188.042969 166.402344 187.738281 166.53125 187.535156 C 166.675781 187.308594 166.945312 187.164062 167.132812 186.976562 C 167.398438 186.707031 167.726562 186.488281 168.003906 186.214844 C 168.234375 185.980469 168.492188 185.738281 168.75 185.527344 C 169.484375 184.925781 170.183594 184.296875 170.902344 183.675781 C 171.285156 183.34375 171.640625 182.96875 171.921875 182.542969 C 172.0625 182.332031 172.167969 182.121094 172.25 181.882812 C 172.289062 181.765625 172.5 181.414062 172.503906 181.320312 C 172.964844 181.878906 173.488281 182.351562 173.980469 182.875 C 174.367188 183.285156 174.773438 183.507812 175.246094 183.816406 C 175.625 184.066406 175.996094 184.175781 176.433594 184.238281 C 176.804688 184.289062 177.289062 184.199219 177.644531 184.335938 C 178.476562 184.65625 178.714844 185.539062 178.558594 186.363281 C 178.539062 186.464844 178.496094 186.5625 178.441406 186.65625 C 178.304688 186.554688 178.160156 186.464844 178.003906 186.421875 C 177.234375 186.207031 175.636719 186.300781 175.285156 187.167969 C 175.09375 187.648438 175.152344 188.222656 175.414062 188.664062 C 175.863281 189.417969 176.710938 189.433594 177.339844 188.902344 C 177.644531 188.648438 178.082031 188.398438 178.3125 188.070312 C 178.449219 187.871094 178.554688 187.625 178.648438 187.378906 C 178.84375 187.621094 179.007812 187.898438 179.179688 188.132812 C 179.5625 188.660156 179.839844 189.261719 179.964844 189.917969 C 179.757812 190.011719 179.570312 190.289062 179.347656 190.789062 C 178.8125 192.003906 178.734375 193.441406 178.78125 194.742188 C 178.78125 194.800781 178.785156 194.855469 178.785156 194.910156 C 178.785156 195.078125 178.789062 195.246094 178.8125 195.414062 C 178.867188 196.425781 179.003906 197.375 179.546875 198.304688 C 179.894531 198.894531 180.089844 199.761719 179.671875 200.703125 C 179.25 201.640625 178.730469 202.28125 176.605469 203.320312 C 175.21875 204 173.636719 203.96875 172.132812 204.007812 C 170.328125 204.050781 168.804688 203.589844 167.058594 203.171875 C 165.070312 202.695312 163.050781 202.070312 161.003906 201.945312 C 159.941406 201.878906 158.875 201.941406 157.816406 202.046875 C 156.921875 202.136719 155.78125 202.484375 154.921875 202.394531 C 153.335938 202.230469 151.285156 201.671875 149.78125 200.007812 C 149 199.140625 148.664062 198.34375 148.636719 197.628906 C 148.78125 197.605469 148.9375 197.582031 149.117188 197.5625 C 150.96875 197.339844 153.9375 197.339844 154.605469 197.339844 C 155.273438 197.339844 157.199219 197.117188 156.679688 195.632812 C 156.160156 194.148438 153.566406 193.554688 151.636719 193.777344 C 149.707031 194 148.375 195.484375 148.152344 196.300781 C 148.089844 196.519531 148.027344 196.808594 147.996094 197.148438 C 147.457031 197.261719 146.960938 197.414062 146.59375 197.636719 C 145.480469 198.304688 143.851562 199.636719 143.703125 200.15625 C 143.980469 199.175781 144.007812 198.273438 144.542969 197.339844 C 144.957031 196.621094 145.535156 195.867188 146.097656 195.261719 C 147.757812 193.476562 150.457031 192.703125 152.824219 192.816406 C 155.9375 192.964844 157.496094 193.410156 158.386719 192.445312 C 159.277344 191.480469 160.089844 189.996094 159.5 187.699219 C 158.90625 185.398438 158.238281 184.953125 157.199219 183.394531 C 155.730469 181.191406 155.027344 175.875 157.570312 174.125 C 158.757812 173.308594 160.164062 172.492188 161.128906 171.679688 C 161.671875 171.222656 163 169.855469 162.972656 168.210938 C 163.210938 168.429688 163.492188 168.601562 163.800781 168.785156 C 165.050781 169.53125 166.328125 170.28125 167.371094 171.3125 C 168.164062 172.09375 168.800781 173.023438 169.367188 173.980469 C 169.621094 174.40625 169.871094 174.828125 170.121094 175.246094 C 170.410156 175.734375 170.695312 176.21875 170.96875 176.71875 C 171.3125 177.347656 171.625 178 171.84375 178.683594 C 172.011719 179.210938 172.28125 179.847656 172.234375 180.402344 C 172.132812 181.574219 171.410156 182.835938 170.472656 183.542969 C 169.621094 184.191406 168.828125 184.703125 168.085938 185.53125 C 167.476562 186.210938 166.292969 186.832031 165.929688 187.621094 C 165.746094 188.015625 165.664062 188.804688 165.949219 189.171875 Z M 178.21875 186.992188 C 178.152344 187.074219 178.085938 187.15625 178.019531 187.234375 C 177.628906 187.703125 176.191406 189.476562 175.621094 188.261719 C 175.453125 187.902344 175.617188 187.507812 175.765625 187.179688 C 175.910156 186.855469 176.347656 186.726562 176.671875 186.710938 C 176.855469 186.703125 177 186.761719 177.175781 186.785156 C 177.433594 186.816406 177.679688 186.78125 177.941406 186.859375 C 178.042969 186.890625 178.132812 186.9375 178.21875 186.992188 Z M 180.070312 191.53125 C 179.925781 192.015625 179.726562 192.445312 179.492188 192.886719 C 179.460938 192.949219 179.421875 193.015625 179.382812 193.078125 C 179.386719 192.949219 179.398438 192.808594 179.421875 192.667969 C 179.515625 192.164062 179.597656 191.507812 179.769531 190.960938 C 179.847656 190.714844 179.972656 190.59375 180.082031 190.53125 C 180.144531 190.859375 180.175781 191.1875 180.070312 191.53125 Z M 180.628906 194.378906 C 180.683594 194.527344 180.683594 194.839844 180.636719 194.992188 C 180.511719 195.371094 179.910156 195.296875 179.714844 194.972656 C 179.570312 194.734375 179.667969 194.261719 179.78125 193.9375 C 180.113281 194.0625 180.464844 193.933594 180.628906 194.378906 Z M 148.691406 197.019531 C 149.023438 195.511719 150.75 194.507812 152.15625 194.300781 C 154.355469 193.972656 156.273438 195.304688 155.714844 196.300781 C 155.15625 197.300781 152.453125 196.597656 151.191406 196.746094 C 150.523438 196.824219 149.589844 196.886719 148.691406 197.019531 Z M 134.875 167.699219 C 136.710938 166.183594 138.933594 165.070312 141.105469 164.113281 C 142.726562 163.398438 144.84375 162.871094 147.230469 162.742188 C 145.453125 167.34375 142.835938 170.441406 140.289062 171.605469 C 138.269531 172.527344 133.835938 173.605469 133.160156 170.304688 C 132.945312 169.234375 134.164062 168.28125 134.875 167.699219 Z M 144.070312 205.648438 C 143.292969 203.234375 142.515625 200.820312 141.824219 198.382812 C 141.449219 197.050781 140.835938 195.78125 140.578125 194.425781 C 140.328125 193.09375 140.335938 191.664062 140.140625 190.367188 C 139.917969 188.886719 139.175781 187.921875 137.101562 188.886719 C 135.023438 189.847656 134.207031 192.445312 134.355469 195.929688 C 134.46875 198.566406 134.878906 201.085938 135.25 203.679688 C 135.453125 205.097656 135.644531 207.878906 133.390625 206.832031 C 131.3125 205.867188 126.644531 201.195312 125.753906 200.082031 C 124.664062 198.722656 123.769531 197.046875 123.542969 195.304688 C 123.351562 193.878906 123.011719 192.460938 122.804688 191.023438 C 122.65625 190.011719 122.554688 188.992188 122.472656 187.972656 C 122.960938 183.675781 123.746094 179.390625 125.605469 175.460938 C 126.109375 174.390625 127.046875 173.398438 127.757812 172.46875 C 128.527344 171.464844 129.664062 170.644531 130.722656 169.972656 C 131.171875 169.6875 131.636719 169.410156 132.054688 169.082031 C 132.148438 169.007812 133.164062 168.328125 133.15625 168.351562 C 132.8125 169.492188 131.925781 170.191406 132.628906 171.460938 C 134.234375 174.378906 137.082031 173.703125 139.769531 172.863281 C 142.144531 172.125 144.738281 169.601562 146.074219 167.523438 C 146.828125 166.355469 147.671875 165.230469 148.453125 162.707031 C 149.410156 162.710938 150.398438 162.78125 151.414062 162.925781 C 153.789062 163.273438 156.21875 163.738281 158.445312 164.664062 C 159.738281 165.199219 161.359375 166.003906 162.105469 167.25 C 162.914062 168.601562 162.011719 170.375 160.832031 171.160156 C 159.273438 172.199219 156.085938 173.308594 155.566406 175.386719 C 154.992188 177.691406 154.886719 180.324219 155.816406 182.554688 C 156.597656 184.4375 158.605469 185.519531 158.832031 187.699219 C 159.054688 189.847656 158.976562 192.148438 157.199219 192.222656 C 155.417969 192.296875 151.636719 191.40625 147.558594 193.335938 C 143.476562 195.261719 142.21875 201.566406 143.402344 202.308594 C 143.402344 202.308594 143.699219 202.457031 144.070312 201.566406 C 144.441406 200.675781 144.367188 200.230469 145.851562 199.191406 C 146.9375 198.433594 147.191406 198.03125 147.976562 197.78125 C 148.011719 198.617188 148.292969 199.621094 149.1875 200.601562 C 150.722656 202.28125 151.464844 202.523438 152.761719 202.742188 C 150.871094 203.125 149.105469 203.71875 147.78125 204.605469 C 145.542969 206.105469 144.859375 207.429688 144.722656 208.371094 C 144.53125 207.300781 144.3125 206.394531 144.070312 205.648438 Z M 197.617188 241.765625 C 199.027344 252.445312 199.769531 257.785156 199.769531 257.785156 C 199.769531 257.785156 199.84375 258.199219 199.980469 258.859375 C 198.316406 257.902344 196.449219 257.019531 194.355469 256.152344 C 189.164062 254 178.410156 250.21875 175.074219 248.511719 C 173.878906 247.902344 172.671875 247.324219 171.484375 246.703125 C 167.894531 244.835938 164.417969 242.730469 161.210938 240.253906 C 155.601562 235.917969 150.964844 230.203125 147.390625 224.109375 C 146.109375 221.929688 145.765625 219.707031 145.628906 217.214844 C 145.46875 214.257812 145.246094 211.800781 144.957031 209.796875 L 144.957031 209.800781 C 144.957031 209.800781 144.515625 206.171875 150.523438 204.3125 C 156.535156 202.453125 160.980469 202.382812 168.324219 204.3125 C 175.664062 206.238281 181.96875 208.019531 188.71875 212.097656 C 192.96875 214.664062 196.773438 217.230469 200.101562 219.355469 C 198.71875 223.183594 196.269531 231.550781 197.617188 241.765625 Z M 210.375 201.640625 C 207.824219 205.023438 202.449219 213.917969 200.636719 218.007812 C 194.953125 214.539062 189.394531 211.003906 185.898438 209.132812 C 183.136719 207.648438 177.710938 205.972656 172.882812 204.664062 C 173.183594 204.628906 173.484375 204.636719 173.789062 204.632812 C 174.585938 204.625 175.320312 204.402344 176.105469 204.21875 C 176.734375 204.070312 177.214844 203.820312 177.785156 203.558594 C 178.347656 203.304688 178.894531 202.949219 179.324219 202.5 C 179.738281 202.066406 180.195312 201.4375 180.40625 200.875 C 180.734375 199.980469 180.730469 198.621094 180.089844 197.859375 C 179.882812 197.609375 179.816406 197.292969 179.8125 196.972656 C 180.128906 196.960938 180.464844 196.695312 180.765625 196.515625 C 181.210938 196.25 181.628906 195.851562 181.796875 195.34375 C 181.984375 194.765625 181.816406 194.261719 181.449219 193.78125 C 181.207031 193.457031 180.945312 193.167969 180.527344 193.175781 C 180.4375 193.179688 180.332031 193.175781 180.226562 193.179688 C 180.34375 193.011719 180.460938 192.839844 180.53125 192.644531 C 180.625 192.386719 180.585938 192.207031 180.609375 191.941406 C 180.632812 191.722656 180.707031 191.503906 180.710938 191.28125 C 180.710938 190.609375 180.695312 189.839844 180.34375 189.25 C 179.9375 188.5625 179.632812 187.84375 179.078125 187.257812 C 178.988281 187.164062 178.894531 187.066406 178.792969 186.964844 C 179.035156 186.269531 179.335938 185.398438 178.929688 184.707031 C 178.5 183.976562 177.65625 183.796875 176.882812 183.664062 C 176.664062 183.625 176.417969 183.609375 176.203125 183.550781 C 175.980469 183.488281 175.8125 183.328125 175.601562 183.242188 C 175.429688 183.175781 175.292969 183.164062 175.132812 183.0625 C 174.757812 182.824219 174.421875 182.488281 174.152344 182.136719 C 173.683594 181.515625 173.300781 180.773438 172.996094 180.058594 C 172.726562 179.429688 172.535156 178.773438 172.273438 178.140625 C 172.25 178.085938 171.890625 177.140625 171.988281 177.144531 C 172.148438 177.15625 172.527344 177.46875 172.804688 177.574219 C 172.882812 178.164062 173.25 178.640625 174.035156 178.722656 C 175.199219 178.851562 176.386719 178.527344 177.59375 178.648438 C 177.902344 178.679688 178.210938 178.691406 178.519531 178.707031 C 179.59375 179.203125 180.960938 180.1875 181.671875 182.136719 C 182.960938 185.644531 183.257812 186.632812 183.355469 187.671875 C 183.453125 188.710938 183.304688 190.144531 183.949219 191.085938 C 184.589844 192.023438 185.925781 192.273438 187.0625 191.875 C 188.199219 191.480469 189.089844 190.246094 189.4375 189.875 C 189.476562 189.828125 189.515625 189.773438 189.550781 189.714844 C 189.910156 189.957031 190.308594 190.132812 190.769531 190.195312 C 192.253906 190.390625 192.453125 190.441406 192.453125 190.441406 C 192.453125 190.441406 191.765625 191.480469 192.703125 192.320312 C 193.640625 193.160156 194.28125 193.0625 194.824219 193.0625 C 195.371094 193.0625 195.914062 192.863281 195.914062 192.863281 C 195.914062 192.863281 195.714844 194.449219 196.753906 194.84375 C 197.792969 195.238281 198.039062 194.941406 198.582031 194.644531 C 199.125 194.347656 198.832031 194.148438 199.125 194.347656 C 199.425781 194.546875 201.15625 195.039062 202.539062 196.078125 C 203.921875 197.117188 205.753906 198.402344 207.484375 198.796875 C 209.214844 199.191406 209.757812 199.339844 210.84375 198.796875 C 211.554688 198.441406 212.621094 197.773438 213.277344 197.355469 C 212.25 198.996094 211.25 200.484375 210.375 201.640625 Z M 187.753906 186.09375 C 187.703125 184.90625 188.398438 183.875 189.832031 184.507812 C 190.703125 184.894531 191.480469 186.117188 191.152344 187.089844 C 190.933594 187.730469 190.585938 187.625 190.066406 187.707031 C 189.886719 187.738281 189.765625 187.785156 189.65625 187.855469 C 189.5625 187.917969 189.476562 188.003906 189.375 188.113281 C 188.613281 188.917969 187.78125 186.730469 187.753906 186.09375 Z M 197.867188 189.371094 C 197.480469 189.875 197.046875 190.339844 196.652344 190.839844 C 195.714844 192.023438 193.933594 192.171875 193.292969 191.679688 C 192.648438 191.183594 192.996094 190.789062 193.738281 190.441406 C 194.480469 190.097656 195.269531 190.046875 196.605469 189.15625 C 197.214844 188.75 197.855469 188.460938 198.488281 188.089844 C 198.292969 188.203125 198.058594 189.117188 197.867188 189.371094 Z M 198.382812 191.433594 C 198.3125 191.996094 198.335938 192.59375 198.082031 193.117188 C 197.972656 193.335938 197.640625 194.0625 197.390625 194.078125 C 196.738281 194.121094 196.667969 193.132812 196.726562 192.683594 C 196.851562 191.726562 197.613281 190.972656 198.34375 190.4375 C 198.40625 190.761719 198.425781 191.101562 198.382812 191.433594 Z M 215.269531 158.921875 C 217.9375 161.296875 221.203125 166.933594 221.871094 170.34375 C 222.539062 173.753906 221.425781 181.765625 219.273438 186.4375 C 218.121094 188.941406 216.433594 192.085938 214.695312 195.023438 C 213.667969 196.023438 211.910156 197.539062 210.25 198.058594 C 207.707031 198.847656 206.542969 197.183594 205.753906 196.976562 C 204.960938 196.769531 203.128906 195.140625 201.847656 194.546875 C 200.558594 193.953125 200.015625 194.050781 199.523438 193.457031 C 199.027344 192.863281 199.175781 192.816406 199.324219 190.988281 C 199.433594 189.652344 199.386719 188.316406 199.488281 186.984375 C 199.503906 186.75 199.679688 186.410156 199.550781 186.191406 C 199.105469 185.441406 198.0625 186.890625 197.734375 187.148438 C 197.308594 187.472656 196.835938 187.777344 196.402344 188.101562 C 195.722656 188.601562 194.890625 189.332031 194.035156 189.503906 C 193.195312 189.671875 192.199219 189.691406 191.363281 189.496094 C 190.988281 189.410156 189.820312 188.839844 190.476562 188.359375 C 190.726562 188.179688 191.121094 188.230469 191.386719 188.007812 C 191.636719 187.796875 191.765625 187.503906 191.824219 187.1875 C 191.949219 186.5 191.554688 185.734375 191.265625 185.144531 C 190.425781 183.421875 188.546875 183.71875 187.753906 184.261719 C 186.964844 184.804688 186.914062 185.941406 187.65625 187.328125 C 188.046875 188.054688 188.480469 188.75 189.019531 189.28125 C 188.726562 189.605469 188.335938 189.953125 187.855469 190.195312 C 186.765625 190.738281 186.023438 190.789062 185.382812 190.640625 C 184.738281 190.492188 184.738281 191.085938 184.492188 189.601562 C 184.246094 188.117188 183.898438 185.496094 183.304688 183.914062 C 182.710938 182.332031 182.019531 181.074219 181.476562 180.15625 C 181.304688 179.867188 180.972656 179.511719 180.539062 179.183594 C 180.671875 179.214844 180.800781 179.238281 180.933594 179.242188 C 183.253906 179.296875 183.492188 175.417969 185.070312 174.355469 C 184.957031 175.398438 184.746094 176.398438 184.214844 177.332031 C 183.820312 178.023438 182.964844 178.628906 183.332031 179.511719 C 183.574219 179.074219 184.078125 178.832031 184.421875 178.480469 C 184.914062 177.96875 185.3125 177.335938 185.695312 176.738281 C 186.539062 175.441406 186.695312 173.316406 186.363281 171.839844 C 185.949219 172.261719 185.679688 172.832031 185.222656 173.261719 C 184.589844 173.859375 183.859375 174.347656 183.359375 175.070312 C 182.804688 175.871094 181.953125 178.121094 180.933594 178.382812 C 180.40625 178.519531 179.457031 178.023438 178.910156 177.933594 C 178.179688 177.808594 177.441406 177.746094 176.707031 177.683594 C 175.988281 177.621094 174.398438 178.191406 173.996094 177.394531 C 173.351562 176.121094 175.28125 174.40625 176.09375 173.683594 C 177.613281 172.335938 179.75 171.769531 181.691406 171.324219 C 182.546875 171.125 183.425781 170.796875 184.261719 170.65625 C 183.089844 170.578125 181.851562 170.84375 180.707031 171.007812 C 178.71875 171.289062 176.835938 171.746094 175.285156 173.132812 C 174.394531 173.933594 173.609375 175.132812 173.070312 176.199219 C 172.972656 176.386719 172.910156 176.585938 172.859375 176.785156 C 172.375 176.160156 171.382812 175.386719 171.125 175.03125 C 169.917969 173.378906 169.328125 171.53125 167.710938 170.214844 C 166.707031 169.394531 165.511719 168.648438 164.417969 167.875 C 164.347656 167.828125 164.253906 167.742188 164.148438 167.648438 C 165.054688 168.089844 166.027344 168.421875 167.0625 168.710938 C 171.289062 169.898438 177.445312 170.9375 188.496094 166.414062 C 199.546875 161.886719 203.832031 159.730469 207.851562 154.695312 C 208.429688 153.96875 208.917969 153.269531 209.351562 152.574219 C 210.296875 152.738281 211.230469 152.867188 212.132812 152.957031 C 212.230469 153.519531 212.269531 154.015625 212.230469 154.398438 C 212.175781 154.929688 212.09375 155.628906 211.972656 156.367188 C 210.222656 156.253906 208.667969 157.09375 208.296875 159.070312 C 207.851562 161.441406 208.667969 162.109375 209.410156 162.035156 C 210.152344 161.960938 211.414062 161.886719 212.304688 158.773438 C 212.421875 158.351562 212.535156 157.90625 212.628906 157.445312 C 213.429688 157.632812 214.320312 158.078125 215.269531 158.921875 Z M 211.796875 157.339844 C 211.445312 159.054688 210.871094 160.730469 209.929688 161 C 208.390625 161.433594 208.445312 159.21875 209.410156 158.253906 C 209.90625 157.757812 210.742188 157.324219 211.796875 157.339844 Z M 224.464844 140.53125 C 225.320312 147.3125 224.769531 148.832031 220.535156 150.914062 C 218.492188 151.914062 215.589844 152.171875 212.625 151.988281 C 212.386719 150.929688 211.992188 149.816406 211.390625 148.648438 C 212.691406 145.824219 213.992188 142.773438 217.347656 138.675781 C 219.429688 136.128906 220.996094 134.183594 222.546875 132.683594 C 223.460938 135.425781 224.160156 138.121094 224.464844 140.53125 Z M 228.765625 165.671875 C 228.710938 166.175781 228.613281 166.867188 228.515625 167.652344 C 225.9375 165.925781 224.46875 161.070312 225.28125 159.886719 C 226.097656 158.699219 228.027344 157.515625 228.839844 159.21875 C 229.65625 160.925781 228.988281 163.667969 228.765625 165.671875 Z M 189.628906 187.796875 L 189.734375 187.722656 C 189.667969 187.734375 189.640625 187.757812 189.628906 187.796875 Z M 189.628906 187.796875 " fill-opacity="1" fill-rule="nonzero"/></g></svg>