<svg xmlns="http://www.w3.org/2000/svg" xmlns:xlink="http://www.w3.org/1999/xlink" width="500" zoomAndPan="magnify" viewBox="0 0 375 374.999991" height="500" preserveAspectRatio="xMidYMid meet" version="1.0"><path fill="#b7a4ad" d="M 104.066406 169.605469 C 103.289062 170.363281 102.933594 171.453125 103.121094 172.523438 L 104.863281 182.699219 C 105.328125 185.390625 102.5 187.4375 100.085938 186.167969 L 90.945312 181.359375 C 89.988281 180.859375 88.839844 180.859375 87.878906 181.359375 L 78.738281 186.167969 C 76.566406 187.3125 74.058594 185.769531 73.921875 183.484375 C 73.898438 183.230469 73.917969 182.96875 73.960938 182.699219 L 75.707031 172.523438 C 75.886719 171.453125 75.53125 170.363281 74.757812 169.605469 L 67.363281 162.398438 C 65.40625 160.492188 66.488281 157.171875 69.191406 156.78125 L 79.410156 155.296875 C 80.480469 155.136719 81.40625 154.46875 81.882812 153.496094 L 86.460938 144.234375 C 87.667969 141.785156 91.152344 141.785156 92.363281 144.234375 L 96.933594 153.496094 C 97.414062 154.464844 98.339844 155.136719 99.410156 155.296875 L 109.632812 156.78125 C 109.890625 156.816406 110.136719 156.882812 110.363281 156.96875 C 112.515625 157.792969 113.226562 160.671875 111.457031 162.398438 Z M 104.066406 169.605469 " fill-opacity="1" fill-rule="nonzero"/><path fill="#b7a4ad" d="M 153.15625 169.605469 C 152.378906 170.363281 152.023438 171.453125 152.207031 172.523438 L 153.953125 182.699219 C 154.414062 185.390625 151.585938 187.4375 149.171875 186.167969 L 140.035156 181.359375 C 139.074219 180.859375 137.925781 180.859375 136.964844 181.359375 L 127.828125 186.167969 C 125.652344 187.3125 123.144531 185.769531 123.011719 183.484375 C 122.988281 183.230469 123.003906 182.96875 123.046875 182.699219 L 124.796875 172.523438 C 124.976562 171.453125 124.621094 170.363281 123.847656 169.605469 L 116.453125 162.398438 C 114.492188 160.492188 115.578125 157.171875 118.277344 156.78125 L 128.496094 155.296875 C 129.566406 155.136719 130.492188 154.46875 130.972656 153.496094 L 135.546875 144.234375 C 136.753906 141.785156 140.238281 141.785156 141.453125 144.234375 L 146.023438 153.496094 C 146.5 154.464844 147.425781 155.136719 148.496094 155.296875 L 158.71875 156.78125 C 158.980469 156.816406 159.222656 156.882812 159.449219 156.96875 C 161.605469 157.792969 162.316406 160.671875 160.542969 162.398438 Z M 153.15625 169.605469 " fill-opacity="1" fill-rule="nonzero"/><path fill="#b7a4ad" d="M 202.238281 169.605469 C 201.460938 170.363281 201.105469 171.453125 201.292969 172.523438 L 203.035156 182.699219 C 203.5 185.390625 200.671875 187.4375 198.257812 186.167969 L 189.117188 181.359375 C 188.160156 180.859375 187.011719 180.859375 186.050781 181.359375 L 176.910156 186.167969 C 174.738281 187.3125 172.230469 185.769531 172.09375 183.484375 C 172.070312 183.230469 172.089844 182.96875 172.132812 182.699219 L 173.878906 172.523438 C 174.058594 171.453125 173.703125 170.363281 172.929688 169.605469 L 165.535156 162.398438 C 163.578125 160.492188 164.660156 157.171875 167.363281 156.78125 L 177.582031 155.296875 C 178.652344 155.136719 179.578125 154.46875 180.054688 153.496094 L 184.632812 144.234375 C 185.839844 141.785156 189.324219 141.785156 190.539062 144.234375 L 195.105469 153.496094 C 195.585938 154.464844 196.511719 155.136719 197.582031 155.296875 L 207.804688 156.78125 C 208.0625 156.816406 208.308594 156.882812 208.535156 156.96875 C 210.6875 157.792969 211.398438 160.671875 209.628906 162.398438 Z M 202.238281 169.605469 " fill-opacity="1" fill-rule="nonzero"/><path fill="#b7a4ad" d="M 251.328125 169.605469 C 250.550781 170.363281 250.195312 171.453125 250.378906 172.523438 L 252.125 182.699219 C 252.585938 185.390625 249.757812 187.4375 247.34375 186.167969 L 238.207031 181.359375 C 237.246094 180.859375 236.097656 180.859375 235.136719 181.359375 L 226 186.167969 C 223.824219 187.3125 221.316406 185.769531 221.183594 183.484375 C 221.160156 183.230469 221.175781 182.96875 221.21875 182.699219 L 222.96875 172.523438 C 223.148438 171.453125 222.792969 170.363281 222.019531 169.605469 L 214.625 162.398438 C 212.664062 160.492188 213.75 157.171875 216.449219 156.78125 L 226.667969 155.296875 C 227.738281 155.136719 228.664062 154.46875 229.144531 153.496094 L 233.71875 144.234375 C 234.925781 141.785156 238.410156 141.785156 239.625 144.234375 L 244.195312 153.496094 C 244.671875 154.464844 245.597656 155.136719 246.671875 155.296875 L 256.894531 156.78125 C 257.152344 156.816406 257.394531 156.882812 257.621094 156.96875 C 259.777344 157.792969 260.488281 160.671875 258.714844 162.398438 Z M 251.328125 169.605469 " fill-opacity="1" fill-rule="nonzero"/><path fill="#b7a4ad" d="M 285.757812 144.652344 C 285.953125 144.652344 286.429688 144.710938 286.6875 145.230469 L 291.257812 154.496094 C 292.066406 156.128906 293.625 157.265625 295.433594 157.53125 L 305.640625 159.011719 C 305.761719 159.027344 305.832031 159.050781 305.871094 159.066406 C 305.882812 159.070312 305.890625 159.074219 305.902344 159.078125 C 306.222656 159.199219 306.453125 159.484375 306.527344 159.835938 C 306.578125 160.085938 306.566406 160.449219 306.226562 160.78125 L 298.839844 167.988281 C 297.527344 169.265625 296.929688 171.105469 297.242188 172.90625 L 298.984375 183.082031 C 299.039062 183.402344 298.96875 183.679688 298.769531 183.910156 C 298.566406 184.15625 298.265625 184.300781 297.964844 184.300781 C 297.804688 184.300781 297.644531 184.257812 297.480469 184.171875 L 288.339844 179.367188 C 287.546875 178.953125 286.652344 178.730469 285.757812 178.730469 C 284.863281 178.730469 283.96875 178.953125 283.171875 179.367188 L 274.03125 184.175781 C 273.871094 184.261719 273.710938 184.300781 273.550781 184.300781 C 273.078125 184.300781 272.554688 183.921875 272.519531 183.355469 C 272.519531 183.332031 272.515625 183.308594 272.511719 183.285156 C 272.511719 183.265625 272.511719 183.199219 272.527344 183.082031 L 274.277344 172.898438 C 274.582031 171.101562 273.984375 169.265625 272.679688 167.992188 L 265.28125 160.78125 C 264.878906 160.390625 264.945312 159.949219 265.019531 159.722656 C 265.078125 159.535156 265.28125 159.097656 265.859375 159.011719 L 276.078125 157.527344 C 277.882812 157.261719 279.441406 156.128906 280.25 154.496094 L 284.824219 145.230469 C 285.078125 144.730469 285.515625 144.652344 285.757812 144.652344 M 285.757812 142.398438 C 284.582031 142.398438 283.410156 143.007812 282.804688 144.234375 L 278.230469 153.496094 C 277.753906 154.464844 276.828125 155.136719 275.753906 155.296875 L 265.539062 156.78125 C 262.835938 157.171875 261.753906 160.492188 263.710938 162.398438 L 271.105469 169.605469 C 271.878906 170.363281 272.234375 171.453125 272.054688 172.523438 L 270.308594 182.699219 C 270.265625 182.96875 270.246094 183.230469 270.269531 183.484375 C 270.371094 185.234375 271.875 186.554688 273.554688 186.554688 C 274.0625 186.554688 274.582031 186.433594 275.089844 186.167969 L 284.226562 181.359375 C 284.707031 181.109375 285.234375 180.984375 285.761719 180.984375 C 286.285156 180.984375 286.816406 181.109375 287.292969 181.359375 L 296.433594 186.167969 C 296.9375 186.429688 297.460938 186.550781 297.964844 186.550781 C 299.882812 186.550781 301.574219 184.824219 301.210938 182.695312 L 299.464844 172.519531 C 299.28125 171.449219 299.636719 170.359375 300.414062 169.605469 L 307.804688 162.394531 C 309.574219 160.667969 308.863281 157.792969 306.707031 156.96875 C 306.480469 156.875 306.242188 156.816406 305.980469 156.777344 L 295.757812 155.292969 C 294.6875 155.136719 293.761719 154.464844 293.28125 153.492188 L 288.710938 144.230469 C 288.105469 143.007812 286.929688 142.398438 285.757812 142.398438 Z M 285.757812 142.398438 " fill-opacity="1" fill-rule="nonzero"/><path fill="#dfc4d0" d="M 110.363281 156.96875 C 102.273438 170.035156 89.265625 179.738281 73.921875 183.484375 C 73.898438 183.230469 73.917969 182.96875 73.960938 182.699219 L 75.707031 172.523438 C 75.886719 171.453125 75.53125 170.363281 74.757812 169.605469 L 67.363281 162.398438 C 65.40625 160.492188 66.488281 157.171875 69.191406 156.78125 L 79.410156 155.296875 C 80.480469 155.136719 81.40625 154.46875 81.882812 153.496094 L 86.460938 144.234375 C 87.667969 141.785156 91.152344 141.785156 92.363281 144.234375 L 96.933594 153.496094 C 97.414062 154.464844 98.339844 155.136719 99.410156 155.296875 L 109.632812 156.78125 C 109.898438 156.816406 110.136719 156.882812 110.363281 156.96875 Z M 110.363281 156.96875 " fill-opacity="1" fill-rule="nonzero"/><path fill="#dfc4d0" d="M 159.453125 156.96875 C 151.359375 170.035156 138.355469 179.738281 123.011719 183.484375 C 122.988281 183.230469 123.003906 182.96875 123.046875 182.699219 L 124.796875 172.523438 C 124.976562 171.453125 124.621094 170.363281 123.847656 169.605469 L 116.453125 162.398438 C 114.492188 160.492188 115.578125 157.171875 118.277344 156.78125 L 128.496094 155.296875 C 129.566406 155.136719 130.492188 154.46875 130.972656 153.496094 L 135.546875 144.234375 C 136.753906 141.785156 140.238281 141.785156 141.453125 144.234375 L 146.023438 153.496094 C 146.5 154.464844 147.425781 155.136719 148.496094 155.296875 L 158.71875 156.78125 C 158.980469 156.816406 159.226562 156.882812 159.453125 156.96875 Z M 159.453125 156.96875 " fill-opacity="1" fill-rule="nonzero"/><path fill="#dfc4d0" d="M 208.535156 156.96875 C 200.445312 170.035156 187.4375 179.738281 172.09375 183.484375 C 172.070312 183.230469 172.089844 182.96875 172.132812 182.699219 L 173.878906 172.523438 C 174.058594 171.453125 173.703125 170.363281 172.929688 169.605469 L 165.535156 162.398438 C 163.578125 160.492188 164.660156 157.171875 167.363281 156.78125 L 177.582031 155.296875 C 178.652344 155.136719 179.578125 154.46875 180.054688 153.496094 L 184.632812 144.234375 C 185.839844 141.785156 189.324219 141.785156 190.539062 144.234375 L 195.105469 153.496094 C 195.585938 154.464844 196.511719 155.136719 197.582031 155.296875 L 207.804688 156.78125 C 208.066406 156.816406 208.308594 156.882812 208.535156 156.96875 Z M 208.535156 156.96875 " fill-opacity="1" fill-rule="nonzero"/><path fill="#dfc4d0" d="M 257.621094 156.96875 C 249.53125 170.035156 236.523438 179.738281 221.179688 183.484375 C 221.15625 183.230469 221.171875 182.96875 221.21875 182.699219 L 222.964844 172.523438 C 223.144531 171.453125 222.789062 170.363281 222.015625 169.605469 L 214.621094 162.398438 C 212.664062 160.492188 213.746094 157.171875 216.449219 156.78125 L 226.664062 155.296875 C 227.738281 155.136719 228.660156 154.46875 229.140625 153.496094 L 233.714844 144.234375 C 234.921875 141.785156 238.410156 141.785156 239.621094 144.234375 L 244.191406 153.496094 C 244.671875 154.464844 245.59375 155.136719 246.667969 155.296875 L 256.894531 156.78125 C 257.152344 156.816406 257.394531 156.882812 257.621094 156.96875 Z M 257.621094 156.96875 " fill-opacity="1" fill-rule="nonzero"/></svg>