<svg xmlns="http://www.w3.org/2000/svg" xmlns:xlink="http://www.w3.org/1999/xlink" width="500" zoomAndPan="magnify" viewBox="0 0 375 374.999991" height="500" preserveAspectRatio="xMidYMid meet" version="1.0"><defs><clipPath id="232b73ecb8"><path d="M 49.136719 44.410156 L 325.808594 44.410156 L 325.808594 330.582031 L 49.136719 330.582031 Z M 49.136719 44.410156 " clip-rule="nonzero"/></clipPath><clipPath id="3a5a905d4e"><path d="M 116 132 L 260 132 L 260 253.59375 L 116 253.59375 Z M 116 132 " clip-rule="nonzero"/></clipPath><clipPath id="3f89ac84b1"><path d="M 112.5 121.59375 L 125 121.59375 L 125 150 L 112.5 150 Z M 112.5 121.59375 " clip-rule="nonzero"/></clipPath></defs><g clip-path="url(#232b73ecb8)"><path fill="#f1edee" d="M 283.578125 290.511719 C 282.949219 291.140625 282.054688 291.527344 281.242188 291.894531 C 280.917969 292.03125 280.484375 291.792969 280.097656 291.726562 C 280.292969 291.355469 280.378906 290.882812 280.695312 290.636719 C 281.589844 289.957031 282.535156 289.320312 283.507812 288.511719 C 284.363281 288.941406 284.503906 289.640625 283.578125 290.511719 Z M 283.988281 294.3125 L 283.292969 294.324219 L 283.675781 293.347656 L 284.117188 293.324219 Z M 221.253906 312.695312 C 222.195312 312.347656 222.789062 312.125 223.726562 311.777344 C 223.3125 312.894531 222.640625 313.0625 221.253906 312.695312 Z M 201.875 314.996094 L 201.574219 314.554688 L 203.160156 313.902344 L 203.539062 314.375 Z M 195.523438 314.292969 L 195.511719 313.976562 L 197.179688 313.855469 L 197.195312 314.230469 Z M 133.460938 301.308594 C 134.152344 301.355469 134.839844 301.402344 135.765625 301.460938 C 135.136719 302.609375 134.296875 302.207031 133.460938 301.308594 Z M 132.558594 299.902344 C 132.40625 300.128906 131.667969 300.171875 131.230469 300.058594 C 131 300 130.855469 299.453125 130.59375 298.960938 C 131.25 298.875 131.730469 298.808594 132.207031 298.746094 C 132.34375 299.144531 132.71875 299.667969 132.558594 299.902344 Z M 88.015625 278.992188 Z M 76.554688 112.183594 C 76.734375 112.539062 76.882812 112.839844 77.03125 113.136719 C 76.792969 114.183594 76.523438 115.191406 76.34375 116.253906 C 74.371094 115.710938 74.261719 114.960938 76.554688 112.183594 Z M 75.964844 118.726562 C 76.257812 118.597656 76.699219 118.289062 76.8125 118.386719 C 76.980469 118.527344 76.992188 118.871094 77.039062 119.164062 L 76.226562 119.894531 Z M 130.5625 68.046875 C 132.8125 65.835938 135.824219 64.550781 138.984375 63.835938 C 140.136719 63.578125 140.683594 64.125 140.746094 64.890625 C 140.871094 66.359375 139.929688 67.640625 138.792969 68.929688 C 138.136719 69.699219 137.339844 69.632812 136.820312 69.097656 C 136.449219 68.707031 136.289062 68.179688 135.949219 67.769531 C 135.3125 67 135.285156 67.011719 132.894531 67.675781 C 132.71875 68.890625 132.5625 69.960938 132.40625 71.035156 C 131.40625 71.65625 130.5625 71.609375 130.113281 70.949219 C 129.519531 70.089844 129.519531 69.09375 130.5625 68.046875 Z M 147.933594 60.75 L 148.277344 61.246094 L 145.929688 62.445312 L 145.613281 62.070312 Z M 157.4375 319.621094 C 156.515625 319.617188 155.933594 319.613281 155.363281 319.609375 C 155.585938 318.929688 156.089844 318.753906 157.4375 319.621094 Z M 186.117188 328.078125 C 185.441406 328.316406 185.007812 328.46875 184.570312 328.621094 C 184.167969 328.089844 183.75 327.542969 183.058594 326.640625 C 184.308594 327.226562 185.101562 327.597656 186.117188 328.078125 Z M 190.765625 327.960938 L 191.632812 328.324219 L 190.613281 328.34375 Z M 70.242188 127.265625 C 68.742188 125.925781 69.039062 123.667969 68.789062 121.761719 C 68.75 121.464844 69.589844 120.746094 69.996094 120.257812 C 71.488281 121.121094 69.882812 122.765625 70.09375 123.8125 C 70.304688 124.84375 71.210938 125.542969 70.242188 127.265625 Z M 67.46875 131.246094 L 67.507812 130.507812 C 67.945312 130.441406 68.386719 130.359375 68.820312 130.332031 C 68.863281 130.332031 68.847656 130.660156 68.855469 130.832031 Z M 324.058594 198.71875 C 324.628906 194.195312 325.457031 189.777344 325.097656 185.339844 C 324.972656 182.683594 324.523438 180.234375 325.859375 178.144531 C 325.003906 177.394531 324.261719 176.878906 323.546875 176.320312 C 323.515625 175.621094 323.359375 174.941406 323.476562 174.578125 C 324.140625 172.488281 323.800781 170.1875 323.136719 167.800781 C 322.902344 167 322.75 166.109375 322.65625 165.296875 C 322.105469 161.660156 320.636719 158.734375 318.96875 156.015625 C 319.046875 155.695312 319.089844 155.328125 319.078125 154.882812 C 319.066406 154.371094 319.277344 153.789062 319.5 153.414062 C 319.882812 152.8125 319.785156 152.421875 319.277344 151.746094 C 318.605469 150.855469 319.140625 150.300781 319.8125 150.222656 C 320.417969 150.15625 321.136719 150.578125 321.753906 150.539062 C 322.359375 150.5 322.863281 150 323.46875 149.945312 C 325.152344 149.800781 325.988281 148.964844 325.46875 147.027344 C 324.90625 144.910156 324.550781 142.242188 321.996094 141.957031 C 321.8125 141.253906 321.628906 140.554688 321.445312 139.867188 C 321.21875 139.199219 320.996094 138.542969 320.773438 137.890625 C 320.320312 136.59375 319.847656 135.316406 319.316406 134.058594 C 318.765625 132.757812 318.128906 131.488281 317.460938 130.230469 C 316.804688 128.960938 316.089844 127.734375 315.28125 126.566406 C 313.730469 124.1875 312.230469 121.796875 311.113281 119.171875 C 311.039062 118.992188 310.921875 118.765625 310.777344 118.667969 C 308.902344 117.320312 307.769531 115.589844 306.898438 113.589844 C 307.226562 113.230469 307.554688 112.871094 307.867188 112.53125 C 305.84375 110.101562 305.875 110.113281 304.667969 107.027344 C 304.25 105.964844 304.28125 105.179688 305.085938 104.75 C 305.867188 104.339844 306.753906 103.636719 305.960938 102.5625 C 305.101562 101.375 304.261719 99.65625 302.488281 99.457031 C 302.394531 100.121094 302.328125 100.574219 302.261719 101.03125 L 301.792969 100.910156 C 301.523438 100.152344 301.253906 99.394531 301 98.667969 C 300.136719 98.269531 299.335938 97.902344 298.597656 97.5625 C 298.394531 96.703125 298.226562 96.015625 298.175781 95.804688 C 296.300781 94.515625 294.722656 93.296875 293.410156 91.910156 C 292.101562 90.523438 291.03125 89.007812 290.011719 87.363281 C 288.777344 87.339844 287.457031 87.585938 286.003906 86.351562 C 287.058594 85.859375 287.972656 85.433594 289.261719 84.828125 C 288.113281 84.5625 287.511719 84.382812 286.550781 84.214844 C 286.449219 83.667969 286.460938 83.152344 286.226562 82.652344 C 285.988281 82.164062 285.597656 81.578125 285.105469 81.253906 C 284.640625 80.941406 283.964844 80.941406 283.390625 80.761719 C 283.238281 80.714844 283.066406 80.503906 282.957031 80.351562 C 280.394531 76.828125 276.730469 74.070312 272.636719 71.984375 C 271.515625 71.371094 270.390625 70.761719 269.277344 70.15625 C 270.535156 67.675781 269.574219 65.945312 265.851562 64.417969 C 264.042969 63.761719 262.710938 62.964844 261.890625 61.488281 C 261.542969 60.859375 260.628906 60.179688 259.808594 59.75 C 258.316406 58.96875 256.710938 58.34375 255.136719 57.699219 C 252.199219 56.507812 249.148438 55.175781 246.042969 55.765625 C 245.792969 55.816406 245.386719 55.703125 245.089844 55.59375 C 242.242188 54.550781 239.453125 53.273438 236.480469 52.621094 C 233.984375 52.003906 231.503906 51.273438 228.992188 50.675781 C 227.734375 50.378906 226.472656 50.117188 225.199219 49.917969 C 223.929688 49.734375 222.632812 49.714844 221.335938 49.742188 C 221.164062 49.746094 220.960938 49.59375 220.570312 49.429688 C 222.214844 48.796875 224.761719 49.484375 226.015625 48.078125 C 223.726562 46.824219 221.175781 46.035156 218.660156 46.148438 C 215.238281 46.367188 211.808594 45.40625 208.457031 45.90625 C 207.507812 46.058594 206.292969 45.605469 205.210938 45.398438 C 204.125 45.1875 203.066406 44.902344 201.976562 44.707031 C 198.105469 44.042969 194.347656 44.632812 190.585938 45.148438 C 188.042969 45.433594 185.523438 46.28125 183.074219 46.242188 C 181.308594 46.226562 179.660156 46.414062 178.089844 46.8125 C 176.511719 47.246094 175.007812 47.789062 173.5 48.304688 C 171.140625 49.109375 168.832031 49.558594 166.375 49.859375 C 163.609375 50.132812 160.890625 50.828125 158.160156 51.40625 C 156.863281 51.707031 155.566406 52.007812 153.964844 52.375 C 152.988281 50.253906 150.484375 51.171875 148.121094 51.601562 C 144.902344 52.328125 144.894531 54.027344 144.710938 55.625 C 143.417969 55.714844 142.375 55.789062 141.234375 55.867188 C 140.6875 56.894531 140.46875 58.304688 139.71875 58.585938 C 137.632812 59.386719 137.492188 60.667969 136.855469 61.757812 C 135.753906 62.070312 134.835938 62.40625 134.070312 62.652344 C 132.933594 62.347656 131.9375 62.078125 131.351562 61.921875 C 129.867188 63.378906 128.777344 64.449219 127.945312 65.269531 C 127.480469 67.320312 127.097656 69.1875 126.757812 70.988281 C 125.902344 71.230469 125.316406 71.398438 124.589844 71.675781 C 125.035156 72.839844 125.605469 73.835938 125.792969 74.949219 C 125.945312 75.847656 125.667969 76.890625 125.527344 77.871094 C 125.507812 77.996094 125.054688 78.167969 124.863281 78.28125 C 122.839844 76.808594 119.257812 76.976562 118.679688 74.4375 C 120.28125 73.238281 122.191406 71.949219 123.964844 70.527344 C 125.699219 69.167969 125.695312 68.464844 124 67.683594 C 122.25 66.902344 119.121094 68.03125 117.722656 69.933594 C 115.949219 72.402344 114.289062 74.65625 110.59375 75.410156 C 110.183594 75.503906 109.445312 76.027344 109.371094 76.3125 C 109 77.671875 107.683594 78.472656 106.558594 79.335938 C 107.648438 80.8125 108.964844 80.691406 111.050781 79.011719 C 112.277344 78 113.449219 76.929688 114.816406 76.125 C 116.21875 75.253906 117.445312 75.386719 118.054688 76.367188 C 118.644531 77.3125 119.175781 78.289062 119.675781 79.28125 C 120.332031 80.601562 120.007812 82.355469 118.820312 82.847656 C 117.257812 83.4375 115.503906 84.390625 114.136719 84.351562 C 112.046875 84.296875 110.511719 85.195312 108.828125 86.273438 C 109.253906 87.175781 109.621094 87.953125 110.152344 89.082031 C 108.082031 88.835938 106.742188 88.5 106.292969 87.113281 C 106.070312 86.414062 105.679688 85.886719 104.253906 86.6875 C 105.050781 87.976562 105.8125 89.210938 106.585938 90.464844 C 103.457031 92.109375 103.464844 92.160156 101.75 90.574219 C 101.273438 90.136719 100.808594 90.027344 99.921875 91.117188 C 100.652344 92.105469 101.429688 93.164062 102.226562 94.246094 C 101.867188 96.128906 99.714844 96.449219 98.46875 97.144531 C 96.972656 97.96875 95.007812 97.808594 93.507812 98.175781 C 94.164062 99.554688 94.871094 101.03125 95.570312 102.5 C 94.847656 103.203125 94.226562 103.816406 93.640625 104.386719 C 93.152344 104.285156 92.765625 104.207031 92.367188 104.125 C 91.886719 105.109375 91.472656 105.945312 91.089844 106.722656 C 90.007812 106.976562 89.0625 107.195312 87.960938 107.453125 C 88.140625 108.855469 89.945312 109.578125 88.125 111.300781 C 87.289062 111.527344 86.453125 111.757812 85.535156 112.007812 C 86.828125 114.699219 86.828125 114.699219 83.371094 116.238281 C 81.351562 116.070312 83.160156 113.980469 82.421875 112.882812 C 81.914062 113.5 81.445312 113.957031 81.121094 114.476562 C 80.445312 115.585938 79.855469 116.714844 79.242188 117.84375 C 78.734375 118.898438 78.042969 119.394531 77.121094 119.148438 C 77.871094 117.792969 78.105469 116.542969 77.617188 115.378906 C 77.316406 114.695312 77.234375 113.859375 77.070312 113.082031 C 77.851562 110.695312 78.160156 108.140625 81.003906 106.308594 C 81.800781 105.804688 82.703125 104.269531 82.203125 103.207031 C 81.746094 102.246094 80.667969 102.527344 79.617188 103.074219 C 79.070312 103.34375 78.386719 103.925781 78.003906 103.863281 C 75.832031 103.488281 74.1875 105.496094 72.28125 106.816406 C 72.539062 107.988281 72.757812 109.011719 72.976562 110.007812 C 71.433594 111.113281 70.1875 112.078125 69.070312 113.085938 C 69.125 113.613281 69.148438 113.886719 69.175781 114.152344 C 69.335938 116.335938 69.300781 116.394531 67.117188 117.476562 C 67.027344 117.519531 66.9375 117.527344 66.847656 117.574219 C 64.96875 118.566406 64.664062 119.308594 65.050781 121.085938 C 65.398438 122.558594 65.386719 124.101562 65.765625 126.046875 C 67.578125 126.042969 67.410156 127.945312 67.023438 130.070312 C 66.847656 131.019531 66.964844 131.953125 66.753906 132.886719 C 66.507812 133.976562 66.042969 135.070312 65.59375 136.453125 C 64.859375 135.996094 64.433594 135.734375 63.953125 135.433594 C 63.449219 136.054688 62.953125 136.667969 62.40625 137.34375 C 62.902344 138.371094 64.664062 138.171875 63.933594 140.003906 C 63.5 141.089844 62.679688 142.039062 62.023438 143.085938 C 61.398438 142.664062 60.96875 142.371094 60.449219 142.019531 C 60.039062 142.699219 59.699219 143.261719 59.355469 143.824219 C 60.074219 144.597656 61.496094 144.335938 60.953125 146.300781 C 60.464844 146.382812 59.941406 146.46875 59.425781 146.558594 C 59.28125 147.472656 59.160156 148.242188 59.039062 148.992188 C 57.925781 149.234375 56.957031 149.449219 56.058594 149.644531 C 54.605469 147.375 54.617188 147.347656 53.277344 148.203125 C 53.429688 149.480469 55.410156 149.148438 54.738281 151.324219 C 54.089844 151.640625 53.433594 151.964844 52.824219 152.265625 C 52.652344 155.953125 56.0625 152.523438 56.320312 154.855469 C 55.765625 156.078125 55.292969 157.125 54.847656 158.105469 C 55.558594 158.839844 56.101562 159.402344 56.804688 160.128906 C 55.859375 161.109375 55.21875 162.183594 54.855469 163.34375 C 54.570312 164.523438 54.558594 165.789062 54.785156 167.128906 C 52.699219 165.8125 52.484375 165.839844 51.285156 167.789062 C 52.171875 168.378906 53.058594 168.972656 54.027344 169.617188 C 53.011719 171.886719 51.96875 173.453125 50.242188 173.582031 C 49.953125 175.882812 49.539062 178.105469 51.148438 179.800781 C 50.359375 180.226562 49.875 180.484375 49.171875 180.863281 C 49.71875 181.308594 49.964844 181.582031 50.242188 181.714844 C 51.933594 182.546875 51.96875 182.53125 51.703125 184.90625 C 51.453125 187.414062 50.417969 189.917969 51.386719 192.5 C 51.480469 192.773438 51.265625 193.226562 51.195312 193.582031 C 50.390625 193.378906 50.09375 191.722656 49.136719 192.5 C 49.988281 194.667969 49.992188 194.65625 49.617188 196.304688 C 51.492188 196.496094 51.378906 198.425781 51.402344 200.09375 C 52.183594 200.46875 52.816406 200.769531 53.648438 201.167969 C 53.035156 203.636719 52.832031 205.949219 52.511719 208.484375 C 52.902344 209.128906 53.363281 209.882812 53.851562 210.6875 C 52.980469 212.554688 52.988281 214.59375 53.980469 216.628906 C 52.054688 217.578125 51.898438 217.640625 52.550781 219.890625 C 53.234375 222.1875 52.9375 224.847656 54.683594 226.804688 C 54.902344 230.546875 58.179688 233.027344 58.640625 236.832031 C 58.820312 238.25 60.242188 239.757812 61.042969 241.242188 C 61.644531 242.433594 62.394531 243.570312 62.949219 244.769531 C 63.59375 246.15625 64.0625 247.609375 64.664062 249.132812 C 64.261719 249.800781 63.8125 250.546875 63.273438 251.4375 C 64.308594 252.761719 65.324219 254.128906 66.425781 255.398438 C 67.6875 256.734375 68.722656 258.628906 70.660156 258.382812 C 70.980469 258.347656 71.894531 259.238281 72.128906 259.789062 C 72.546875 260.761719 72.992188 260.933594 73.800781 261.140625 C 74.957031 261.4375 75.269531 262.238281 74.773438 263.203125 C 74.511719 263.71875 74.207031 264.199219 73.808594 264.90625 C 76.128906 266.117188 77.820312 267.253906 77.570312 269.757812 C 78.492188 269.800781 79.152344 269.832031 79.671875 269.859375 C 80.738281 270.726562 79.925781 272.011719 81.453125 272.671875 C 83.222656 273.414062 83.898438 275.0625 84.410156 276.777344 C 85.820312 277.054688 87.265625 277.296875 87.996094 279.015625 C 87.992188 279.023438 87.984375 279.027344 87.980469 279.03125 C 87.984375 279.035156 87.992188 279.035156 87.996094 279.039062 C 88 279.023438 88.015625 278.992188 88.015625 278.992188 C 88.328125 279.578125 88.632812 280.144531 88.957031 280.753906 C 90.050781 282.859375 91.195312 284.9375 93.460938 286.523438 C 95.457031 287.941406 97.894531 289.289062 98.597656 291.824219 C 99.003906 291.867188 99.300781 291.960938 99.523438 291.914062 C 101.222656 291.570312 102.710938 292.132812 104.21875 292.875 C 105.75 293.578125 107.246094 294.542969 108.78125 295.171875 C 109.769531 297.445312 111.914062 297.660156 113.890625 298.105469 C 114.140625 298.160156 114.390625 298.582031 114.652344 298.828125 C 115.058594 299.242188 115.8125 299.636719 115.886719 299.96875 C 116.132812 301.15625 117.503906 301.160156 117.96875 301.15625 C 119.699219 301.136719 120.90625 302.121094 122.378906 302.785156 C 120.46875 304.464844 120.453125 304.460938 121.039062 305.730469 C 121.78125 305.617188 122.550781 305.234375 123.246094 305.433594 C 124.898438 305.894531 126.582031 306.515625 128.125 307.222656 C 129.4375 307.871094 130.472656 308.984375 131.65625 309.890625 C 132.96875 310.890625 131.234375 311.160156 131.445312 311.898438 C 131.523438 312.183594 131.566406 312.464844 131.671875 312.960938 C 132.457031 312.65625 132.976562 312.453125 133.660156 312.1875 C 133.394531 312.910156 133.195312 313.449219 132.917969 314.183594 C 134.125 314.582031 135.261719 315.167969 136.25 315.203125 C 137.183594 315.234375 137.949219 314.703125 138.960938 314.285156 C 139.40625 315.503906 139.824219 316.640625 140.363281 318.125 C 141.320312 317.210938 141.929688 316.625 142.421875 316.15625 C 144.410156 316.457031 146.191406 316.730469 148 317.003906 C 149.867188 317.257812 151.265625 318.542969 151.152344 319.902344 C 151.136719 320.285156 151.117188 320.667969 151.082031 321.414062 C 151.964844 320.945312 152.492188 320.75 152.839844 320.441406 C 153.183594 320.136719 153.34375 319.714844 153.621094 319.285156 C 154.273438 319.441406 154.773438 319.558594 155.265625 319.679688 C 155.378906 320.300781 155.492188 320.925781 155.609375 321.570312 C 157.644531 321.132812 159.617188 321.632812 161.136719 322.457031 C 162.726562 323.320312 163.777344 323.230469 164.878906 322.746094 C 165.199219 323.167969 165.441406 323.796875 165.878906 323.90625 C 166.710938 324.09375 167.164062 323.773438 166.96875 323.019531 C 166.632812 321.707031 167.789062 322.230469 168.84375 322.429688 C 168.5625 324.871094 170.375 326.46875 173.492188 327.5 C 176.242188 328.394531 179.027344 329.367188 181.847656 329.96875 C 182.007812 330.007812 182.238281 329.910156 182.503906 329.859375 C 182.351562 329.414062 182.195312 328.964844 182.007812 328.417969 C 183.039062 328.53125 183.816406 328.613281 184.589844 328.695312 C 185.625 330.308594 187.917969 330.167969 189.730469 330.582031 C 190.492188 329.769531 191.140625 329.078125 191.789062 328.390625 C 192.730469 328.535156 193.707031 328.664062 194.605469 328.851562 C 197.03125 329.367188 198.179688 329.144531 199.519531 327.660156 C 200.015625 327.109375 200.28125 326.464844 200.570312 325.984375 C 202.667969 325.894531 204.550781 325.875 206.402344 325.679688 C 208.90625 325.410156 209.171875 324.554688 207.421875 323.039062 C 206.570312 323.441406 208.316406 324.894531 205.941406 324.734375 C 205.1875 323.1875 204.921875 321.433594 203.421875 320.535156 C 198.773438 320.710938 194.582031 321.121094 190.398438 320.75 C 188.785156 320.65625 187.195312 320.238281 185.394531 319.914062 C 184.683594 321.289062 183.441406 319.246094 182.320312 319.773438 C 181.972656 320.265625 182.6875 321.433594 180.765625 321.097656 C 180.246094 320.40625 181.484375 319.101562 179.355469 318.875 C 178.378906 320.40625 178.515625 320.070312 176.523438 319.476562 C 174.722656 318.9375 175.488281 317.5 173.882812 317.078125 C 173.664062 317.5 173.429688 317.941406 173.164062 318.449219 C 171.933594 318.332031 170.746094 318.214844 169.402344 318.085938 C 169.96875 316.714844 169.042969 316 167.621094 315.476562 C 167.496094 315.921875 167.371094 316.363281 167.214844 316.902344 C 165.917969 316.679688 164.859375 316.300781 163.855469 316.054688 C 163.402344 315.304688 163 314.640625 162.324219 313.519531 C 161.914062 314.417969 161.714844 314.847656 161.59375 315.105469 C 160.960938 314.886719 160.34375 314.527344 159.742188 314.488281 C 156.554688 314.277344 156.535156 314.292969 156.109375 312.167969 C 155.277344 312.277344 154.441406 312.386719 153.804688 312.46875 C 152.691406 311.335938 151.753906 310.242188 150.921875 309.320312 C 149.964844 309.394531 149.335938 309.441406 148.488281 309.511719 C 148.484375 308.886719 148.480469 308.421875 148.476562 307.722656 C 147.375 307.871094 146.511719 307.984375 145.433594 308.125 C 146.054688 306.304688 144.269531 305.316406 142.367188 303.917969 C 144.179688 303.945312 145.523438 303.628906 146.464844 304.039062 C 147.359375 304.421875 148.070312 304.441406 148.890625 304.492188 C 150.605469 304.589844 152.3125 304.6875 154.171875 304.796875 C 154.378906 305.460938 154.609375 306.195312 154.8125 306.847656 C 157.109375 307.828125 158.453125 306.023438 160.542969 306.285156 C 160.5625 307.644531 161.203125 308.675781 163.214844 308.796875 C 163.53125 308.816406 163.832031 309.25 164.1875 309.339844 C 165.488281 309.65625 166.773438 310.140625 168.089844 310.390625 C 169.414062 310.621094 170.753906 310.734375 172.121094 310.519531 C 173.332031 310.328125 174.449219 310.351562 175.335938 311.167969 C 176.757812 312.46875 178.480469 312.730469 180.390625 312.328125 C 180.628906 312.285156 180.9375 312.363281 181.175781 312.378906 C 181.734375 312.929688 182.257812 313.445312 182.828125 314.007812 C 184.390625 313.804688 185.820312 313.574219 187.261719 313.425781 C 187.898438 313.359375 188.851562 313.257812 189.164062 313.519531 C 189.878906 314.113281 190.519531 314.207031 191.492188 314.132812 C 191.894531 314.101562 192.710938 314.691406 192.835938 315.078125 C 193.203125 316.179688 194.109375 316.347656 195.316406 316.128906 C 196.382812 315.972656 197.425781 315.820312 198.421875 315.675781 C 200.53125 317.5625 203.628906 317.902344 205.800781 316.515625 C 207.101562 315.707031 208.042969 314.398438 210.179688 315.007812 C 213.523438 313.589844 216.886719 314.011719 220.335938 314.175781 C 221.269531 314.238281 222.109375 314.28125 222.472656 315.019531 C 222.503906 315.082031 222.832031 315.035156 223.019531 315.042969 C 223.472656 314.628906 223.925781 314.21875 224.457031 313.734375 C 225.363281 314.195312 226.125 314.582031 226.890625 314.96875 C 229.535156 313.082031 230.3125 312.976562 233.535156 314.007812 C 234.0625 313.726562 234.601562 313.222656 235.050781 313.234375 C 236.378906 313.191406 237.675781 313.324219 239.445312 313.398438 C 240.375 312.328125 241.460938 311.082031 242.761719 309.585938 C 243.015625 309.566406 244.015625 309.269531 244.3125 309.5 C 245.96875 310.777344 247.875 309.53125 249.023438 308.753906 C 251.726562 307.070312 253.40625 304.6875 254.433594 302.1875 C 255.941406 303.039062 255.960938 303.082031 257.753906 302.484375 C 259.964844 301.792969 261.597656 302.148438 263.511719 302.859375 C 264.757812 301.136719 265.867188 299.566406 267.242188 297.554688 C 267.421875 298.324219 267.546875 298.527344 267.5 298.738281 C 267.117188 300.34375 268.929688 300.046875 269.859375 300.226562 C 270.917969 300.429688 271.449219 299.390625 271.871094 298.53125 C 272.441406 297.355469 273.148438 296.128906 273.6875 295.117188 C 276.53125 294.238281 276.523438 296.347656 277.761719 297.148438 C 280.296875 295.324219 282.164062 295.710938 283.65625 297.03125 C 283.972656 296.75 284.164062 296.628906 284.261719 296.484375 C 285.90625 294.082031 285.917969 291.3125 287.785156 288.8125 C 288.058594 288.441406 288 287.730469 287.789062 287.382812 C 287.207031 286.429688 287.589844 285.363281 288.433594 284.496094 C 289.789062 283.046875 291.144531 281.636719 292.441406 280.125 C 293.757812 278.644531 295.207031 277.28125 297.042969 276.214844 C 298.3125 275.472656 299.1875 275.171875 300.234375 275.871094 C 301.402344 276.660156 302.808594 275.71875 303.242188 274.054688 C 303.449219 273.113281 303.820312 272.164062 304.15625 271.070312 C 303.894531 270.449219 303.566406 269.671875 303.1875 268.78125 C 303.964844 268.242188 304.644531 267.496094 305.046875 267.53125 C 306.675781 267.667969 307.140625 266.523438 307.597656 265.273438 C 307.859375 264.566406 308.117188 263.871094 308.382812 263.152344 C 309.054688 262.941406 309.597656 262.710938 310.09375 262.585938 C 311.527344 262.25 312.328125 261.183594 312.273438 259.832031 C 312.195312 257.882812 313.09375 256.25 314.121094 254.640625 C 315.15625 253.039062 316.316406 251.457031 316.558594 249.617188 C 316.582031 249.433594 316.945312 249.109375 317.160156 249.039062 C 318.296875 248.664062 318.578125 247.496094 319.164062 246.566406 C 319.964844 245.296875 320.894531 244.101562 321.757812 242.855469 C 322.164062 242.269531 322.601562 241.691406 322.945312 241.0625 C 323.804688 239.203125 323.773438 238.796875 322.285156 238.328125 C 321.070312 237.941406 320.75 237.125 321.03125 235.648438 C 321.199219 234.777344 321.25 233.90625 321.414062 233.046875 C 321.828125 230.917969 321.613281 229.035156 321.078125 227.207031 C 320.847656 226.484375 320.660156 225.71875 320.421875 224.992188 C 321.203125 223.488281 321.988281 221.964844 322.804688 220.386719 C 322.640625 217.636719 322.703125 217.699219 323.996094 214.625 C 325.011719 211.671875 325.585938 208.769531 325.664062 206.074219 C 325.691406 204.726562 325.644531 203.433594 325.371094 202.203125 C 325.0625 200.964844 324.625 199.800781 324.058594 198.71875 " fill-opacity="1" fill-rule="nonzero"/></g><path fill="#634e4e" d="M 204.574219 186.667969 C 204.648438 186.617188 204.730469 186.570312 204.808594 186.53125 C 204.839844 186.515625 204.878906 186.507812 204.90625 186.488281 C 204.910156 186.488281 204.910156 186.488281 204.910156 186.488281 C 205.035156 186.519531 204.839844 186.726562 204.796875 186.78125 C 204.574219 187.058594 204.292969 187.292969 203.976562 187.46875 C 203.828125 187.550781 203.675781 187.617188 203.519531 187.667969 C 203.835938 187.296875 204.164062 186.933594 204.574219 186.667969 Z M 205.472656 181.839844 C 203.566406 181.621094 201.492188 181.65625 199.664062 182.230469 C 199.207031 182.375 197.1875 182.984375 196.882812 183.261719 C 196.632812 183.492188 196.238281 183.925781 196.492188 184.273438 C 196.597656 184.410156 197.269531 184.734375 197.425781 184.804688 C 197.609375 184.886719 197.792969 184.96875 197.980469 185.046875 C 198.347656 185.207031 198.730469 185.359375 199.066406 185.585938 C 199.226562 185.691406 199.390625 185.816406 199.511719 185.964844 C 199.613281 186.089844 199.644531 186.269531 199.683594 186.421875 C 199.726562 186.582031 199.773438 186.742188 199.882812 186.871094 C 200.007812 187.019531 200.148438 187.152344 200.296875 187.269531 C 200.605469 187.515625 200.957031 187.707031 201.332031 187.835938 C 201.804688 187.996094 202.304688 188.0625 202.792969 188.023438 C 202.421875 188.449219 202.023438 188.851562 201.503906 189.070312 C 201.34375 189.136719 201.1875 189.179688 201.007812 189.183594 C 200.910156 189.191406 200.769531 189.214844 200.710938 189.304688 C 200.65625 189.386719 200.757812 189.429688 200.832031 189.425781 C 201.683594 189.394531 202.382812 188.902344 202.949219 188.3125 C 203.058594 188.199219 203.164062 188.078125 203.269531 187.957031 C 203.429688 187.925781 203.589844 187.878906 203.746094 187.824219 C 204.132812 187.683594 204.496094 187.472656 204.804688 187.207031 C 204.957031 187.078125 205.101562 186.929688 205.226562 186.773438 C 205.3125 186.660156 205.5 186.460938 205.355469 186.324219 C 205.210938 186.191406 204.933594 186.242188 204.769531 186.300781 C 204.574219 186.371094 204.390625 186.480469 204.21875 186.597656 C 203.871094 186.835938 203.570312 187.136719 203.292969 187.449219 C 203.195312 187.554688 203.101562 187.667969 203.007812 187.777344 C 202.671875 187.816406 202.328125 187.789062 201.988281 187.710938 C 201.636719 187.628906 201.300781 187.484375 200.996094 187.296875 C 200.839844 187.203125 200.695312 187.09375 200.5625 186.96875 C 200.441406 186.863281 200.296875 186.738281 200.230469 186.589844 C 200.089844 186.300781 200.105469 185.96875 199.863281 185.726562 C 199.601562 185.457031 199.265625 185.261719 198.929688 185.101562 C 198.578125 184.933594 198.21875 184.796875 197.867188 184.632812 C 197.71875 184.566406 197.554688 184.503906 197.441406 184.382812 C 197.304688 184.234375 197.367188 184.058594 197.460938 183.90625 C 197.648438 183.597656 197.945312 183.386719 198.261719 183.21875 C 198.625 183.023438 199.015625 182.878906 199.402344 182.738281 C 201.042969 182.148438 202.8125 181.90625 204.558594 182.015625 C 204.769531 182.027344 204.980469 182.046875 205.191406 182.074219 C 205.300781 182.085938 205.429688 182.0625 205.511719 181.988281 C 205.578125 181.933594 205.570312 181.851562 205.472656 181.839844 " fill-opacity="1" fill-rule="nonzero"/><g clip-path="url(#3a5a905d4e)"><path fill="#634e4e" d="M 253.835938 197.832031 C 254.339844 196.683594 254.804688 195.515625 255.226562 194.332031 C 258.371094 185.5 259.222656 175.675781 257.289062 166.492188 C 256.367188 162.105469 254.621094 157.949219 251.75 154.433594 C 248.992188 151.0625 244.898438 147.554688 241.292969 145.105469 C 237.566406 142.570312 233.683594 139.636719 225.648438 138.214844 C 216.960938 136.675781 207.460938 138.425781 202.808594 139.347656 C 198.558594 140.195312 193.164062 142.058594 189.148438 143.683594 C 185.3125 145.234375 181.480469 147.308594 178.5 150.175781 C 175.554688 153.011719 173.617188 156.679688 172.351562 160.496094 C 171.777344 162.226562 171.234375 164.019531 170.871094 165.839844 C 170.777344 165.863281 170.683594 165.871094 170.582031 165.851562 C 169.320312 165.617188 168.332031 164.621094 167.199219 164.09375 C 165.976562 163.527344 164.71875 163.011719 163.457031 162.535156 C 162.070312 162.011719 160.664062 161.515625 159.191406 161.308594 C 156.640625 160.945312 154.0625 160.785156 151.484375 160.804688 C 149.21875 160.820312 146.910156 160.886719 144.699219 161.40625 C 142.742188 161.867188 140.8125 162.582031 138.972656 163.375 C 131.691406 166.511719 125.269531 171.847656 121.664062 178.867188 C 118.1875 185.640625 117.566406 193.464844 118.949219 200.859375 C 117.667969 197.378906 117.097656 193.695312 116.902344 189.996094 C 116.648438 185.261719 116.652344 180.285156 118.03125 175.703125 C 119.203125 171.804688 121.328125 168.160156 123.851562 164.960938 C 126.464844 161.652344 129.644531 158.703125 133.304688 156.527344 C 140.570312 152.214844 149.289062 151.992188 157.425781 153.527344 C 160.339844 154.074219 163.1875 154.863281 166.050781 155.609375 C 166.921875 155.835938 167.804688 156.074219 168.703125 156.183594 C 169.183594 156.242188 169.683594 156.269531 170.109375 156.011719 C 170.777344 155.617188 171.34375 154.988281 171.902344 154.460938 C 172.929688 153.492188 173.9375 152.503906 174.953125 151.519531 C 177.4375 149.125 179.945312 146.734375 182.636719 144.566406 C 186.019531 141.851562 189.871094 139.617188 193.820312 137.789062 C 197.476562 136.101562 201.328125 134.8125 205.296875 134.035156 C 212.449219 132.636719 219.929688 132.964844 227.058594 134.375 C 233.382812 135.625 239.558594 137.929688 244.757812 141.738281 C 248.460938 144.453125 251.574219 147.902344 253.867188 151.839844 C 255.414062 154.5 256.566406 157.363281 257.402344 160.3125 C 259.566406 167.914062 259.921875 175.957031 258.527344 183.726562 C 257.644531 188.644531 256.054688 193.382812 253.835938 197.832031 Z M 241.285156 215.707031 C 235.757812 221.535156 229.328125 226.5 222.515625 230.8125 C 220.863281 231.859375 219.1875 232.863281 217.492188 233.832031 C 218.785156 232.863281 220.074219 231.894531 221.378906 230.941406 C 224.769531 228.46875 228.15625 225.992188 231.460938 223.40625 C 237.082031 219.011719 242.496094 214.269531 247.054688 208.804688 C 245.289062 211.226562 243.351562 213.53125 241.285156 215.707031 Z M 211.566406 237.832031 C 207.710938 240.492188 203.335938 242.527344 199.121094 244.574219 C 194.152344 246.992188 189.113281 249.3125 183.957031 251.324219 C 182.355469 251.949219 180.71875 252.609375 179.03125 252.972656 C 178.324219 253.125 177.894531 253.019531 177.171875 252.820312 C 175.183594 252.265625 173.25 251.539062 171.347656 250.753906 C 167.519531 249.171875 163.875 247.226562 160.242188 245.257812 C 156.472656 243.21875 152.75 241.085938 149.140625 238.773438 C 141.933594 234.164062 135.140625 228.804688 129.703125 222.226562 C 125.546875 217.207031 122.351562 211.429688 120.492188 205.234375 C 124.613281 212.472656 131.289062 217.910156 137.625 223.226562 C 144.644531 229.121094 151.773438 235.039062 159.792969 239.613281 C 165.136719 242.664062 170.667969 245.519531 176.289062 248.046875 C 176.925781 248.332031 177.699219 248.835938 178.410156 248.867188 C 178.9375 248.890625 179.503906 248.738281 180.015625 248.628906 C 182.210938 248.164062 184.371094 247.507812 186.515625 246.851562 C 192.84375 244.910156 199.105469 242.707031 205.21875 240.191406 C 208.148438 238.984375 211.007812 237.640625 213.804688 236.175781 C 213.066406 236.742188 212.328125 237.304688 211.566406 237.832031 Z M 173.898438 215.554688 C 174.027344 214.996094 174.289062 214.527344 174.625 214.042969 C 174.863281 213.703125 175.125 213.941406 175.058594 214.28125 C 175.015625 214.53125 174.800781 214.773438 174.632812 214.953125 C 174.417969 215.1875 174.171875 215.386719 173.898438 215.554688 Z M 212.039062 201.320312 C 212.542969 200.929688 213.042969 200.539062 213.546875 200.148438 C 214.460938 199.445312 215.371094 198.742188 216.285156 198.039062 C 215.121094 199.390625 213.617188 200.429688 212.039062 201.320312 Z M 201.242188 198.15625 C 201.574219 198.199219 201.90625 198.175781 202.222656 198.082031 C 201.996094 198.605469 201.695312 199.089844 201.367188 199.558594 C 201.269531 199.699219 201.167969 199.839844 201.070312 199.980469 C 200.972656 200.113281 200.886719 200.253906 200.769531 200.371094 C 200.683594 200.464844 200.582031 200.546875 200.464844 200.589844 C 200.464844 200.589844 200.421875 200.601562 200.421875 200.605469 C 200.414062 200.605469 200.40625 200.609375 200.394531 200.609375 C 200.394531 200.609375 200.390625 200.609375 200.386719 200.609375 C 200.386719 200.605469 200.339844 200.589844 200.347656 200.597656 C 200.332031 200.589844 200.320312 200.578125 200.308594 200.566406 C 200.308594 199.667969 200.144531 198.769531 199.8125 197.925781 C 199.75 197.769531 199.488281 197.820312 199.398438 197.921875 C 199.285156 198.050781 199.300781 198.226562 199.320312 198.382812 C 199.351562 198.601562 199.414062 198.8125 199.472656 199.019531 C 199.609375 199.503906 199.761719 200.023438 199.695312 200.527344 C 199.664062 200.757812 199.578125 200.976562 199.382812 201.109375 C 199.308594 201.160156 199.253906 201.183594 199.179688 201.1875 C 199.15625 201.1875 199.128906 201.183594 199.089844 201.171875 C 199.050781 201.15625 199.015625 201.136719 198.980469 201.105469 C 198.945312 201.078125 198.890625 201.007812 198.855469 200.945312 C 198.824219 200.894531 198.792969 200.8125 198.769531 200.738281 C 198.71875 200.566406 198.6875 200.386719 198.65625 200.210938 C 198.621094 200.023438 198.582031 199.839844 198.488281 199.671875 C 198.390625 199.488281 198.226562 199.390625 198.023438 199.351562 C 197.9375 199.332031 197.710938 199.40625 197.71875 199.527344 C 197.738281 199.890625 197.875 200.210938 198.027344 200.539062 C 198.167969 200.84375 198.316406 201.167969 198.316406 201.511719 C 198.316406 201.664062 198.292969 201.828125 198.207031 201.964844 C 198.152344 202.046875 198.097656 202.082031 198.007812 202.121094 C 198.054688 202.101562 197.972656 202.128906 197.960938 202.132812 C 197.953125 202.132812 197.945312 202.136719 197.945312 202.136719 C 197.9375 202.136719 197.925781 202.136719 197.917969 202.140625 C 197.90625 202.140625 197.894531 202.140625 197.878906 202.140625 C 197.878906 202.140625 197.875 202.140625 197.871094 202.140625 C 197.863281 202.140625 197.816406 202.132812 197.816406 202.132812 C 197.765625 202.121094 197.722656 202.09375 197.683594 202.058594 C 197.664062 202.019531 197.644531 201.984375 197.613281 201.949219 C 197.550781 201.871094 197.421875 201.878906 197.335938 201.910156 C 197.273438 201.933594 197.140625 202.015625 197.183594 202.105469 C 197.1875 202.117188 197.195312 202.128906 197.203125 202.140625 C 197.203125 202.140625 197.203125 202.144531 197.199219 202.144531 C 197.207031 202.148438 197.207031 202.152344 197.210938 202.160156 C 197.222656 202.175781 197.230469 202.191406 197.242188 202.207031 C 197.359375 202.425781 197.242188 202.707031 197.0625 202.839844 C 197.027344 202.867188 196.992188 202.886719 196.929688 202.898438 C 196.84375 202.914062 196.753906 202.90625 196.667969 202.890625 C 196.464844 202.84375 196.28125 202.730469 196.121094 202.605469 C 195.992188 202.503906 195.613281 202.644531 195.738281 202.824219 C 195.855469 202.992188 195.820312 203.203125 195.714844 203.371094 C 195.695312 203.398438 195.667969 203.4375 195.636719 203.46875 C 195.617188 203.488281 195.605469 203.496094 195.601562 203.5 C 195.589844 203.507812 195.578125 203.515625 195.566406 203.523438 C 195.5625 203.527344 195.550781 203.535156 195.542969 203.542969 C 195.527344 203.550781 195.507812 203.558594 195.492188 203.566406 C 195.480469 203.570312 195.46875 203.574219 195.457031 203.574219 C 195.496094 203.566406 195.453125 203.574219 195.433594 203.574219 C 195.421875 203.574219 195.394531 203.570312 195.394531 203.574219 C 195.140625 203.519531 194.9375 203.160156 194.789062 202.960938 C 194.558594 202.660156 194.332031 202.359375 194.105469 202.058594 C 193.84375 201.714844 193.578125 201.367188 193.316406 201.019531 C 193.265625 200.949219 193.148438 200.949219 193.070312 200.96875 C 193 200.988281 192.878906 201.050781 192.882812 201.132812 C 192.882812 201.171875 192.886719 201.207031 192.890625 201.242188 C 192.824219 201.0625 192.785156 200.875 192.796875 200.679688 C 192.8125 200.4375 192.890625 200.1875 193.023438 199.992188 C 193.101562 199.875 193.175781 199.800781 193.28125 199.734375 C 193.320312 199.710938 193.296875 199.726562 193.285156 199.734375 C 193.304688 199.722656 193.324219 199.710938 193.34375 199.703125 C 193.355469 199.699219 193.363281 199.695312 193.375 199.691406 C 193.378906 199.691406 193.382812 199.691406 193.386719 199.6875 C 193.398438 199.683594 193.414062 199.679688 193.425781 199.679688 C 193.433594 199.675781 193.4375 199.675781 193.441406 199.671875 C 193.441406 199.671875 193.445312 199.671875 193.453125 199.671875 C 193.464844 199.671875 193.480469 199.667969 193.496094 199.667969 C 193.503906 199.667969 193.566406 199.667969 193.527344 199.667969 C 193.640625 199.667969 193.871094 199.609375 193.832031 199.449219 C 193.722656 199.019531 193.886719 198.578125 194.191406 198.265625 C 194.265625 198.195312 194.335938 198.132812 194.425781 198.074219 C 194.492188 198.03125 194.617188 197.972656 194.671875 197.953125 C 194.863281 197.890625 195.023438 197.878906 195.222656 197.941406 C 195.355469 197.984375 195.609375 197.90625 195.582031 197.734375 C 195.507812 197.292969 195.71875 196.765625 196.121094 196.550781 C 196.21875 196.5 196.308594 196.472656 196.402344 196.460938 C 196.519531 196.445312 196.617188 196.449219 196.734375 196.472656 C 196.964844 196.519531 197.175781 196.644531 197.328125 196.820312 C 197.441406 196.953125 197.789062 196.859375 197.757812 196.664062 C 197.75 196.609375 197.757812 196.527344 197.773438 196.488281 C 197.777344 196.46875 197.785156 196.453125 197.796875 196.4375 C 197.796875 196.4375 197.8125 196.410156 197.816406 196.402344 C 197.824219 196.390625 197.835938 196.375 197.847656 196.363281 C 197.851562 196.363281 197.867188 196.339844 197.871094 196.339844 C 197.898438 196.316406 197.925781 196.296875 197.957031 196.277344 C 197.953125 196.28125 198.015625 196.25 198.027344 196.242188 C 198.03125 196.242188 198.035156 196.242188 198.039062 196.238281 C 198.042969 196.238281 198.042969 196.238281 198.050781 196.234375 C 198.074219 196.230469 198.09375 196.222656 198.113281 196.21875 C 198.113281 196.21875 198.140625 196.210938 198.152344 196.210938 C 198.164062 196.210938 198.199219 196.203125 198.207031 196.203125 C 198.34375 196.191406 198.480469 196.214844 198.617188 196.300781 C 198.804688 196.414062 198.957031 196.574219 199.097656 196.742188 C 199.273438 196.953125 199.4375 197.167969 199.628906 197.363281 C 199.742188 197.554688 199.886719 197.71875 200.113281 197.832031 C 200.285156 197.917969 200.476562 197.980469 200.671875 198.019531 C 200.855469 198.082031 201.046875 198.128906 201.242188 198.15625 Z M 195.429688 203.574219 C 195.425781 203.574219 195.425781 203.578125 195.425781 203.578125 C 195.410156 203.578125 195.417969 203.578125 195.429688 203.574219 Z M 203.949219 201.976562 C 203.511719 201.683594 202.925781 201.464844 202.410156 201.644531 C 202.230469 201.707031 202.074219 201.78125 201.878906 201.78125 C 201.703125 201.78125 201.519531 201.742188 201.34375 201.722656 C 201 201.683594 200.640625 201.65625 200.308594 201.78125 C 200.09375 201.863281 199.964844 202.007812 199.824219 202.179688 C 199.722656 202.304688 199.625 202.449219 199.492188 202.542969 C 199.335938 202.648438 199.140625 202.679688 198.964844 202.746094 C 198.757812 202.828125 198.605469 202.9375 198.496094 203.136719 C 198.320312 203.457031 198.378906 203.945312 198.0625 204.183594 C 197.875 204.328125 197.597656 204.339844 197.394531 204.472656 C 197.164062 204.621094 197.039062 204.875 196.925781 205.117188 C 196.671875 205.671875 196.648438 206.234375 197.035156 206.734375 C 197.410156 207.222656 197.980469 207.539062 198.40625 207.984375 C 197.503906 208.558594 196.582031 209.15625 195.59375 209.589844 C 196.109375 208.550781 196.28125 207.363281 196.109375 206.21875 C 196.015625 205.585938 195.816406 204.976562 195.515625 204.410156 C 195.421875 204.226562 195.3125 204.046875 195.195312 203.878906 C 195.238281 203.886719 195.28125 203.890625 195.328125 203.894531 C 195.628906 203.898438 195.921875 203.734375 196.09375 203.492188 C 196.175781 203.382812 196.230469 203.253906 196.253906 203.125 C 196.613281 203.261719 197.011719 203.273438 197.34375 203.050781 C 197.539062 202.917969 197.695312 202.691406 197.738281 202.457031 C 198 202.46875 198.289062 202.367188 198.476562 202.199219 C 198.707031 201.996094 198.785156 201.722656 198.773438 201.441406 C 199.21875 201.644531 199.78125 201.339844 200.007812 200.945312 C 200.023438 200.921875 200.035156 200.898438 200.046875 200.871094 C 200.058594 200.878906 200.070312 200.882812 200.082031 200.886719 C 200.507812 201.050781 200.980469 200.710938 201.230469 200.402344 C 201.378906 200.222656 201.503906 200.023438 201.640625 199.832031 C 201.773438 199.644531 201.90625 199.453125 202.035156 199.257812 C 202.015625 199.355469 202 199.457031 202.003906 199.554688 C 202.011719 200.117188 202.796875 200.53125 203.195312 200.835938 C 203.886719 201.363281 204.335938 202.042969 204.925781 202.660156 C 206.078125 203.863281 207.65625 203.703125 209.097656 203.125 C 209.140625 203.105469 209.1875 203.085938 209.234375 203.066406 C 209.222656 203.074219 209.210938 203.082031 209.199219 203.09375 C 208.085938 203.878906 206.34375 204.648438 205.183594 203.484375 C 204.714844 203.015625 204.519531 202.359375 203.949219 201.976562 Z M 230.628906 197.46875 C 230.628906 197.464844 230.632812 197.460938 230.636719 197.457031 C 230.652344 197.496094 230.667969 197.535156 230.679688 197.574219 C 230.78125 197.882812 230.875 198.195312 230.96875 198.503906 C 231.503906 200.289062 232.003906 202.082031 232.472656 203.882812 C 233 205.917969 233.363281 207.945312 233.199219 210.0625 C 233.085938 211.496094 232.75 212.921875 232.109375 214.21875 C 231.492188 215.476562 230.613281 216.585938 229.625 217.578125 C 228.632812 218.574219 227.535156 219.464844 226.425781 220.332031 C 225.273438 221.242188 224.109375 222.136719 222.925781 223.011719 C 220.550781 224.769531 218.105469 226.441406 215.542969 227.921875 C 214.238281 228.671875 212.902344 229.371094 211.53125 230.003906 C 210.28125 230.582031 208.960938 231.230469 207.605469 231.53125 C 207 231.671875 206.308594 231.730469 205.742188 231.425781 C 205.105469 231.082031 204.890625 230.394531 204.742188 229.746094 C 204.390625 228.1875 204.066406 226.621094 203.726562 225.058594 C 203.035156 221.878906 202.347656 218.695312 201.660156 215.515625 C 201.121094 213.03125 200.78125 210.140625 199.089844 208.097656 C 198.695312 207.625 198.207031 207.28125 197.753906 206.871094 C 197.144531 206.320312 197.054688 205.699219 197.441406 204.972656 C 197.613281 204.648438 197.828125 204.605469 198.144531 204.464844 C 198.351562 204.375 198.515625 204.246094 198.628906 204.050781 C 198.785156 203.78125 198.75 203.425781 198.921875 203.167969 C 199.105469 202.890625 199.558594 202.875 199.824219 202.675781 C 200.027344 202.523438 200.136719 202.292969 200.324219 202.125 C 200.652344 201.828125 201.25 202.039062 201.648438 202.0625 C 201.898438 202.082031 202.105469 202.054688 202.339844 201.96875 C 202.769531 201.808594 203.164062 201.941406 203.542969 202.179688 C 203.808594 202.34375 203.992188 202.574219 204.15625 202.816406 C 204.152344 202.835938 204.152344 202.851562 204.160156 202.871094 C 204.421875 203.617188 204.683594 204.359375 204.949219 205.105469 C 205.207031 205.835938 205.5 206.5625 205.679688 207.3125 C 205.859375 208.078125 205.855469 208.863281 205.886719 209.644531 C 205.914062 210.414062 205.976562 211.179688 206.066406 211.941406 C 206.425781 215.039062 207.191406 218.09375 208.015625 221.101562 C 208.125 221.503906 208.285156 221.992188 208.730469 222.140625 C 209.238281 222.3125 209.710938 221.992188 210.117188 221.726562 C 211.09375 221.09375 211.976562 220.320312 212.773438 219.480469 C 214.410156 217.75 215.714844 215.75 217.074219 213.8125 C 218.472656 211.816406 219.957031 209.847656 221.898438 208.3125 C 223.820312 206.792969 226.03125 205.625 227.789062 203.910156 C 228.519531 203.195312 229.28125 202.332031 229.65625 201.378906 C 229.941406 200.648438 230.082031 199.859375 230.246094 199.097656 C 230.328125 198.703125 230.410156 198.3125 230.503906 197.921875 C 230.542969 197.769531 230.582031 197.617188 230.628906 197.46875 Z M 185.042969 213.414062 C 184.3125 211.109375 183.25 208.910156 181.679688 207.039062 C 180.777344 205.960938 179.695312 204.804688 178.25 204.488281 C 177.980469 204.425781 177.710938 204.414062 177.441406 204.378906 C 177.253906 204.351562 177.066406 204.328125 176.875 204.320312 C 176.257812 204.292969 175.648438 204.414062 175.0625 204.605469 C 174.214844 204.886719 173.453125 205.347656 172.691406 205.804688 C 171.753906 206.371094 170.835938 206.964844 169.921875 207.566406 C 169.195312 208.050781 168.464844 208.535156 167.753906 209.042969 C 167.398438 209.296875 167.0625 209.574219 166.722656 209.851562 C 166.027344 210.421875 165.339844 211.007812 164.667969 211.605469 C 164.355469 211.882812 164.050781 212.164062 163.742188 212.445312 C 162.554688 212.652344 161.558594 211.5 161.144531 210.539062 C 160.859375 209.867188 160.765625 209.128906 160.699219 208.410156 C 160.625 207.644531 160.59375 206.875 160.449219 206.117188 C 160.234375 204.976562 159.691406 203.96875 159.070312 202.996094 C 158.496094 202.089844 157.894531 201.191406 157.605469 200.152344 C 157.519531 199.839844 157.460938 199.519531 157.429688 199.195312 C 157.414062 199.011719 157.40625 198.832031 157.40625 198.652344 C 157.40625 198.488281 157.367188 198.371094 157.285156 198.230469 C 157.207031 198.089844 157.160156 197.972656 157.203125 197.8125 C 157.242188 197.671875 157.332031 197.527344 157.464844 197.453125 C 157.613281 197.371094 157.757812 197.402344 157.859375 197.492188 C 157.898438 197.613281 157.945312 197.726562 157.980469 197.828125 C 158.042969 198 158.433594 197.929688 158.4375 197.75 C 158.4375 197.578125 158.382812 197.4375 158.292969 197.332031 C 158.261719 197.242188 158.230469 197.15625 158.210938 197.066406 C 158.167969 196.890625 158.121094 196.632812 158.289062 196.507812 C 158.410156 196.421875 158.582031 196.539062 158.683594 196.605469 C 158.847656 196.71875 158.984375 196.863281 159.105469 197.015625 C 159.222656 197.167969 159.648438 197.007812 159.519531 196.824219 C 159.3125 196.535156 159.339844 196 159.546875 195.71875 C 159.652344 195.574219 159.808594 195.554688 159.976562 195.660156 C 160.015625 195.6875 160.050781 195.71875 160.082031 195.75 C 160.132812 195.984375 160.261719 196.195312 160.453125 196.363281 C 160.554688 196.449219 160.929688 196.339844 160.855469 196.179688 C 160.765625 195.992188 160.671875 195.78125 160.539062 195.609375 C 160.472656 195.207031 160.648438 194.757812 161.101562 194.691406 C 161.425781 194.640625 161.726562 194.902344 161.886719 195.152344 C 161.949219 195.246094 161.996094 195.351562 162.023438 195.460938 C 161.945312 195.703125 161.914062 195.953125 161.949219 196.210938 C 161.960938 196.292969 162.089844 196.3125 162.152344 196.308594 C 162.242188 196.300781 162.34375 196.253906 162.390625 196.171875 C 162.523438 195.929688 162.546875 195.652344 162.488281 195.394531 C 162.621094 195.019531 162.886719 194.675781 163.183594 194.429688 C 163.289062 194.339844 163.40625 194.257812 163.53125 194.195312 C 163.644531 194.140625 163.761719 194.097656 163.859375 194.085938 C 164.074219 194.066406 164.269531 194.171875 164.402344 194.378906 C 164.484375 194.503906 164.527344 194.707031 164.546875 194.886719 C 164.570312 195.125 164.566406 195.367188 164.558594 195.609375 C 164.535156 196.242188 164.472656 196.871094 164.441406 197.503906 C 164.410156 198.183594 164.40625 198.871094 164.507812 199.546875 C 164.601562 200.148438 164.789062 200.769531 165.191406 201.246094 C 165.445312 201.554688 165.792969 201.804688 166.128906 202.023438 C 166.488281 202.257812 166.898438 202.453125 167.339844 202.480469 C 167.820312 202.511719 168.246094 202.351562 168.660156 202.132812 C 169.007812 201.949219 169.351562 201.753906 169.691406 201.558594 C 171.261719 200.648438 172.792969 199.667969 174.40625 198.832031 C 175.824219 198.097656 177.355469 197.410156 178.992188 197.390625 C 179.636719 197.382812 180.296875 197.503906 180.867188 197.804688 C 181.445312 198.109375 181.902344 198.578125 182.238281 199.128906 C 182.78125 200.023438 182.949219 201.070312 183.164062 202.074219 C 183.46875 203.488281 183.765625 204.90625 184.074219 206.320312 C 184.445312 208.03125 184.824219 209.738281 185.226562 211.441406 C 185.320312 211.828125 185.410156 212.210938 185.507812 212.59375 C 185.507812 212.601562 185.511719 212.605469 185.511719 212.609375 C 185.371094 212.757812 185.257812 212.929688 185.160156 213.109375 C 185.105469 213.210938 185.066406 213.3125 185.042969 213.414062 Z M 186.203125 218.128906 C 186.371094 218.683594 186.519531 219.238281 186.609375 219.8125 C 186.664062 220.152344 186.695312 220.492188 186.695312 220.835938 C 186.539062 219.933594 186.378906 219.03125 186.203125 218.128906 Z M 170.445312 170.230469 C 170.519531 173.847656 171.992188 177.160156 174.1875 180.019531 C 175.089844 181.195312 176.042969 182.304688 177.230469 183.203125 C 178.238281 183.964844 179.28125 184.679688 180.296875 185.429688 C 182.90625 187.355469 185.550781 189.515625 187.230469 192.304688 C 188.972656 195.203125 188.898438 198.605469 188.585938 201.851562 C 188.253906 205.316406 187.574219 208.8125 186.4375 212.113281 C 186.257812 212.15625 185.136719 208.992188 184.773438 207.332031 C 184.429688 205.773438 184.097656 204.210938 183.765625 202.652344 C 183.65625 202.140625 183.550781 201.632812 183.4375 201.125 C 183.335938 200.652344 182.484375 198.140625 181.9375 197.671875 C 181.4375 197.238281 180.824219 196.96875 180.171875 196.84375 C 178.601562 196.542969 176.980469 197.027344 175.558594 197.652344 C 173.84375 198.410156 172.160156 199.726562 170.554688 200.6875 C 169.84375 201.109375 169.132812 201.535156 168.398438 201.921875 C 168 202.132812 167.605469 202.246094 167.160156 202.113281 C 166.695312 201.972656 166.296875 201.664062 165.925781 201.367188 C 164.875 200.523438 164.847656 198.980469 164.886719 197.757812 C 164.90625 197.09375 164.96875 196.433594 165.003906 195.769531 C 165.027344 195.324219 165.074219 194.804688 164.914062 194.378906 C 164.6875 193.785156 164.050781 193.671875 163.496094 193.882812 C 162.996094 194.070312 162.558594 194.464844 162.273438 194.925781 C 162.125 194.714844 161.917969 194.542969 161.675781 194.449219 C 161.003906 194.1875 160.226562 194.636719 160.082031 195.3125 C 159.808594 195.246094 159.5 195.304688 159.285156 195.484375 C 159.0625 195.667969 158.941406 195.980469 158.921875 196.296875 C 158.671875 196.160156 158.390625 196.109375 158.109375 196.25 C 157.734375 196.4375 157.683594 196.761719 157.746094 197.097656 C 157.644531 197.09375 157.542969 197.109375 157.441406 197.140625 C 156.996094 197.277344 156.5625 197.789062 156.785156 198.261719 C 156.828125 198.351562 156.886719 198.433594 156.921875 198.523438 C 156.96875 198.640625 156.949219 198.773438 156.953125 198.894531 C 156.960938 199.148438 156.980469 199.398438 157.023438 199.652344 C 157.09375 200.117188 157.230469 200.570312 157.414062 201.003906 C 157.617188 201.484375 157.875 201.9375 158.148438 202.382812 C 157.914062 202.339844 157.660156 202.351562 157.433594 202.398438 C 156.503906 202.589844 155.800781 203.445312 155.933594 204.375 C 155.589844 204.386719 155.253906 204.417969 154.945312 204.59375 C 154.367188 204.921875 154.277344 205.492188 154.417969 206.054688 C 154.308594 206.070312 154.199219 206.105469 154.101562 206.148438 C 153.671875 206.339844 153.574219 206.667969 153.808594 207.0625 C 153.921875 207.253906 154.050781 207.460938 153.9375 207.683594 C 153.867188 207.816406 153.730469 207.898438 153.652344 208.023438 C 153.402344 208.417969 153.871094 208.8125 153.578125 209.15625 C 153.351562 209.414062 153.019531 209.59375 153.1875 209.976562 C 153.386719 210.425781 153.855469 210.808594 154.214844 211.132812 C 155.273438 212.089844 156.382812 212.992188 157.492188 213.886719 C 158.65625 214.828125 159.832031 215.757812 160.984375 216.714844 C 161.535156 217.171875 162.085938 217.636719 162.625 218.109375 C 163.109375 218.539062 163.597656 219.035156 164.238281 219.226562 C 165.3125 219.550781 166.058594 218.785156 166.632812 218.019531 C 167.019531 217.507812 167.457031 217.007812 168.0625 216.734375 C 168.59375 216.496094 169.195312 216.484375 169.765625 216.480469 C 170.910156 216.472656 172.011719 216.464844 173.105469 216.09375 C 173.199219 216.0625 173.292969 216.027344 173.386719 215.988281 C 173.375 216.070312 173.363281 216.15625 173.351562 216.238281 C 173.222656 217.050781 173.097656 217.859375 172.972656 218.671875 C 172.5 221.675781 171.460938 224.839844 171.089844 227.859375 C 170.785156 230.351562 170.664062 233.0625 171.773438 235.394531 C 174.078125 240.234375 181.003906 240.15625 185.675781 240.410156 C 188.8125 240.582031 191.972656 240.59375 195.09375 240.207031 C 198.09375 239.835938 201.007812 239.046875 203.808594 237.941406 C 206.5625 236.859375 209.195312 235.511719 211.765625 234.066406 C 214.332031 232.628906 216.871094 231.128906 219.351562 229.550781 C 224.097656 226.519531 228.632812 222.949219 231.59375 218.136719 C 233.011719 215.828125 234.058594 213.277344 234.5 210.613281 C 234.972656 207.734375 234.296875 204.949219 233.816406 202.089844 C 233.015625 197.308594 228.464844 194.472656 233.292969 182.570312 C 234.328125 180.023438 235.921875 177.691406 236.261719 174.917969 C 236.503906 172.925781 236.265625 170.855469 235.910156 168.890625 C 235.5 166.636719 234.789062 164.421875 233.695312 162.390625 C 231.785156 158.851562 228.613281 155.984375 224.691406 154.742188 C 220.417969 153.386719 215.707031 152.964844 211.25 153.445312 C 208.660156 153.726562 205.996094 154.3125 203.636719 155.425781 C 201.667969 156.351562 199.851562 157.621094 198.226562 159.042969 C 195.988281 161 194.246094 163.324219 192.84375 165.910156 C 192.152344 167.1875 191.480469 168.492188 191.019531 169.867188 C 190.546875 171.273438 190.273438 172.734375 190.160156 174.207031 C 189.976562 176.570312 190.097656 179.078125 191.027344 181.292969 C 191.597656 182.648438 192.480469 183.824219 193.617188 184.773438 C 194.027344 185.113281 194.457031 185.421875 194.886719 185.738281 C 195.199219 185.964844 195.53125 186.195312 195.769531 186.503906 C 196.007812 186.808594 196.164062 187.1875 196.347656 187.527344 C 196.527344 187.851562 196.710938 188.183594 196.808594 188.539062 C 196.914062 188.933594 196.929688 189.347656 196.949219 189.75 C 196.972656 190.257812 196.988281 190.71875 196.855469 191.210938 C 196.613281 192.121094 196.121094 193.019531 196.0625 193.96875 C 196.046875 194.273438 196.082031 194.601562 196.316406 194.824219 C 196.5625 195.054688 196.957031 195.023438 197.269531 195.027344 C 197.777344 195.03125 198.222656 194.953125 198.59375 195.347656 C 198.808594 195.574219 198.957031 195.847656 199.085938 196.132812 C 198.96875 196.039062 198.835938 195.964844 198.691406 195.925781 C 198.484375 195.871094 198.265625 195.871094 198.054688 195.917969 C 197.792969 195.976562 197.535156 196.125 197.398438 196.34375 C 197.097656 196.167969 196.738281 196.09375 196.390625 196.152344 C 195.875 196.234375 195.433594 196.566406 195.230469 197.039062 C 195.15625 197.214844 195.117188 197.402344 195.113281 197.585938 C 194.164062 197.558594 193.242188 198.449219 193.347656 199.390625 C 192.84375 199.515625 192.488281 199.960938 192.375 200.476562 C 192.222656 201.171875 192.601562 201.8125 193.050781 202.316406 C 193.335938 202.640625 193.671875 202.925781 194.027344 203.171875 C 194.347656 203.523438 194.667969 203.871094 194.917969 204.277344 C 195.578125 205.347656 195.832031 206.644531 195.671875 207.875 C 195.582031 208.5625 195.359375 209.222656 195.015625 209.824219 C 194.90625 209.863281 194.792969 209.902344 194.679688 209.9375 C 194.351562 210.039062 194.011719 210.121094 193.664062 210.160156 C 193.320312 210.199219 192.980469 210.191406 192.636719 210.15625 C 191.890625 210.082031 191.132812 209.90625 190.378906 210.007812 C 189.945312 210.066406 189.53125 210.21875 189.175781 210.476562 C 188.832031 210.730469 188.558594 211.058594 188.285156 211.382812 C 188.222656 211.457031 188.242188 211.550781 188.339844 211.585938 C 188.441406 211.617188 188.59375 211.585938 188.660156 211.5 C 188.894531 211.21875 189.132812 210.929688 189.421875 210.703125 C 189.679688 210.503906 189.976562 210.371094 190.304688 210.320312 C 191.03125 210.210938 191.773438 210.394531 192.492188 210.464844 C 193.226562 210.539062 193.945312 210.464844 194.652344 210.257812 C 194.847656 210.199219 195.042969 210.132812 195.230469 210.0625 C 195.257812 210.054688 195.28125 210.046875 195.300781 210.035156 C 195.785156 209.847656 196.253906 209.621094 196.710938 209.375 C 197.363281 209.019531 197.992188 208.621094 198.621094 208.222656 C 199.394531 209.128906 199.863281 210.246094 200.207031 211.367188 C 200.625 212.742188 200.886719 214.160156 201.191406 215.558594 C 201.542969 217.1875 201.898438 218.816406 202.25 220.441406 C 202.601562 222.070312 202.957031 223.695312 203.308594 225.324219 C 203.652344 226.914062 203.949219 228.523438 204.347656 230.097656 C 204.492188 230.660156 204.722656 231.207031 205.21875 231.554688 C 205.65625 231.863281 206.210938 231.949219 206.738281 231.929688 C 208.039062 231.882812 209.304688 231.277344 210.472656 230.78125 C 213.222656 229.613281 215.84375 228.160156 218.351562 226.554688 C 220.90625 224.917969 223.347656 223.121094 225.742188 221.265625 C 227.925781 219.570312 230.207031 217.859375 231.769531 215.5625 C 233.394531 213.171875 233.878906 210.28125 233.632812 207.453125 C 233.476562 205.640625 232.964844 203.890625 232.488281 202.140625 C 232.042969 200.515625 231.628906 198.863281 231.070312 197.273438 C 231.011719 197.101562 230.953125 196.917969 230.742188 196.894531 C 230.53125 196.875 230.378906 197.023438 230.292969 197.191406 C 229.984375 197.796875 229.914062 198.566406 229.773438 199.21875 C 229.609375 199.992188 229.488281 200.847656 229.132812 201.566406 C 228.605469 202.636719 227.738281 203.558594 226.835938 204.339844 C 224.921875 206 222.625 207.175781 220.738281 208.875 C 217.0625 212.183594 215.160156 216.929688 211.507812 220.253906 C 211.050781 220.667969 210.566406 221.058594 210.054688 221.40625 C 209.800781 221.578125 209.363281 221.964844 209.039062 221.886719 C 208.746094 221.8125 208.609375 221.453125 208.527344 221.203125 C 208.292969 220.484375 208.136719 219.730469 207.949219 219 C 207.742188 218.191406 207.542969 217.386719 207.359375 216.578125 C 207.003906 215.007812 206.703125 213.421875 206.515625 211.824219 C 206.421875 211.015625 206.359375 210.203125 206.332031 209.386719 C 206.308594 208.628906 206.296875 207.871094 206.113281 207.128906 C 205.941406 206.425781 205.664062 205.742188 205.425781 205.058594 C 205.285156 204.664062 205.144531 204.269531 205.003906 203.875 C 205.371094 204.144531 205.820312 204.296875 206.277344 204.347656 C 207.558594 204.492188 208.722656 203.832031 209.707031 203.105469 C 209.996094 202.890625 210.289062 202.671875 210.574219 202.449219 C 211.558594 201.957031 212.519531 201.386719 213.433594 200.816406 C 214.976562 199.84375 216.390625 198.671875 217.40625 197.15625 C 217.53125 196.972656 217.128906 196.996094 217.046875 197.058594 C 215.722656 198.078125 214.402344 199.097656 213.078125 200.117188 C 212.199219 200.796875 211.332031 201.492188 210.453125 202.167969 C 210.214844 202.285156 209.976562 202.40625 209.742188 202.523438 C 209.019531 202.878906 208.242188 203.222656 207.425781 203.289062 C 206.554688 203.363281 205.835938 203.019531 205.261719 202.390625 C 204.785156 201.867188 204.398438 201.289062 203.847656 200.835938 C 203.53125 200.574219 203.1875 200.34375 202.882812 200.074219 C 202.683594 199.898438 202.457031 199.734375 202.457031 199.460938 C 202.457031 199.046875 202.703125 198.621094 202.882812 198.261719 C 203.019531 197.988281 203.296875 197.636719 203.332031 197.328125 C 203.367188 197.0625 203.027344 197.0625 202.871094 197.210938 C 202.714844 197.355469 202.65625 197.503906 202.445312 197.605469 C 202.21875 197.710938 201.96875 197.757812 201.722656 197.78125 C 201.519531 197.796875 201.300781 197.800781 201.082031 197.773438 C 200.742188 197.683594 200.421875 197.511719 200.15625 197.289062 C 200.09375 197.234375 200.03125 197.171875 199.972656 197.113281 C 199.753906 196.730469 199.640625 196.230469 199.46875 195.878906 C 199.269531 195.46875 198.964844 194.925781 198.484375 194.792969 C 198.023438 194.664062 197.496094 194.765625 197.019531 194.722656 C 196.015625 194.632812 196.746094 192.867188 196.921875 192.363281 C 197.089844 191.867188 197.285156 191.375 197.382812 190.859375 C 197.484375 190.339844 197.414062 189.78125 197.378906 189.253906 C 197.3125 188.292969 196.886719 187.570312 196.433594 186.734375 C 196.195312 186.304688 195.914062 186.011719 195.523438 185.710938 C 194.472656 184.910156 193.417969 184.175781 192.605469 183.121094 C 191.238281 181.347656 190.699219 179.121094 190.578125 176.933594 C 190.484375 175.265625 190.59375 173.570312 190.917969 171.929688 C 191.246094 170.25 191.859375 168.691406 192.632812 167.160156 C 193.375 165.691406 194.183594 164.25 195.144531 162.90625 C 196.121094 161.539062 197.28125 160.304688 198.546875 159.191406 C 200.277344 157.671875 202.269531 156.261719 204.425781 155.382812 C 207.511719 154.128906 210.980469 153.890625 214.3125 153.859375 C 216.953125 153.835938 219.179688 154.222656 221.753906 154.796875 C 223.558594 155.199219 225.289062 155.734375 226.890625 156.65625 C 231.511719 159.308594 234.4375 163.707031 235.40625 168.738281 C 235.828125 170.917969 236.101562 173.246094 235.734375 175.453125 C 235.488281 176.941406 234.921875 178.332031 234.265625 179.683594 C 233.542969 181.167969 232.773438 182.625 232.171875 184.164062 C 231.351562 186.261719 230.828125 188.453125 230.542969 190.679688 C 230.363281 192.105469 230.277344 193.539062 230.25 194.972656 C 230.21875 194.953125 230.191406 194.933594 230.160156 194.914062 C 227.996094 193.667969 225.292969 194.171875 223.078125 193.039062 C 222.242188 192.609375 221.539062 191.980469 221.195312 191.132812 C 222.757812 191.796875 224.667969 191 225.78125 189.824219 C 226.558594 189.011719 227.117188 188.015625 227.589844 187.011719 C 228.105469 185.921875 228.5 184.730469 228.429688 183.519531 C 228.316406 181.609375 226.6875 179.785156 224.621094 180.390625 C 223.648438 180.671875 222.820312 181.382812 222.183594 182.132812 C 221.722656 182.683594 221.304688 183.519531 221.453125 184.253906 C 221.632812 185.171875 222.734375 185.074219 223.363281 184.660156 C 223.863281 184.335938 224.171875 183.753906 224.691406 183.46875 C 225.097656 183.246094 225.40625 183.394531 225.574219 183.757812 C 225.664062 183.949219 225.71875 184.285156 225.472656 184.390625 C 225.203125 184.511719 225.621094 184.507812 225.734375 184.457031 C 226.269531 184.222656 226.15625 183.546875 225.710938 183.261719 C 225.160156 182.910156 224.394531 183.363281 223.988281 183.726562 C 223.628906 184.050781 223.308594 184.566406 222.839844 184.742188 C 222.347656 184.929688 221.964844 184.519531 221.894531 184.09375 C 221.78125 183.398438 222.175781 182.589844 222.625 182.070312 C 223.292969 181.300781 224.273438 180.363281 225.386719 180.453125 C 226.347656 180.535156 227.128906 181.273438 227.554688 182.074219 C 228.574219 184.007812 227.628906 186.292969 226.652344 188.054688 C 226.101562 189.039062 225.414062 190.015625 224.4375 190.640625 C 223.398438 191.300781 222.050781 191.386719 221.03125 190.644531 C 220.964844 190.59375 220.570312 190.667969 220.59375 190.78125 C 221.058594 192.828125 223.328125 193.683594 225.222656 193.976562 C 226.410156 194.15625 227.628906 194.246094 228.773438 194.636719 C 230.011719 195.058594 230.925781 195.871094 231.519531 197.011719 C 232.128906 198.175781 232.503906 199.472656 232.910156 200.710938 C 233.34375 202.054688 233.730469 203.417969 233.980469 204.808594 C 234.453125 207.4375 234.332031 210.097656 233.609375 212.667969 C 232.210938 217.65625 228.917969 221.875 224.96875 225.214844 C 222.878906 226.980469 220.609375 228.53125 218.285156 229.984375 C 215.972656 231.429688 213.613281 232.824219 211.226562 234.15625 C 206.195312 236.964844 200.878906 239.351562 195.078125 240.046875 C 192.082031 240.40625 189.050781 240.390625 186.042969 240.226562 C 183.488281 240.089844 180.851562 239.984375 178.367188 239.328125 C 176.117188 238.734375 174.042969 237.550781 172.910156 235.484375 C 171.765625 233.390625 171.722656 230.902344 171.929688 228.59375 C 172.183594 225.796875 172.726562 223.015625 173.160156 220.242188 C 173.390625 218.753906 173.625 217.269531 173.855469 215.78125 C 174.105469 215.65625 174.347656 215.511719 174.570312 215.34375 C 174.929688 215.078125 175.402344 214.65625 175.507812 214.207031 C 175.582031 213.867188 175.351562 213.609375 175.007812 213.617188 C 174.546875 213.621094 174.304688 213.933594 174.070312 214.277344 C 173.890625 214.546875 173.714844 214.824219 173.589844 215.128906 C 173.5 215.347656 173.453125 215.574219 173.417969 215.808594 C 172.75 216.105469 172 216.253906 171.289062 216.28125 C 170.320312 216.320312 169.316406 216.210938 168.363281 216.46875 C 167.421875 216.722656 166.753906 217.339844 166.1875 218.097656 C 166.015625 218.328125 165.847656 218.566406 165.636719 218.765625 C 165.234375 219.148438 164.753906 219.164062 164.277344 218.914062 C 163.714844 218.621094 163.261719 218.144531 162.792969 217.734375 C 160.71875 215.929688 158.527344 214.261719 156.414062 212.507812 C 155.917969 212.09375 155.425781 211.675781 154.941406 211.246094 C 154.523438 210.882812 154.078125 210.507812 153.761719 210.050781 C 153.425781 209.578125 153.738281 209.4375 154.03125 209.074219 C 154.308594 208.730469 153.910156 208.453125 154.03125 208.082031 C 154.109375 207.835938 154.394531 207.722656 154.429688 207.457031 C 154.460938 207.246094 154.332031 207.078125 154.230469 206.902344 C 154.183594 206.816406 154.117188 206.722656 154.109375 206.617188 C 154.089844 206.394531 154.398438 206.148438 154.527344 206.386719 C 154.585938 206.492188 155.015625 206.359375 154.980469 206.269531 C 154.769531 205.75 154.636719 205.03125 155.207031 204.671875 C 155.457031 204.515625 155.800781 204.5625 156.089844 204.554688 C 156.144531 204.550781 156.433594 204.5 156.410156 204.402344 C 156.238281 203.660156 156.71875 202.511719 157.632812 202.546875 C 158.390625 202.570312 158.667969 203.316406 159.019531 203.851562 C 159.03125 203.871094 159.054688 203.882812 159.082031 203.886719 C 159.433594 204.5 159.734375 205.136719 159.910156 205.824219 C 160.222656 207.0625 160.152344 208.351562 160.390625 209.601562 C 160.589844 210.640625 161.070312 211.648438 161.957031 212.292969 C 162.34375 212.574219 162.816406 212.765625 163.304688 212.777344 C 163.566406 212.785156 163.882812 212.78125 164.082031 212.597656 C 164.332031 212.367188 164.582031 212.140625 164.832031 211.914062 C 165.777344 211.066406 166.738281 210.230469 167.746094 209.453125 C 168.089844 209.1875 168.457031 208.945312 168.816406 208.695312 C 169.433594 208.277344 170.050781 207.863281 170.675781 207.453125 C 171.355469 207.011719 172.035156 206.574219 172.726562 206.152344 C 173.273438 205.820312 173.8125 205.492188 174.382812 205.207031 C 175.058594 204.867188 175.839844 204.617188 176.605469 204.625 C 176.871094 204.625 177.140625 204.671875 177.40625 204.703125 C 177.617188 204.726562 177.824219 204.734375 178.03125 204.785156 C 178.304688 204.847656 178.566406 204.945312 178.8125 205.066406 C 179.769531 205.542969 180.511719 206.34375 181.1875 207.136719 C 181.785156 207.839844 182.320312 208.589844 182.789062 209.378906 C 183.726562 210.96875 184.375 212.703125 184.871094 214.46875 C 185.441406 216.503906 185.824219 218.585938 186.191406 220.664062 C 186.289062 221.234375 186.386719 221.800781 186.488281 222.371094 C 186.503906 222.464844 186.652344 222.472656 186.71875 222.460938 C 186.820312 222.441406 186.910156 222.390625 186.941406 222.292969 C 187.367188 220.875 187.078125 219.40625 186.65625 218.023438 C 186.433594 217.296875 186.175781 216.585938 185.949219 215.863281 C 185.839844 215.511719 185.738281 215.160156 185.648438 214.800781 C 185.5625 214.453125 185.457031 214.082031 185.445312 213.722656 C 185.433594 213.363281 185.628906 213.003906 185.871094 212.742188 C 186.0625 212.535156 186.308594 212.449219 186.578125 212.386719 C 186.605469 212.378906 186.636719 212.367188 186.667969 212.347656 C 186.75 212.324219 186.820312 212.28125 186.839844 212.222656 C 188.015625 208.839844 188.714844 205.253906 189.046875 201.699219 C 189.34375 198.574219 189.425781 195.257812 187.828125 192.433594 C 186.289062 189.71875 183.8125 187.59375 181.335938 185.714844 C 179.261719 184.140625 177.085938 182.820312 175.398438 180.824219 C 172.960938 177.933594 171.152344 174.539062 170.921875 170.742188 C 170.828125 169.148438 170.992188 167.5625 171.300781 166 C 171.664062 165.777344 171.902344 165.351562 172.179688 165.046875 C 173.425781 163.664062 173.679688 161.546875 174.347656 159.871094 C 177.5 152.003906 184.449219 145.6875 193.140625 144.425781 C 193.367188 144.390625 193.507812 144.113281 193.195312 144.15625 C 184.675781 145.394531 177.707031 151.300781 174.316406 158.929688 C 173.902344 159.851562 173.542969 160.800781 173.234375 161.761719 C 172.914062 162.75 172.667969 163.804688 172.046875 164.664062 C 171.878906 164.898438 171.660156 165.238281 171.402344 165.496094 C 171.707031 164.078125 172.113281 162.675781 172.535156 161.300781 C 173.742188 157.335938 175.636719 153.480469 178.625 150.5 C 181.660156 147.472656 185.671875 145.335938 189.65625 143.757812 C 193.683594 142.164062 197.914062 141.117188 202.164062 140.289062 C 206.890625 139.367188 211.703125 138.550781 216.519531 138.3125 C 221.5 138.0625 226.402344 138.679688 231.058594 140.460938 C 235.277344 142.074219 239.171875 144.417969 242.832031 147.011719 C 246.382812 149.53125 249.785156 152.378906 252.332031 155.910156 C 255.003906 159.617188 256.449219 163.980469 257.179688 168.429688 C 258.6875 177.628906 257.601562 187.242188 254.195312 195.933594 C 253.078125 198.777344 251.710938 201.519531 250.140625 204.140625 C 249.535156 205.035156 248.902344 205.910156 248.242188 206.769531 C 243.234375 213.289062 236.972656 218.761719 230.46875 223.804688 C 227.148438 226.378906 223.75 228.851562 220.355469 231.328125 C 218.671875 232.558594 216.984375 233.789062 215.308594 235.03125 C 215.28125 235.050781 215.253906 235.074219 215.226562 235.09375 C 211.554688 237.085938 207.78125 238.886719 203.878906 240.457031 C 197.867188 242.875 178.695312 247.816406 177.648438 247.324219 C 172.210938 244.757812 164.339844 241.078125 159.179688 237.996094 C 151.050781 233.140625 144.214844 228.015625 137.011719 221.953125 C 130.695312 216.628906 123.542969 210.71875 119.9375 203.199219 C 119.734375 202.390625 119.558594 201.578125 119.402344 200.757812 C 117.964844 193.101562 118.699219 184.957031 122.539062 178.042969 C 126.449219 171.003906 133.21875 165.796875 140.78125 162.921875 C 142.910156 162.109375 145.082031 161.457031 147.363281 161.242188 C 149.792969 161.015625 152.269531 161.019531 154.703125 161.15625 C 156.769531 161.269531 158.898438 161.410156 160.886719 162.003906 C 162.441406 162.464844 163.957031 163.070312 165.445312 163.703125 C 166.496094 164.148438 167.386719 164.644531 168.367188 165.222656 C 169.015625 165.605469 169.96875 166.238281 170.8125 166.152344 C 170.5625 167.503906 170.417969 168.871094 170.445312 170.230469 Z M 257.761719 159.875 C 256.871094 156.8125 255.621094 153.851562 253.957031 151.113281 C 251.519531 147.105469 248.140625 143.003906 244.253906 140.3125 C 238.753906 136.503906 232.253906 134.300781 225.65625 133.175781 C 218.617188 131.976562 211.136719 132.261719 204.132812 133.757812 C 200.128906 134.613281 196.546875 136.179688 192.871094 137.949219 C 189.105469 139.757812 185.445312 141.921875 182.203125 144.535156 C 179.441406 146.761719 176.878906 149.21875 174.335938 151.675781 C 173.332031 152.648438 172.332031 153.628906 171.3125 154.582031 C 170.875 154.992188 170.28125 155.746094 169.683594 155.925781 C 169.074219 156.109375 168.191406 155.804688 167.601562 155.667969 C 166.4375 155.398438 165.28125 155.074219 164.125 154.765625 C 160.886719 153.910156 157.125 152.667969 153.796875 152.242188 C 145.664062 151.214844 137.359375 152.386719 130.582031 157.144531 C 127.183594 159.535156 124.242188 162.550781 121.84375 165.902344 C 119.429688 169.277344 117.972656 173.570312 117.101562 177.621094 C 116.109375 182.210938 116.171875 187.117188 116.5625 191.777344 C 116.898438 195.765625 117.773438 199.667969 119.480469 203.289062 C 121.28125 210.554688 124.921875 217.28125 129.804688 223.027344 C 135.398438 229.613281 142.347656 234.957031 149.679688 239.566406 C 153.40625 241.910156 157.25 244.078125 161.136719 246.15625 C 164.84375 248.136719 168.5625 250.0625 172.496094 251.582031 C 174.203125 252.242188 176.046875 253.035156 177.863281 253.324219 C 178.285156 253.390625 178.71875 253.300781 179.128906 253.210938 C 180.84375 252.832031 182.511719 252.164062 184.140625 251.527344 C 189.421875 249.46875 194.578125 247.085938 199.664062 244.605469 C 202.125 243.40625 204.566406 242.171875 206.96875 240.867188 C 208.695312 239.933594 210.4375 238.984375 212.039062 237.851562 C 213.296875 236.960938 214.539062 236.042969 215.777344 235.117188 C 218.648438 233.546875 221.453125 231.851562 224.195312 230.066406 C 231 225.636719 237.390625 220.527344 242.824219 214.535156 C 245.707031 211.351562 248.304688 207.914062 250.507812 204.25 C 254.972656 197.71875 257.953125 190.3125 259.171875 182.523438 C 260.355469 174.984375 259.902344 167.210938 257.761719 159.875 " fill-opacity="1" fill-rule="nonzero"/></g><path fill="#634e4e" d="M 188.691406 211.421875 C 189.386719 207.507812 190.539062 203.660156 190.882812 199.6875 C 191.148438 196.597656 190.457031 193.558594 188.863281 190.875 C 185.816406 185.75 180.421875 182.65625 176.523438 178.25 C 174.675781 176.15625 173.246094 173.71875 172.910156 170.933594 C 172.511719 167.691406 173.613281 164.605469 175.167969 161.785156 C 177.054688 158.355469 179.554688 155.242188 182.300781 152.433594 C 184.882812 149.792969 187.757812 147.308594 191.003906 145.476562 C 192.867188 144.425781 194.921875 143.707031 196.957031 143.035156 C 199.5 142.195312 202.101562 141.515625 204.734375 141.007812 C 210.046875 139.980469 215.546875 139.605469 220.949219 140.027344 C 223.714844 140.246094 226.464844 140.71875 229.09375 141.601562 C 231.558594 142.433594 233.894531 143.605469 236.113281 144.941406 C 240.488281 147.582031 244.527344 150.796875 248.15625 154.355469 C 251.804688 157.9375 255.304688 161.957031 257.703125 166.464844 C 259.957031 170.707031 260.988281 175.480469 260.972656 180.246094 C 260.941406 189.957031 256.800781 199.066406 250.878906 206.691406 C 247.890625 210.542969 244.46875 214.054688 240.871094 217.359375 C 238.027344 219.96875 235.113281 222.566406 231.976562 224.835938 C 226.78125 228.59375 221.113281 231.75 215.433594 234.746094 C 209.207031 238.027344 202.851562 241.078125 196.394531 243.898438 C 191.585938 246 186.695312 248.121094 181.632812 249.570312 C 180.621094 249.863281 179.316406 250.347656 178.242188 250.140625 C 176.972656 249.894531 175.710938 249.257812 174.539062 248.757812 C 169.289062 246.507812 164.203125 243.875 159.222656 241.101562 C 152.449219 237.328125 145.851562 233.207031 139.648438 228.574219 C 136.496094 226.21875 133.445312 223.726562 130.589844 221.027344 C 128.046875 218.621094 125.585938 216.058594 123.597656 213.183594 C 119.242188 206.886719 116.640625 199.285156 115.613281 191.777344 C 114.652344 184.75 114.964844 176.710938 119.152344 170.648438 C 120.386719 168.863281 121.925781 167.246094 123.488281 165.734375 C 125.234375 164.039062 126.796875 163.136719 128.820312 161.769531 C 133.113281 158.867188 137.996094 156.832031 143.132812 155.933594 C 148.335938 155.019531 153.757812 155.257812 158.824219 156.761719 C 161.351562 157.511719 168.027344 160.585938 169.113281 160.742188 C 169.980469 160.867188 170.882812 160.597656 171.515625 160.003906 C 172.230469 159.332031 172.535156 158.367188 172.894531 157.488281 C 173.269531 156.574219 173.695312 155.679688 174.195312 154.820312 C 175.347656 152.855469 176.917969 151.175781 178.960938 150.078125 C 179.230469 149.933594 178.984375 149.75 178.773438 149.863281 C 176.914062 150.863281 175.402344 152.289062 174.25 154.027344 C 173.660156 154.914062 173.167969 155.859375 172.738281 156.832031 C 172.296875 157.828125 172.007812 159.035156 171.21875 159.835938 C 169.867188 161.210938 168.238281 160.121094 167 159.285156 C 165.9375 158.570312 164.78125 157.96875 163.617188 157.425781 C 161.292969 156.351562 158.824219 155.574219 156.300781 155.085938 C 146.347656 153.171875 135.953125 155.816406 127.839844 161.671875 C 125.925781 163.054688 124.128906 164.597656 122.476562 166.269531 C 121.023438 167.738281 119.589844 169.285156 118.464844 171.011719 C 116.554688 173.9375 115.527344 177.351562 115.054688 180.777344 C 113.988281 188.503906 115.464844 196.605469 118.25 203.851562 C 119.570312 207.28125 121.238281 210.617188 123.367188 213.636719 C 125.457031 216.597656 128.039062 219.234375 130.699219 221.703125 C 136.53125 227.113281 143.089844 231.761719 149.84375 236 C 155.839844 239.765625 162.046875 243.21875 168.421875 246.328125 C 170.5625 247.375 172.722656 248.386719 174.925781 249.300781 C 175.945312 249.726562 177.105469 250.332031 178.226562 250.449219 C 179.457031 250.578125 180.835938 250.085938 181.992188 249.746094 C 184.207031 249.089844 186.378906 248.285156 188.527344 247.453125 C 194.765625 245.035156 200.871094 242.277344 206.886719 239.367188 C 213.261719 236.285156 219.5625 233.011719 225.613281 229.351562 C 228.144531 227.820312 230.644531 226.21875 233.011719 224.449219 C 236.328125 221.96875 239.4375 219.171875 242.441406 216.339844 C 249.492188 209.6875 255.894531 201.976562 259.148438 192.8125 C 262.347656 183.796875 262.441406 173.550781 257.46875 165.125 C 254.851562 160.691406 251.289062 156.710938 247.53125 153.171875 C 243.867188 149.726562 239.808594 146.589844 235.410156 144.09375 C 233.195312 142.835938 230.859375 141.761719 228.40625 141.035156 C 225.871094 140.28125 223.238281 139.886719 220.597656 139.710938 C 215.277344 139.347656 209.890625 139.738281 204.664062 140.75 C 201.988281 141.269531 199.347656 141.960938 196.765625 142.816406 C 194.816406 143.464844 192.847656 144.152344 191.046875 145.132812 C 187.828125 146.878906 184.972656 149.296875 182.402344 151.859375 C 179.605469 154.648438 177.058594 157.75 175.082031 161.15625 C 173.5 163.882812 172.257812 166.882812 172.378906 170.070312 C 172.613281 176.164062 177.691406 180.152344 181.957031 183.90625 C 184.222656 185.898438 186.476562 187.980469 188.113281 190.519531 C 189.917969 193.3125 190.71875 196.527344 190.421875 199.824219 C 190.066406 203.761719 188.929688 207.582031 188.234375 211.46875 C 188.203125 211.660156 188.660156 211.59375 188.691406 211.421875 " fill-opacity="1" fill-rule="nonzero"/><path fill="#634e4e" d="M 130.84375 151.53125 C 129.582031 151.890625 128.257812 151.707031 127.007812 151.382812 C 125.808594 151.070312 124.621094 150.667969 123.460938 150.238281 C 121.316406 149.449219 119.203125 148.367188 117.789062 146.542969 C 116.515625 144.902344 115.957031 142.761719 116.777344 140.800781 C 117.523438 139.011719 119.222656 137.601562 121.144531 137.164062 C 121.828125 137.007812 122.527344 136.96875 123.21875 137.027344 C 121.953125 137.257812 120.804688 137.957031 120.007812 138.980469 C 118.945312 140.351562 118.488281 142.167969 118.710938 143.867188 C 118.96875 145.828125 120.234375 147.539062 121.800781 148.730469 C 124.605469 150.863281 128.03125 151.355469 131.472656 151.308594 C 131.269531 151.394531 131.0625 151.472656 130.84375 151.53125 Z M 130.980469 135.804688 C 131.644531 135.15625 132.53125 134.804688 133.472656 134.90625 C 134.414062 135.007812 135.285156 135.476562 135.976562 136.097656 C 136.691406 136.734375 137.246094 137.558594 137.515625 138.46875 C 137.863281 139.632812 137.832031 140.871094 137.601562 142.050781 C 137.367188 143.257812 136.933594 144.414062 136.441406 145.539062 C 136.023438 146.492188 135.726562 146.859375 135.179688 147.746094 C 134.359375 149.0625 133.273438 150.386719 131.855469 151.125 C 129.347656 151.179688 126.863281 150.933594 124.53125 149.914062 C 122.648438 149.089844 120.917969 147.773438 119.917969 145.976562 C 119.042969 144.40625 118.886719 142.574219 119.433594 140.871094 C 119.9375 139.296875 121.085938 137.785156 122.761719 137.308594 C 123.203125 137.179688 123.652344 137.132812 124.101562 137.152344 C 125.277344 137.386719 126.410156 137.878906 127.390625 138.53125 C 127.621094 138.734375 127.832031 138.953125 128.019531 139.183594 C 128.328125 139.5625 128.574219 139.984375 128.761719 140.429688 C 128.808594 140.542969 129.195312 140.445312 129.210938 140.335938 C 129.457031 138.582031 129.644531 137.113281 130.980469 135.804688 Z M 167.882812 155.804688 C 163.75 153.496094 158.601562 151.796875 153.914062 151.050781 C 149.171875 150.300781 144.332031 150.222656 139.546875 150.539062 C 137.167969 150.695312 134.703125 151.035156 132.257812 151.117188 C 133.179688 150.601562 133.992188 149.875 134.671875 149.035156 C 135.332031 148.214844 135.878906 147.308594 136.359375 146.378906 C 136.929688 145.265625 137.433594 144.109375 137.820312 142.921875 C 138.539062 140.691406 138.78125 138.078125 137.257812 136.113281 C 136.082031 134.59375 134.035156 133.644531 132.128906 134.367188 C 130.179688 135.101562 129.390625 137.121094 129.007812 138.976562 C 128.988281 139.070312 128.96875 139.164062 128.949219 139.257812 C 128.324219 138.621094 125.835938 137.09375 124.667969 136.972656 C 124.570312 136.960938 124.472656 136.953125 124.375 136.949219 C 123.867188 136.851562 123.347656 136.800781 122.828125 136.800781 C 120.699219 136.796875 118.613281 137.714844 117.261719 139.34375 C 116.625 140.113281 116.164062 141.027344 115.996094 142.007812 C 115.8125 143.085938 116 144.191406 116.445312 145.1875 C 117.417969 147.355469 119.402344 148.820312 121.542969 149.792969 C 122.722656 150.332031 123.960938 150.746094 125.195312 151.140625 C 126.492188 151.554688 127.828125 151.945312 129.207031 151.9375 C 130.175781 151.929688 131.082031 151.699219 131.902344 151.300781 C 133.269531 151.265625 134.632812 151.152344 135.960938 151.027344 C 140.988281 150.566406 146.03125 150.371094 151.066406 150.914062 C 155.957031 151.445312 160.804688 152.648438 165.222656 154.808594 C 165.785156 155.085938 166.339844 155.375 166.890625 155.683594 C 166.972656 155.730469 167.097656 155.703125 167.183594 155.667969 C 167.207031 155.660156 167.960938 155.847656 167.882812 155.804688 " fill-opacity="1" fill-rule="nonzero"/><g clip-path="url(#3f89ac84b1)"><path fill="#634e4e" d="M 122.398438 129.140625 C 121.257812 129.886719 120.117188 130.632812 118.976562 131.378906 C 118.699219 131.5625 118.421875 131.742188 118.144531 131.921875 C 118.011719 132.011719 117.878906 132.101562 117.742188 132.1875 C 117.316406 132.460938 116.917969 132.21875 116.828125 131.972656 C 116.722656 131.683594 116.628906 131.386719 116.53125 131.089844 C 116.113281 129.851562 115.640625 128.613281 115.378906 127.332031 C 115.222656 126.566406 115.15625 125.765625 115.273438 124.992188 C 115.417969 124.644531 115.585938 124.308594 115.792969 123.988281 C 116.152344 123.445312 116.621094 122.96875 117.230469 122.699219 C 117.789062 122.457031 118.4375 122.394531 119.003906 122.648438 C 120.0625 123.113281 120.355469 124.355469 120.449219 125.382812 C 120.476562 125.652344 120.488281 125.921875 120.496094 126.195312 C 120.496094 126.257812 120.703125 126.195312 120.71875 126.148438 C 121.011719 125.261719 122.003906 124.664062 122.945312 124.875 C 123.863281 125.078125 124.320312 125.9375 124.28125 126.839844 C 124.238281 127.921875 123.230469 128.59375 122.398438 129.140625 Z M 115.589844 123.886719 C 115.976562 123.015625 116.683594 122.195312 117.625 121.882812 C 118.488281 121.601562 119.378906 121.847656 119.992188 122.496094 C 120.628906 123.179688 120.871094 124.152344 120.769531 125.058594 C 120.753906 125.207031 120.726562 125.359375 120.695312 125.503906 C 120.636719 124.609375 120.464844 123.667969 119.839844 123.011719 C 118.988281 122.117188 117.613281 122.269531 116.648438 122.894531 C 116.152344 123.21875 115.78125 123.65625 115.484375 124.152344 C 115.515625 124.0625 115.550781 123.972656 115.589844 123.886719 Z M 123.429688 124.875 C 122.585938 124.511719 121.527344 124.816406 120.917969 125.472656 C 121.121094 124.558594 121.019531 123.578125 120.492188 122.78125 C 120 122.042969 119.179688 121.589844 118.269531 121.660156 C 117.226562 121.742188 116.332031 122.378906 115.761719 123.210938 C 115.382812 123.761719 115.160156 124.371094 115.058594 125 C 114.890625 125.398438 114.75 125.804688 114.617188 126.195312 C 114.121094 127.660156 113.699219 129.148438 113.382812 130.660156 C 112.761719 133.632812 112.546875 136.710938 113.023438 139.71875 C 113.21875 140.929688 113.523438 142.121094 114.046875 143.242188 C 114.484375 144.179688 115.0625 145.054688 115.757812 145.828125 C 117.234375 147.472656 119.183594 148.625 121.195312 149.535156 C 121.46875 149.660156 121.746094 149.78125 122.023438 149.894531 C 122.082031 149.921875 122.289062 149.832031 122.207031 149.796875 C 120.179688 148.949219 118.1875 147.902344 116.59375 146.386719 C 115.039062 144.910156 114.007812 143.039062 113.507812 140.980469 C 112.820312 138.125 112.867188 135.117188 113.316406 132.234375 C 113.542969 130.769531 113.878906 129.320312 114.296875 127.894531 C 114.5 127.1875 114.722656 126.484375 114.96875 125.792969 C 114.972656 125.769531 114.984375 125.75 114.992188 125.730469 C 114.984375 126.015625 114.996094 126.304688 115.027344 126.59375 C 115.183594 128.007812 115.703125 129.363281 116.152344 130.703125 C 116.269531 131.046875 116.382812 131.386719 116.5 131.726562 C 116.585938 131.980469 116.65625 132.28125 116.859375 132.472656 C 117.332031 132.90625 118.023438 132.332031 118.417969 132.074219 C 119.667969 131.253906 120.921875 130.4375 122.171875 129.617188 C 123.082031 129.019531 124.332031 128.378906 124.621094 127.246094 C 124.859375 126.316406 124.324219 125.257812 123.429688 124.875 " fill-opacity="1" fill-rule="nonzero"/></g></svg>