<svg xmlns="http://www.w3.org/2000/svg" xmlns:xlink="http://www.w3.org/1999/xlink" width="500" zoomAndPan="magnify" viewBox="0 0 375 374.999991" height="500" preserveAspectRatio="xMidYMid meet" version="1.0"><defs><clipPath id="8061a763ff"><path d="M 49.136719 44.410156 L 325.808594 44.410156 L 325.808594 330.582031 L 49.136719 330.582031 Z M 49.136719 44.410156 " clip-rule="nonzero"/></clipPath><clipPath id="74200bb765"><path d="M 149 94.234375 L 237 94.234375 L 237 280.984375 L 149 280.984375 Z M 149 94.234375 " clip-rule="nonzero"/></clipPath></defs><g clip-path="url(#8061a763ff)"><path fill="#f1edee" d="M 283.578125 290.511719 C 282.949219 291.140625 282.054688 291.527344 281.242188 291.894531 C 280.917969 292.03125 280.484375 291.792969 280.097656 291.726562 C 280.292969 291.355469 280.378906 290.882812 280.695312 290.636719 C 281.589844 289.957031 282.535156 289.320312 283.507812 288.511719 C 284.363281 288.941406 284.503906 289.640625 283.578125 290.511719 Z M 283.988281 294.3125 L 283.292969 294.324219 L 283.675781 293.347656 L 284.117188 293.324219 Z M 221.253906 312.695312 C 222.195312 312.347656 222.789062 312.125 223.726562 311.777344 C 223.3125 312.894531 222.640625 313.0625 221.253906 312.695312 Z M 201.875 314.996094 L 201.574219 314.554688 L 203.160156 313.902344 L 203.539062 314.375 Z M 195.523438 314.292969 L 195.511719 313.976562 L 197.179688 313.855469 L 197.195312 314.230469 Z M 133.460938 301.308594 C 134.152344 301.355469 134.839844 301.402344 135.765625 301.460938 C 135.136719 302.609375 134.296875 302.207031 133.460938 301.308594 Z M 132.558594 299.902344 C 132.40625 300.128906 131.667969 300.171875 131.230469 300.058594 C 131 300 130.855469 299.453125 130.59375 298.960938 C 131.25 298.875 131.730469 298.808594 132.207031 298.746094 C 132.34375 299.144531 132.71875 299.667969 132.558594 299.902344 Z M 88.015625 278.992188 Z M 76.554688 112.183594 C 76.734375 112.539062 76.882812 112.839844 77.03125 113.136719 C 76.792969 114.183594 76.523438 115.191406 76.34375 116.253906 C 74.371094 115.710938 74.261719 114.960938 76.554688 112.183594 Z M 75.964844 118.726562 C 76.257812 118.597656 76.699219 118.289062 76.8125 118.386719 C 76.980469 118.527344 76.992188 118.871094 77.039062 119.164062 L 76.226562 119.894531 Z M 130.5625 68.046875 C 132.8125 65.835938 135.824219 64.550781 138.984375 63.835938 C 140.136719 63.578125 140.683594 64.125 140.746094 64.890625 C 140.871094 66.359375 139.929688 67.640625 138.792969 68.929688 C 138.136719 69.699219 137.339844 69.632812 136.820312 69.097656 C 136.449219 68.707031 136.289062 68.179688 135.949219 67.769531 C 135.3125 67 135.285156 67.011719 132.894531 67.675781 C 132.71875 68.890625 132.5625 69.960938 132.40625 71.035156 C 131.40625 71.65625 130.5625 71.609375 130.113281 70.949219 C 129.519531 70.089844 129.519531 69.09375 130.5625 68.046875 Z M 147.933594 60.75 L 148.277344 61.246094 L 145.929688 62.445312 L 145.613281 62.070312 Z M 157.4375 319.621094 C 156.515625 319.617188 155.933594 319.613281 155.363281 319.609375 C 155.585938 318.929688 156.089844 318.753906 157.4375 319.621094 Z M 186.117188 328.078125 C 185.441406 328.316406 185.007812 328.46875 184.570312 328.621094 C 184.167969 328.089844 183.75 327.542969 183.058594 326.640625 C 184.308594 327.226562 185.101562 327.597656 186.117188 328.078125 Z M 190.765625 327.960938 L 191.632812 328.324219 L 190.613281 328.34375 Z M 70.242188 127.265625 C 68.742188 125.925781 69.039062 123.667969 68.789062 121.761719 C 68.75 121.464844 69.589844 120.746094 69.996094 120.257812 C 71.488281 121.121094 69.882812 122.765625 70.09375 123.8125 C 70.304688 124.84375 71.210938 125.542969 70.242188 127.265625 Z M 67.46875 131.246094 L 67.507812 130.507812 C 67.945312 130.441406 68.386719 130.359375 68.820312 130.332031 C 68.863281 130.332031 68.847656 130.660156 68.855469 130.832031 Z M 324.058594 198.71875 C 324.628906 194.195312 325.457031 189.777344 325.097656 185.339844 C 324.972656 182.683594 324.523438 180.234375 325.859375 178.144531 C 325.003906 177.394531 324.261719 176.878906 323.546875 176.320312 C 323.515625 175.621094 323.359375 174.941406 323.476562 174.578125 C 324.140625 172.488281 323.800781 170.1875 323.136719 167.800781 C 322.902344 167 322.75 166.109375 322.65625 165.296875 C 322.105469 161.660156 320.636719 158.734375 318.96875 156.015625 C 319.046875 155.695312 319.089844 155.328125 319.078125 154.882812 C 319.066406 154.371094 319.277344 153.789062 319.5 153.414062 C 319.882812 152.8125 319.785156 152.421875 319.277344 151.746094 C 318.605469 150.855469 319.140625 150.300781 319.8125 150.222656 C 320.417969 150.15625 321.136719 150.578125 321.753906 150.539062 C 322.359375 150.5 322.863281 150 323.46875 149.945312 C 325.152344 149.800781 325.988281 148.964844 325.46875 147.027344 C 324.90625 144.910156 324.550781 142.242188 321.996094 141.957031 C 321.8125 141.253906 321.628906 140.554688 321.445312 139.867188 C 321.21875 139.199219 320.996094 138.542969 320.773438 137.890625 C 320.320312 136.59375 319.847656 135.316406 319.316406 134.058594 C 318.765625 132.757812 318.128906 131.488281 317.460938 130.230469 C 316.804688 128.960938 316.089844 127.734375 315.28125 126.566406 C 313.730469 124.1875 312.230469 121.796875 311.113281 119.171875 C 311.039062 118.992188 310.921875 118.765625 310.777344 118.667969 C 308.902344 117.320312 307.769531 115.589844 306.898438 113.589844 C 307.226562 113.230469 307.554688 112.871094 307.867188 112.53125 C 305.84375 110.101562 305.875 110.113281 304.667969 107.027344 C 304.25 105.964844 304.28125 105.179688 305.085938 104.75 C 305.867188 104.339844 306.753906 103.636719 305.960938 102.5625 C 305.101562 101.375 304.261719 99.65625 302.488281 99.457031 C 302.394531 100.121094 302.328125 100.574219 302.261719 101.03125 L 301.792969 100.910156 C 301.523438 100.152344 301.253906 99.394531 301 98.667969 C 300.136719 98.269531 299.335938 97.902344 298.597656 97.5625 C 298.394531 96.703125 298.226562 96.015625 298.175781 95.804688 C 296.300781 94.515625 294.722656 93.296875 293.410156 91.910156 C 292.101562 90.523438 291.03125 89.007812 290.011719 87.363281 C 288.777344 87.339844 287.457031 87.585938 286.003906 86.351562 C 287.058594 85.859375 287.972656 85.433594 289.261719 84.828125 C 288.113281 84.5625 287.511719 84.382812 286.550781 84.214844 C 286.449219 83.667969 286.460938 83.152344 286.226562 82.652344 C 285.988281 82.164062 285.597656 81.578125 285.105469 81.253906 C 284.640625 80.941406 283.964844 80.941406 283.390625 80.761719 C 283.238281 80.714844 283.066406 80.503906 282.957031 80.351562 C 280.394531 76.828125 276.730469 74.070312 272.636719 71.984375 C 271.515625 71.371094 270.390625 70.761719 269.277344 70.15625 C 270.535156 67.675781 269.574219 65.945312 265.851562 64.417969 C 264.042969 63.761719 262.710938 62.964844 261.890625 61.488281 C 261.542969 60.859375 260.628906 60.179688 259.808594 59.75 C 258.316406 58.96875 256.710938 58.34375 255.136719 57.699219 C 252.199219 56.507812 249.148438 55.175781 246.042969 55.765625 C 245.792969 55.816406 245.386719 55.703125 245.089844 55.59375 C 242.242188 54.550781 239.453125 53.273438 236.480469 52.621094 C 233.984375 52.003906 231.503906 51.273438 228.992188 50.675781 C 227.734375 50.378906 226.472656 50.117188 225.199219 49.917969 C 223.929688 49.734375 222.632812 49.714844 221.335938 49.742188 C 221.164062 49.746094 220.960938 49.59375 220.570312 49.429688 C 222.214844 48.796875 224.761719 49.484375 226.015625 48.078125 C 223.726562 46.824219 221.175781 46.035156 218.660156 46.148438 C 215.238281 46.367188 211.808594 45.40625 208.457031 45.90625 C 207.507812 46.058594 206.292969 45.605469 205.210938 45.398438 C 204.125 45.1875 203.066406 44.902344 201.976562 44.707031 C 198.105469 44.042969 194.347656 44.632812 190.585938 45.148438 C 188.042969 45.433594 185.523438 46.28125 183.074219 46.242188 C 181.308594 46.226562 179.660156 46.414062 178.089844 46.8125 C 176.511719 47.246094 175.007812 47.789062 173.5 48.304688 C 171.140625 49.109375 168.832031 49.558594 166.375 49.859375 C 163.609375 50.132812 160.890625 50.828125 158.160156 51.40625 C 156.863281 51.707031 155.566406 52.007812 153.964844 52.375 C 152.988281 50.253906 150.484375 51.171875 148.121094 51.601562 C 144.902344 52.328125 144.894531 54.027344 144.710938 55.625 C 143.417969 55.714844 142.375 55.789062 141.234375 55.867188 C 140.6875 56.894531 140.46875 58.304688 139.71875 58.585938 C 137.632812 59.386719 137.492188 60.667969 136.855469 61.757812 C 135.753906 62.070312 134.835938 62.40625 134.070312 62.652344 C 132.933594 62.347656 131.9375 62.078125 131.351562 61.921875 C 129.867188 63.378906 128.777344 64.449219 127.945312 65.269531 C 127.480469 67.320312 127.097656 69.1875 126.757812 70.988281 C 125.902344 71.230469 125.316406 71.398438 124.589844 71.675781 C 125.035156 72.839844 125.605469 73.835938 125.792969 74.949219 C 125.945312 75.847656 125.667969 76.890625 125.527344 77.871094 C 125.507812 77.996094 125.054688 78.167969 124.863281 78.28125 C 122.839844 76.808594 119.257812 76.976562 118.679688 74.4375 C 120.28125 73.238281 122.191406 71.949219 123.964844 70.527344 C 125.699219 69.167969 125.695312 68.464844 124 67.683594 C 122.25 66.902344 119.121094 68.03125 117.722656 69.933594 C 115.949219 72.402344 114.289062 74.65625 110.59375 75.410156 C 110.183594 75.503906 109.445312 76.027344 109.371094 76.3125 C 109 77.671875 107.683594 78.472656 106.558594 79.335938 C 107.648438 80.8125 108.964844 80.691406 111.050781 79.011719 C 112.277344 78 113.449219 76.929688 114.816406 76.125 C 116.21875 75.253906 117.445312 75.386719 118.054688 76.367188 C 118.644531 77.3125 119.175781 78.289062 119.675781 79.28125 C 120.332031 80.601562 120.007812 82.355469 118.820312 82.847656 C 117.257812 83.4375 115.503906 84.390625 114.136719 84.351562 C 112.046875 84.296875 110.511719 85.195312 108.828125 86.273438 C 109.253906 87.175781 109.621094 87.953125 110.152344 89.082031 C 108.082031 88.835938 106.742188 88.5 106.292969 87.113281 C 106.070312 86.414062 105.679688 85.886719 104.253906 86.6875 C 105.050781 87.976562 105.8125 89.210938 106.585938 90.464844 C 103.457031 92.109375 103.464844 92.160156 101.75 90.574219 C 101.273438 90.136719 100.808594 90.027344 99.921875 91.117188 C 100.652344 92.105469 101.429688 93.164062 102.226562 94.246094 C 101.867188 96.128906 99.714844 96.449219 98.46875 97.144531 C 96.972656 97.96875 95.007812 97.808594 93.507812 98.175781 C 94.164062 99.554688 94.871094 101.03125 95.570312 102.5 C 94.847656 103.203125 94.226562 103.816406 93.640625 104.386719 C 93.152344 104.285156 92.765625 104.207031 92.367188 104.125 C 91.886719 105.109375 91.472656 105.945312 91.089844 106.722656 C 90.007812 106.976562 89.0625 107.195312 87.960938 107.453125 C 88.140625 108.855469 89.945312 109.578125 88.125 111.300781 C 87.289062 111.527344 86.453125 111.757812 85.535156 112.007812 C 86.828125 114.699219 86.828125 114.699219 83.371094 116.238281 C 81.351562 116.070312 83.160156 113.980469 82.421875 112.882812 C 81.914062 113.5 81.445312 113.957031 81.121094 114.476562 C 80.445312 115.585938 79.855469 116.714844 79.242188 117.84375 C 78.734375 118.898438 78.042969 119.394531 77.121094 119.148438 C 77.871094 117.792969 78.105469 116.542969 77.617188 115.378906 C 77.316406 114.695312 77.234375 113.859375 77.070312 113.082031 C 77.851562 110.695312 78.160156 108.140625 81.003906 106.308594 C 81.800781 105.804688 82.703125 104.269531 82.203125 103.207031 C 81.746094 102.246094 80.667969 102.527344 79.617188 103.074219 C 79.070312 103.34375 78.386719 103.925781 78.003906 103.863281 C 75.832031 103.488281 74.1875 105.496094 72.28125 106.816406 C 72.539062 107.988281 72.757812 109.011719 72.976562 110.007812 C 71.433594 111.113281 70.1875 112.078125 69.070312 113.085938 C 69.125 113.613281 69.148438 113.886719 69.175781 114.152344 C 69.335938 116.335938 69.300781 116.394531 67.117188 117.476562 C 67.027344 117.519531 66.9375 117.527344 66.847656 117.574219 C 64.96875 118.566406 64.664062 119.308594 65.050781 121.085938 C 65.398438 122.558594 65.386719 124.101562 65.765625 126.046875 C 67.578125 126.042969 67.410156 127.945312 67.023438 130.070312 C 66.847656 131.019531 66.964844 131.953125 66.753906 132.886719 C 66.507812 133.976562 66.042969 135.070312 65.59375 136.453125 C 64.859375 135.996094 64.433594 135.734375 63.953125 135.433594 C 63.449219 136.054688 62.953125 136.667969 62.40625 137.34375 C 62.902344 138.371094 64.664062 138.171875 63.933594 140.003906 C 63.5 141.089844 62.679688 142.039062 62.023438 143.085938 C 61.398438 142.664062 60.96875 142.371094 60.449219 142.019531 C 60.039062 142.699219 59.699219 143.261719 59.355469 143.824219 C 60.074219 144.597656 61.496094 144.335938 60.953125 146.300781 C 60.464844 146.382812 59.941406 146.46875 59.425781 146.558594 C 59.28125 147.472656 59.160156 148.242188 59.039062 148.992188 C 57.925781 149.234375 56.957031 149.449219 56.058594 149.644531 C 54.605469 147.375 54.617188 147.347656 53.277344 148.203125 C 53.429688 149.480469 55.410156 149.148438 54.738281 151.324219 C 54.089844 151.640625 53.433594 151.964844 52.824219 152.265625 C 52.652344 155.953125 56.0625 152.523438 56.320312 154.855469 C 55.765625 156.078125 55.292969 157.125 54.847656 158.105469 C 55.558594 158.839844 56.101562 159.402344 56.804688 160.128906 C 55.859375 161.109375 55.21875 162.183594 54.855469 163.34375 C 54.570312 164.523438 54.558594 165.789062 54.785156 167.128906 C 52.699219 165.8125 52.484375 165.839844 51.285156 167.789062 C 52.171875 168.378906 53.058594 168.972656 54.027344 169.617188 C 53.011719 171.886719 51.96875 173.453125 50.242188 173.582031 C 49.953125 175.882812 49.539062 178.105469 51.148438 179.800781 C 50.359375 180.226562 49.875 180.484375 49.171875 180.863281 C 49.71875 181.308594 49.964844 181.582031 50.242188 181.714844 C 51.933594 182.546875 51.96875 182.53125 51.703125 184.90625 C 51.453125 187.414062 50.417969 189.917969 51.386719 192.5 C 51.480469 192.773438 51.265625 193.226562 51.195312 193.582031 C 50.390625 193.378906 50.09375 191.722656 49.136719 192.5 C 49.988281 194.667969 49.992188 194.65625 49.617188 196.304688 C 51.492188 196.496094 51.378906 198.425781 51.402344 200.09375 C 52.183594 200.46875 52.816406 200.769531 53.648438 201.167969 C 53.035156 203.636719 52.832031 205.949219 52.511719 208.484375 C 52.902344 209.128906 53.363281 209.882812 53.851562 210.6875 C 52.980469 212.554688 52.988281 214.59375 53.980469 216.628906 C 52.054688 217.578125 51.898438 217.640625 52.550781 219.890625 C 53.234375 222.1875 52.9375 224.847656 54.683594 226.804688 C 54.902344 230.546875 58.179688 233.027344 58.640625 236.832031 C 58.820312 238.25 60.242188 239.757812 61.042969 241.242188 C 61.644531 242.433594 62.394531 243.570312 62.949219 244.769531 C 63.59375 246.15625 64.0625 247.609375 64.664062 249.132812 C 64.261719 249.800781 63.8125 250.546875 63.273438 251.4375 C 64.308594 252.761719 65.324219 254.128906 66.425781 255.398438 C 67.6875 256.734375 68.722656 258.628906 70.660156 258.382812 C 70.980469 258.347656 71.894531 259.238281 72.128906 259.789062 C 72.546875 260.761719 72.992188 260.933594 73.800781 261.140625 C 74.957031 261.4375 75.269531 262.238281 74.773438 263.203125 C 74.511719 263.71875 74.207031 264.199219 73.808594 264.90625 C 76.128906 266.117188 77.820312 267.253906 77.570312 269.757812 C 78.492188 269.800781 79.152344 269.832031 79.671875 269.859375 C 80.738281 270.726562 79.925781 272.011719 81.453125 272.671875 C 83.222656 273.414062 83.898438 275.0625 84.410156 276.777344 C 85.820312 277.054688 87.265625 277.296875 87.996094 279.015625 C 87.992188 279.023438 87.984375 279.027344 87.980469 279.03125 C 87.984375 279.035156 87.992188 279.035156 87.996094 279.039062 C 88 279.023438 88.015625 278.992188 88.015625 278.992188 C 88.328125 279.578125 88.632812 280.144531 88.957031 280.753906 C 90.050781 282.859375 91.195312 284.9375 93.460938 286.523438 C 95.457031 287.941406 97.894531 289.289062 98.597656 291.824219 C 99.003906 291.867188 99.300781 291.960938 99.523438 291.914062 C 101.222656 291.570312 102.710938 292.132812 104.21875 292.875 C 105.75 293.578125 107.246094 294.542969 108.78125 295.171875 C 109.769531 297.445312 111.914062 297.660156 113.890625 298.105469 C 114.140625 298.160156 114.390625 298.582031 114.652344 298.828125 C 115.058594 299.242188 115.8125 299.636719 115.886719 299.96875 C 116.132812 301.15625 117.503906 301.160156 117.96875 301.15625 C 119.699219 301.136719 120.90625 302.121094 122.378906 302.785156 C 120.46875 304.464844 120.453125 304.460938 121.039062 305.730469 C 121.78125 305.617188 122.550781 305.234375 123.246094 305.433594 C 124.898438 305.894531 126.582031 306.515625 128.125 307.222656 C 129.4375 307.871094 130.472656 308.984375 131.65625 309.890625 C 132.96875 310.890625 131.234375 311.160156 131.445312 311.898438 C 131.523438 312.183594 131.566406 312.464844 131.671875 312.960938 C 132.457031 312.65625 132.976562 312.453125 133.660156 312.1875 C 133.394531 312.910156 133.195312 313.449219 132.917969 314.183594 C 134.125 314.582031 135.261719 315.167969 136.25 315.203125 C 137.183594 315.234375 137.949219 314.703125 138.960938 314.285156 C 139.40625 315.503906 139.824219 316.640625 140.363281 318.125 C 141.320312 317.210938 141.929688 316.625 142.421875 316.15625 C 144.410156 316.457031 146.191406 316.730469 148 317.003906 C 149.867188 317.257812 151.265625 318.542969 151.152344 319.902344 C 151.136719 320.285156 151.117188 320.667969 151.082031 321.414062 C 151.964844 320.945312 152.492188 320.75 152.839844 320.441406 C 153.183594 320.136719 153.34375 319.714844 153.621094 319.285156 C 154.273438 319.441406 154.773438 319.558594 155.265625 319.679688 C 155.378906 320.300781 155.492188 320.925781 155.609375 321.570312 C 157.644531 321.132812 159.617188 321.632812 161.136719 322.457031 C 162.726562 323.320312 163.777344 323.230469 164.878906 322.746094 C 165.199219 323.167969 165.441406 323.796875 165.878906 323.90625 C 166.710938 324.09375 167.164062 323.773438 166.96875 323.019531 C 166.632812 321.707031 167.789062 322.230469 168.84375 322.429688 C 168.5625 324.871094 170.375 326.46875 173.492188 327.5 C 176.242188 328.394531 179.027344 329.367188 181.847656 329.96875 C 182.007812 330.007812 182.238281 329.910156 182.503906 329.859375 C 182.351562 329.414062 182.195312 328.964844 182.007812 328.417969 C 183.039062 328.53125 183.816406 328.613281 184.589844 328.695312 C 185.625 330.308594 187.917969 330.167969 189.730469 330.582031 C 190.492188 329.769531 191.140625 329.078125 191.789062 328.390625 C 192.730469 328.535156 193.707031 328.664062 194.605469 328.851562 C 197.03125 329.367188 198.179688 329.144531 199.519531 327.660156 C 200.015625 327.109375 200.28125 326.464844 200.570312 325.984375 C 202.667969 325.894531 204.550781 325.875 206.402344 325.679688 C 208.90625 325.410156 209.171875 324.554688 207.421875 323.039062 C 206.570312 323.441406 208.316406 324.894531 205.941406 324.734375 C 205.1875 323.1875 204.921875 321.433594 203.421875 320.535156 C 198.773438 320.710938 194.582031 321.121094 190.398438 320.75 C 188.785156 320.65625 187.195312 320.238281 185.394531 319.914062 C 184.683594 321.289062 183.441406 319.246094 182.320312 319.773438 C 181.972656 320.265625 182.6875 321.433594 180.765625 321.097656 C 180.246094 320.40625 181.484375 319.101562 179.355469 318.875 C 178.378906 320.40625 178.515625 320.070312 176.523438 319.476562 C 174.722656 318.9375 175.488281 317.5 173.882812 317.078125 C 173.664062 317.5 173.429688 317.941406 173.164062 318.449219 C 171.933594 318.332031 170.746094 318.214844 169.402344 318.085938 C 169.96875 316.714844 169.042969 316 167.621094 315.476562 C 167.496094 315.921875 167.371094 316.363281 167.214844 316.902344 C 165.917969 316.679688 164.859375 316.300781 163.855469 316.054688 C 163.402344 315.304688 163 314.640625 162.324219 313.519531 C 161.914062 314.417969 161.714844 314.847656 161.59375 315.105469 C 160.960938 314.886719 160.34375 314.527344 159.742188 314.488281 C 156.554688 314.277344 156.535156 314.292969 156.109375 312.167969 C 155.277344 312.277344 154.441406 312.386719 153.804688 312.46875 C 152.691406 311.335938 151.753906 310.242188 150.921875 309.320312 C 149.964844 309.394531 149.335938 309.441406 148.488281 309.511719 C 148.484375 308.886719 148.480469 308.421875 148.476562 307.722656 C 147.375 307.871094 146.511719 307.984375 145.433594 308.125 C 146.054688 306.304688 144.269531 305.316406 142.367188 303.917969 C 144.179688 303.945312 145.523438 303.628906 146.464844 304.039062 C 147.359375 304.421875 148.070312 304.441406 148.890625 304.492188 C 150.605469 304.589844 152.3125 304.6875 154.171875 304.796875 C 154.378906 305.460938 154.609375 306.195312 154.8125 306.847656 C 157.109375 307.828125 158.453125 306.023438 160.542969 306.285156 C 160.5625 307.644531 161.203125 308.675781 163.214844 308.796875 C 163.53125 308.816406 163.832031 309.25 164.1875 309.339844 C 165.488281 309.65625 166.773438 310.140625 168.089844 310.390625 C 169.414062 310.621094 170.753906 310.734375 172.121094 310.519531 C 173.332031 310.328125 174.449219 310.351562 175.335938 311.167969 C 176.757812 312.46875 178.480469 312.730469 180.390625 312.328125 C 180.628906 312.285156 180.9375 312.363281 181.175781 312.378906 C 181.734375 312.929688 182.257812 313.445312 182.828125 314.007812 C 184.390625 313.804688 185.820312 313.574219 187.261719 313.425781 C 187.898438 313.359375 188.851562 313.257812 189.164062 313.519531 C 189.878906 314.113281 190.519531 314.207031 191.492188 314.132812 C 191.894531 314.101562 192.710938 314.691406 192.835938 315.078125 C 193.203125 316.179688 194.109375 316.347656 195.316406 316.128906 C 196.382812 315.972656 197.425781 315.820312 198.421875 315.675781 C 200.53125 317.5625 203.628906 317.902344 205.800781 316.515625 C 207.101562 315.707031 208.042969 314.398438 210.179688 315.007812 C 213.523438 313.589844 216.886719 314.011719 220.335938 314.175781 C 221.269531 314.238281 222.109375 314.28125 222.472656 315.019531 C 222.503906 315.082031 222.832031 315.035156 223.019531 315.042969 C 223.472656 314.628906 223.925781 314.21875 224.457031 313.734375 C 225.363281 314.195312 226.125 314.582031 226.890625 314.96875 C 229.535156 313.082031 230.3125 312.976562 233.535156 314.007812 C 234.0625 313.726562 234.601562 313.222656 235.050781 313.234375 C 236.378906 313.191406 237.675781 313.324219 239.445312 313.398438 C 240.375 312.328125 241.460938 311.082031 242.761719 309.585938 C 243.015625 309.566406 244.015625 309.269531 244.3125 309.5 C 245.96875 310.777344 247.875 309.53125 249.023438 308.753906 C 251.726562 307.070312 253.40625 304.6875 254.433594 302.1875 C 255.941406 303.039062 255.960938 303.082031 257.753906 302.484375 C 259.964844 301.792969 261.597656 302.148438 263.511719 302.859375 C 264.757812 301.136719 265.867188 299.566406 267.242188 297.554688 C 267.421875 298.324219 267.546875 298.527344 267.5 298.738281 C 267.117188 300.34375 268.929688 300.046875 269.859375 300.226562 C 270.917969 300.429688 271.449219 299.390625 271.871094 298.53125 C 272.441406 297.355469 273.148438 296.128906 273.6875 295.117188 C 276.53125 294.238281 276.523438 296.347656 277.761719 297.148438 C 280.296875 295.324219 282.164062 295.710938 283.65625 297.03125 C 283.972656 296.75 284.164062 296.628906 284.261719 296.484375 C 285.90625 294.082031 285.917969 291.3125 287.785156 288.8125 C 288.058594 288.441406 288 287.730469 287.789062 287.382812 C 287.207031 286.429688 287.589844 285.363281 288.433594 284.496094 C 289.789062 283.046875 291.144531 281.636719 292.441406 280.125 C 293.757812 278.644531 295.207031 277.28125 297.042969 276.214844 C 298.3125 275.472656 299.1875 275.171875 300.234375 275.871094 C 301.402344 276.660156 302.808594 275.71875 303.242188 274.054688 C 303.449219 273.113281 303.820312 272.164062 304.15625 271.070312 C 303.894531 270.449219 303.566406 269.671875 303.1875 268.78125 C 303.964844 268.242188 304.644531 267.496094 305.046875 267.53125 C 306.675781 267.667969 307.140625 266.523438 307.597656 265.273438 C 307.859375 264.566406 308.117188 263.871094 308.382812 263.152344 C 309.054688 262.941406 309.597656 262.710938 310.09375 262.585938 C 311.527344 262.25 312.328125 261.183594 312.273438 259.832031 C 312.195312 257.882812 313.09375 256.25 314.121094 254.640625 C 315.15625 253.039062 316.316406 251.457031 316.558594 249.617188 C 316.582031 249.433594 316.945312 249.109375 317.160156 249.039062 C 318.296875 248.664062 318.578125 247.496094 319.164062 246.566406 C 319.964844 245.296875 320.894531 244.101562 321.757812 242.855469 C 322.164062 242.269531 322.601562 241.691406 322.945312 241.0625 C 323.804688 239.203125 323.773438 238.796875 322.285156 238.328125 C 321.070312 237.941406 320.75 237.125 321.03125 235.648438 C 321.199219 234.777344 321.25 233.90625 321.414062 233.046875 C 321.828125 230.917969 321.613281 229.035156 321.078125 227.207031 C 320.847656 226.484375 320.660156 225.71875 320.421875 224.992188 C 321.203125 223.488281 321.988281 221.964844 322.804688 220.386719 C 322.640625 217.636719 322.703125 217.699219 323.996094 214.625 C 325.011719 211.671875 325.585938 208.769531 325.664062 206.074219 C 325.691406 204.726562 325.644531 203.433594 325.371094 202.203125 C 325.0625 200.964844 324.625 199.800781 324.058594 198.71875 " fill-opacity="1" fill-rule="nonzero"/></g><g clip-path="url(#74200bb765)"><path fill="#634e4e" d="M 199.34375 130.636719 C 200.726562 132.035156 202.148438 132.917969 203.878906 133.203125 C 204.089844 133.242188 204.257812 133.316406 204.351562 133.527344 C 205.648438 136.234375 208.171875 137.007812 210.804688 137.523438 C 212.6875 137.890625 214.601562 137.921875 216.488281 137.453125 C 219.296875 136.753906 221.140625 134.558594 221.1875 131.269531 C 221.214844 129.296875 221.664062 127.632812 222.640625 125.949219 C 224.882812 122.085938 222.785156 117.917969 219.964844 115.078125 C 217.390625 112.480469 215.210938 112.300781 210.839844 113.972656 C 210.984375 112.660156 211.671875 111.59375 212.136719 110.453125 C 212.914062 108.550781 212.175781 107.472656 210.105469 107.566406 C 208.964844 107.617188 207.984375 108.09375 207.136719 108.820312 C 206.488281 109.375 205.886719 109.980469 205.261719 110.5625 C 204.90625 110.886719 204.738281 110.863281 204.503906 110.355469 C 202.765625 106.613281 200.46875 103.242188 197.632812 100.230469 C 193.453125 95.792969 188.261719 94.214844 182.359375 94.972656 C 175.074219 95.910156 169.445312 99.523438 165.667969 105.882812 C 165.417969 106.3125 164.890625 106.980469 165.25 107.273438 C 165.722656 107.65625 166.078125 106.871094 166.441406 106.570312 C 167.355469 105.816406 168.277344 105.105469 169.394531 104.667969 C 172.335938 103.519531 175.003906 104.695312 176.023438 107.695312 C 176.4375 108.917969 176.652344 110.210938 176.941406 111.476562 C 178.117188 116.578125 181.152344 120.011719 186.183594 121.511719 C 191.730469 123.160156 197.359375 123.460938 203.035156 122.167969 C 203.65625 122.023438 204.296875 121.890625 204.957031 122.039062 C 204.902344 122.492188 204.503906 122.472656 204.238281 122.59375 C 200.082031 124.46875 195.859375 126.222656 191.246094 126.5 C 183.25 126.984375 175.734375 125.269531 168.945312 120.945312 C 166.261719 119.234375 164.398438 116.792969 164.015625 113.460938 C 163.964844 112.992188 163.882812 112.382812 163.324219 112.285156 C 162.710938 112.175781 162.585938 112.832031 162.375 113.230469 C 161.726562 114.457031 161.304688 115.765625 161.046875 117.167969 C 160.300781 115.824219 160.53125 113.722656 161.617188 112.453125 C 162.351562 111.589844 163.183594 110.804688 163.964844 109.980469 C 164.253906 109.671875 164.667969 109.4375 164.71875 108.96875 C 164.339844 108.671875 164.128906 108.957031 163.945312 109.128906 C 162.152344 110.859375 159.972656 112.328125 159.925781 115.222656 C 159.890625 117.328125 160.644531 119.207031 161.597656 121.007812 C 162.226562 122.1875 162.945312 123.320312 163.667969 124.445312 C 165.375 127.125 165.292969 128.054688 163.117188 130.308594 C 162.667969 130.773438 162.207031 131.246094 161.835938 131.773438 C 160.992188 132.960938 161.050781 133.992188 162.019531 135.089844 C 162.933594 136.125 163.917969 137.09375 164.832031 138.125 C 166.464844 139.960938 166.644531 142.050781 165.769531 144.265625 C 165.199219 145.695312 164.523438 147.089844 163.929688 148.507812 C 163.179688 150.300781 163.351562 151.992188 164.53125 153.566406 C 165.308594 154.597656 166.261719 155.519531 166.605469 156.832031 C 166.65625 157.03125 166.824219 157.199219 167.0625 157.117188 C 167.308594 157.03125 167.269531 156.800781 167.226562 156.605469 C 167.03125 155.703125 166.589844 154.914062 165.957031 154.277344 C 163.917969 152.226562 163.746094 149.988281 165.09375 147.503906 C 165.578125 146.617188 165.945312 145.664062 166.347656 144.734375 C 167.472656 142.132812 167.152344 139.734375 165.277344 137.589844 C 164.507812 136.707031 163.664062 135.878906 162.855469 135.019531 C 161.65625 133.742188 161.636719 132.964844 162.796875 131.644531 C 163.199219 131.1875 163.652344 130.777344 164.074219 130.339844 C 165.777344 128.566406 165.964844 127.113281 164.777344 124.945312 C 164.628906 124.671875 164.484375 124.398438 164.425781 124.054688 C 165.894531 125.46875 167.550781 126.691406 168.6875 128.421875 C 169.550781 129.75 169.34375 131.21875 169.125 132.679688 C 168.714844 135.386719 168.714844 135.386719 171.375 135.148438 C 172.785156 135.023438 172.996094 135.1875 173.023438 136.648438 C 173.039062 137.351562 173.191406 137.855469 174.019531 137.847656 C 174.214844 137.847656 174.566406 137.84375 174.539062 138.019531 C 174.3125 139.46875 175.300781 139.355469 176.21875 139.398438 C 176.5625 139.414062 176.589844 139.785156 176.722656 140.023438 C 178.191406 142.746094 180.085938 143.371094 182.882812 142.039062 C 183.804688 141.597656 184.6875 141.078125 185.414062 140.367188 C 185.957031 139.832031 186.179688 139.980469 186.546875 140.574219 C 189.246094 144.96875 188.816406 148.648438 185.132812 152.3125 C 182.871094 154.558594 180.183594 156.257812 177.707031 158.226562 C 173.226562 161.796875 168.792969 165.417969 164.714844 169.449219 C 163.527344 170.625 162.46875 171.917969 161.753906 173.445312 C 160.609375 175.875 160.578125 178.222656 162.40625 180.386719 C 162.554688 180.566406 162.6875 180.761719 162.886719 181.03125 C 162.164062 181.257812 161.511719 181.441406 160.878906 181.675781 C 159.8125 182.070312 159.328125 182.925781 159.136719 183.988281 C 159.097656 184.214844 159.054688 184.519531 159.371094 184.585938 C 159.699219 184.660156 159.785156 184.34375 159.820312 184.128906 C 160.109375 182.460938 161.363281 182.128906 162.757812 181.886719 C 163.410156 181.777344 163.914062 181.828125 164.417969 182.296875 C 164.921875 182.765625 165.503906 183.15625 166.222656 183.242188 C 167.019531 183.335938 167.625 183.003906 167.785156 182.222656 C 167.949219 181.410156 167.382812 181.066406 166.65625 180.953125 C 166.296875 180.898438 165.933594 180.859375 165.570312 180.820312 C 164.769531 180.738281 163.898438 181.195312 163.222656 180.300781 C 162.316406 179.109375 161.554688 177.90625 161.691406 176.324219 C 161.871094 174.1875 162.960938 172.496094 164.3125 170.945312 C 166.324219 168.644531 168.675781 166.703125 170.964844 164.695312 C 174.785156 161.34375 178.8125 158.257812 182.867188 155.199219 C 184.488281 153.972656 186.011719 152.632812 187.195312 150.953125 C 189.46875 147.738281 189.675781 144.445312 187.625 141.039062 C 186.621094 139.375 186.632812 139.359375 187.855469 137.800781 C 189.015625 136.320312 189.988281 134.734375 190.515625 132.914062 C 190.691406 132.289062 190.824219 131.648438 190.734375 130.988281 C 190.5 129.273438 189.136719 128.707031 187.742188 129.75 C 185.058594 131.757812 184.066406 134.964844 185.296875 138.101562 C 185.652344 139.011719 185.464844 139.492188 184.753906 140.019531 C 183.730469 140.769531 182.695312 141.46875 181.453125 141.800781 C 179.035156 142.4375 176.878906 140.539062 177.105469 138.046875 C 177.167969 137.363281 177.867188 136.503906 177.167969 136.03125 C 176.613281 135.65625 176.101562 136.566406 175.523438 136.824219 C 174.265625 137.398438 173.964844 137.253906 173.765625 135.886719 C 173.601562 134.777344 172.835938 134.3125 171.371094 134.433594 C 169.53125 134.585938 169.496094 134.578125 169.84375 132.71875 C 170.324219 130.164062 169.75 128.007812 167.765625 126.226562 C 166.410156 125.007812 165.222656 123.59375 163.863281 122.378906 C 161.777344 120.515625 161.40625 118.277344 162.15625 115.730469 C 162.390625 114.933594 162.71875 114.160156 163.128906 113.03125 C 163.546875 114.476562 163.667969 115.597656 164.175781 116.605469 C 165.570312 119.359375 167.730469 121.375 170.441406 122.707031 C 180.078125 127.449219 189.984375 129.105469 200.316406 124.988281 C 200.417969 124.949219 200.542969 124.964844 200.992188 124.917969 C 199.023438 126.460938 198.644531 128.386719 198.613281 130.480469 C 198.574219 133.109375 199.449219 135.300781 201.390625 137.109375 C 203.710938 139.261719 206.144531 141.296875 208.25 143.679688 C 209.570312 145.171875 210.898438 146.691406 211.808594 148.457031 C 213.867188 152.441406 216.890625 155.683594 219.777344 159.027344 C 223.570312 163.421875 227.789062 167.4375 231.269531 172.105469 C 233.070312 174.515625 234.824219 176.972656 235.695312 179.902344 C 237.226562 185.035156 235.550781 188.535156 230.601562 190.554688 C 227.554688 191.800781 224.414062 192.769531 221.253906 193.675781 C 216.761719 194.964844 212.152344 195.746094 207.609375 196.820312 C 206.46875 197.09375 205.351562 197.480469 204.242188 197.863281 C 203.078125 198.257812 202.742188 199.109375 203 200.277344 C 203.246094 201.378906 203.8125 202.308594 204.496094 203.171875 C 205.097656 203.933594 205.46875 204.730469 205.425781 205.730469 C 205.382812 206.800781 205.867188 207.683594 206.5625 208.472656 C 207.394531 209.414062 208.234375 210.355469 209.011719 211.34375 C 209.476562 211.9375 209.933594 212.574219 209.972656 213.292969 C 209.027344 212.441406 208.058594 211.519531 207.027344 210.679688 C 206.539062 210.28125 206.011719 209.214844 205.476562 209.730469 C 204.992188 210.203125 206.078125 210.65625 206.46875 211.082031 C 208.097656 212.847656 209.570312 214.734375 211.046875 216.621094 C 211.476562 217.171875 211.710938 217.796875 211.804688 218.710938 C 209.984375 217.203125 208.316406 215.820312 206.648438 214.445312 C 205.929688 213.851562 205.207031 213.257812 204.460938 212.699219 C 204.246094 212.535156 203.992188 212.058594 203.671875 212.449219 C 203.386719 212.800781 203.808594 213.03125 204.035156 213.21875 C 205.753906 214.648438 207.5 216.039062 209.199219 217.488281 C 210.03125 218.199219 210.785156 219.003906 211.5625 219.773438 C 211.730469 219.941406 211.976562 220.140625 211.773438 220.382812 C 211.675781 220.492188 211.394531 220.492188 211.203125 220.472656 C 210.964844 220.441406 210.71875 220.375 210.507812 220.261719 C 206.066406 217.96875 201.625 215.648438 198.449219 211.601562 C 195.773438 208.191406 193.871094 204.417969 193.183594 200.101562 C 192.632812 196.675781 193.847656 194.066406 196.824219 192.265625 C 198.710938 191.125 200.75 190.320312 202.8125 189.578125 C 207.125 188.019531 210.964844 185.765625 214.003906 182.269531 C 214.082031 182.175781 214.175781 182.09375 214.261719 182.011719 C 216.78125 179.535156 216.78125 179.535156 219.96875 180.878906 C 221.359375 181.460938 222.777344 181.949219 224.28125 182.15625 C 225 182.25 225.839844 182.390625 226.238281 181.59375 C 226.65625 180.753906 226.082031 180.070312 225.5 179.582031 C 223.449219 177.859375 221.042969 177.59375 218.621094 178.445312 C 217.386719 178.878906 216.511719 178.589844 215.585938 177.957031 C 214.078125 176.929688 213.089844 175.542969 212.785156 173.710938 C 212.601562 172.59375 212.457031 171.460938 212.039062 170.390625 C 211.210938 168.28125 208 167.148438 206.042969 168.277344 C 205.90625 168.355469 205.75 168.429688 205.796875 168.640625 C 205.847656 168.847656 206.027344 168.859375 206.175781 168.851562 C 206.664062 168.824219 207.148438 168.777344 207.632812 168.730469 C 210.070312 168.484375 211.042969 169.164062 211.652344 171.558594 C 211.753906 171.953125 211.855469 172.347656 211.902344 172.75 C 212.121094 174.746094 212.78125 176.535156 214.382812 177.84375 C 214.289062 177.960938 214.238281 178.070312 214.199219 178.066406 C 209.421875 177.628906 205.714844 179.878906 202.390625 182.898438 C 197.410156 187.421875 193.28125 192.613281 190.765625 198.925781 C 189.710938 201.578125 189.171875 204.375 189.09375 207.246094 C 188.996094 210.617188 188.550781 213.960938 188.273438 217.320312 C 188.214844 218.019531 187.894531 218.957031 188.671875 219.328125 C 189.539062 219.742188 190.167969 218.945312 190.730469 218.378906 C 191.824219 217.277344 192.136719 215.851562 192.253906 214.371094 C 192.304688 213.722656 192.28125 213.070312 192.320312 212.425781 C 192.417969 210.863281 193.273438 210.269531 194.792969 210.71875 C 196.035156 211.085938 197.003906 211.910156 197.953125 212.738281 C 201.304688 215.660156 204.945312 218.15625 208.863281 220.25 C 209.433594 220.554688 210.023438 220.84375 210.632812 221.054688 C 211.945312 221.507812 212.4375 221.230469 212.882812 219.847656 C 213.390625 220.144531 213.496094 220.691406 213.609375 221.160156 C 214.601562 225.15625 216.582031 228.679688 218.648438 232.183594 C 220.160156 234.746094 221.421875 237.445312 221.699219 240.460938 C 222.367188 247.785156 220.996094 254.535156 215.941406 260.199219 C 214.75 261.53125 213.589844 262.886719 212.433594 264.25 C 211.535156 265.308594 210.835938 266.5 210.222656 267.742188 C 210.113281 267.960938 209.988281 268.238281 210.226562 268.410156 C 210.488281 268.597656 210.691406 268.355469 210.789062 268.140625 C 212.449219 264.617188 215.582031 262.214844 217.726562 259.074219 C 223.40625 250.746094 224.367188 241.996094 219.800781 232.851562 C 218.875 231.007812 217.78125 229.238281 216.71875 227.460938 C 216.042969 226.332031 215.617188 225.109375 215.253906 223.867188 C 214.359375 220.800781 213.003906 217.957031 211.253906 215.292969 C 211.082031 215.023438 210.800781 214.789062 210.863281 214.429688 C 211.175781 212.691406 210.171875 211.503906 209.15625 210.316406 C 208.601562 209.671875 208.054688 209.019531 207.460938 208.402344 C 206.550781 207.449219 205.964844 206.398438 206.078125 205.023438 C 206.140625 204.242188 205.714844 203.636719 205.277344 203.035156 C 204.675781 202.21875 204.089844 201.398438 203.757812 200.417969 C 203.421875 199.417969 203.699219 198.8125 204.710938 198.429688 C 207.382812 197.414062 210.1875 196.945312 212.972656 196.382812 C 218.671875 195.230469 224.257812 193.695312 229.707031 191.660156 C 230.390625 191.40625 231.0625 191.121094 231.71875 190.796875 C 236.265625 188.5625 237.828125 185.035156 236.488281 180.128906 C 235.777344 177.542969 234.382812 175.308594 232.871094 173.136719 C 229.9375 168.917969 226.378906 165.238281 222.902344 161.484375 C 220.167969 158.535156 217.597656 155.445312 215.050781 152.335938 C 214.566406 151.742188 214.101562 151.105469 213.75 150.425781 C 211.488281 146.023438 208.285156 142.394531 204.621094 139.125 C 203.378906 138.019531 202.183594 136.855469 201.039062 135.652344 C 199.789062 134.316406 199.339844 132.679688 199.34375 130.636719 Z M 203.84375 113.203125 C 204.003906 113.261719 204.160156 113.316406 204.320312 113.375 C 204.378906 113.222656 204.441406 113.070312 204.496094 112.914062 C 205.164062 110.992188 206.824219 109.992188 208.320312 108.851562 C 208.90625 108.40625 209.621094 108.167969 210.375 108.195312 C 211.648438 108.238281 212.03125 108.820312 211.554688 109.992188 C 210.921875 111.570312 210.1875 113.117188 209.785156 114.78125 C 209.722656 115.035156 209.671875 115.300781 209.253906 115.296875 C 208.054688 115.285156 207.707031 116.230469 207.457031 117.125 C 206.964844 118.875 207.179688 120.621094 207.996094 122.214844 C 208.472656 123.140625 208.269531 123.730469 207.664062 124.460938 C 205.855469 126.640625 204.285156 128.953125 204.164062 131.921875 C 204.132812 132.597656 203.757812 132.507812 203.34375 132.355469 C 201.71875 131.753906 200.050781 131.097656 199.636719 129.191406 C 199.253906 127.402344 200.488281 126.257812 201.679688 125.175781 C 201.886719 124.984375 202.117188 124.808594 202.363281 124.671875 C 203.351562 124.109375 204.351562 123.582031 205.332031 123.007812 C 205.730469 122.773438 206.367188 122.605469 206.246094 122.015625 C 206.109375 121.335938 205.441406 121.3125 204.871094 121.28125 C 203.882812 121.230469 202.925781 121.453125 201.980469 121.652344 C 196.648438 122.769531 191.390625 122.394531 186.226562 120.796875 C 181.566406 119.347656 178.75 116.136719 177.644531 111.394531 C 177.339844 110.089844 177.128906 108.753906 176.695312 107.496094 C 175.476562 103.980469 172.246094 102.640625 168.855469 104.171875 C 168.253906 104.441406 167.679688 104.773438 167.027344 105.109375 C 167.074219 104.929688 167.070312 104.84375 167.109375 104.785156 C 167.265625 104.546875 167.417969 104.304688 167.597656 104.085938 C 170.890625 100.011719 175.003906 97.128906 180.15625 96.035156 C 185.375 94.929688 190.441406 95.261719 194.871094 98.6875 C 197.902344 101.03125 200.164062 104.042969 202.09375 107.316406 C 203.15625 109.121094 204.554688 110.816406 203.84375 113.203125 Z M 220.460938 129.289062 C 220.664062 130.175781 220.621094 130.871094 220.527344 131.550781 C 220.117188 134.597656 218.691406 136.351562 216.121094 136.835938 C 213.214844 137.390625 210.378906 137.09375 207.675781 135.824219 C 206.789062 135.410156 205.984375 134.863281 205.421875 134.023438 C 205.09375 133.527344 204.953125 133.199219 205.65625 132.792969 C 208.394531 131.214844 209.75 128.722656 209.667969 125.632812 C 209.625 123.972656 209.949219 122.578125 210.761719 121.171875 C 211.617188 119.695312 211.910156 118.046875 210.847656 116.5625 C 210.125 115.558594 210.65625 115.117188 211.347656 114.632812 C 213.535156 113.074219 216.578125 113.1875 218.742188 114.875 C 220.355469 116.132812 221.371094 117.820312 222.230469 119.640625 C 223.625 122.597656 222.546875 125.09375 220.871094 127.664062 C 220.519531 126.976562 220.269531 126.429688 219.96875 125.910156 C 219.21875 124.59375 218.324219 123.390625 216.953125 122.644531 C 215.652344 121.9375 214.855469 122.125 214.054688 123.339844 C 212.960938 124.996094 212.304688 126.8125 212.109375 128.789062 C 211.875 131.148438 212.617188 131.839844 214.976562 131.46875 C 216.917969 131.164062 218.722656 130.488281 220.460938 129.289062 Z M 195.46875 192.074219 C 197.742188 188.492188 200.472656 185.308594 203.746094 182.621094 C 205.570312 181.125 207.519531 179.796875 209.84375 179.167969 C 211.988281 178.589844 214.113281 178.652344 216.597656 179.265625 C 214.949219 180.199219 213.914062 181.289062 212.902344 182.390625 C 210.429688 185.070312 207.445312 186.949219 204.074219 188.292969 C 201.179688 189.445312 198.1875 190.382812 195.46875 192.074219 Z M 192.367188 197.148438 C 192.085938 199.652344 192.738281 201.984375 193.550781 204.292969 C 194.355469 206.585938 195.523438 208.695312 196.84375 210.761719 C 196.507812 210.6875 196.234375 210.539062 195.960938 210.402344 C 193.242188 209.066406 191.640625 210.03125 191.601562 213.042969 C 191.589844 214.179688 191.550781 215.316406 191.144531 216.398438 C 190.757812 217.433594 190.15625 218.273438 188.789062 218.785156 C 190.019531 211.402344 188.917969 203.917969 192.367188 197.148438 Z M 212.761719 129.640625 C 212.878906 127.457031 213.445312 125.621094 214.480469 123.933594 C 215.191406 122.769531 215.8125 122.625 216.953125 123.414062 C 218.402344 124.417969 219.238281 125.882812 219.976562 127.4375 C 220.320312 128.160156 220.191406 128.636719 219.515625 129.0625 C 217.875 130.097656 216.101562 130.691406 214.167969 130.847656 C 213.121094 130.933594 212.640625 130.503906 212.761719 129.640625 Z M 186.363281 138.460938 C 184.796875 135.925781 185.378906 132.863281 187.816406 130.664062 C 188.277344 130.25 188.757812 129.621094 189.472656 130.019531 C 190.191406 130.417969 190.117188 131.171875 190 131.867188 C 189.550781 134.476562 188.105469 136.527344 186.363281 138.460938 Z M 208.75 124.332031 C 209.425781 127.25 207.964844 130.730469 205.703125 131.984375 C 205.5 132.097656 205.222656 132.246094 205.042969 132.183594 C 204.691406 132.0625 204.839844 131.699219 204.882812 131.441406 C 205.347656 128.699219 206.777344 126.492188 208.75 124.332031 Z M 218.171875 179.265625 C 220.804688 178.410156 222.957031 178.523438 224.941406 179.984375 C 225.324219 180.269531 225.78125 180.703125 225.597656 181.1875 C 225.382812 181.757812 224.75 181.511719 224.3125 181.445312 C 222.246094 181.136719 220.371094 180.285156 218.171875 179.265625 Z M 209.96875 116.625 C 211.195312 118.085938 210.960938 120.234375 209.46875 121.660156 C 209.304688 119.949219 209.390625 118.328125 209.96875 116.625 Z M 209.414062 115.917969 C 208.761719 117.921875 208.542969 119.824219 208.667969 121.765625 C 207.457031 119.328125 207.722656 116.871094 209.414062 115.917969 Z M 164.828125 181.542969 C 165.707031 181.550781 166.4375 181.34375 167.023438 181.921875 C 167.203125 182.09375 167.011719 182.332031 166.832031 182.386719 C 166.070312 182.617188 165.4375 182.398438 164.828125 181.542969 Z M 170.078125 186.328125 C 167.617188 186.328125 165.152344 186.328125 162.695312 186.328125 C 161.230469 186.328125 159.765625 186.363281 158.339844 186.726562 C 156.269531 187.253906 155.582031 188.5625 156.488281 190.464844 C 156.964844 191.464844 157.136719 192.332031 156.554688 193.328125 C 156.34375 193.699219 156.285156 194.179688 156.25 194.617188 C 156.15625 195.828125 156.671875 196.367188 157.875 196.3125 C 158.519531 196.28125 159.152344 196.164062 159.855469 196.078125 C 159.875 196.707031 159.4375 196.992188 159.085938 197.257812 C 152.746094 201.984375 150.582031 208.851562 149.6875 216.210938 C 148.304688 227.554688 153.632812 235.796875 162.320312 242.339844 C 164.140625 243.710938 166.136719 244.824219 168.132812 245.894531 C 169.566406 246.664062 171.257812 246.703125 172.878906 246.828125 C 173.074219 246.84375 173.261719 246.878906 173.390625 246.898438 C 173.535156 247.171875 173.410156 247.296875 173.308594 247.40625 C 168.289062 252.613281 164.179688 258.480469 160.605469 264.75 C 157.953125 269.402344 155.203125 274.003906 152.503906 278.625 C 152.300781 278.972656 152.089844 279.328125 151.925781 279.695312 C 151.824219 279.929688 151.539062 280.242188 151.871094 280.453125 C 152.320312 280.734375 152.40625 280.238281 152.539062 280.003906 C 154.101562 277.292969 155.570312 274.535156 157.203125 271.871094 C 160.828125 265.960938 164.007812 259.765625 168.316406 254.285156 C 170.101562 252.019531 172.023438 249.871094 173.960938 247.738281 C 174.5 247.148438 175.058594 246.890625 175.84375 246.851562 C 179.40625 246.664062 182.835938 245.898438 186.035156 244.273438 C 187.53125 243.511719 188.910156 242.574219 189.792969 241.085938 C 190.351562 240.144531 190.734375 239.109375 190.082031 238.101562 C 189.460938 237.136719 188.386719 237.066406 187.347656 237.164062 C 185.734375 237.3125 184.3125 238.007812 182.960938 238.855469 C 180.1875 240.59375 177.855469 242.859375 175.550781 245.152344 C 174.746094 245.953125 173.957031 246.226562 172.773438 246.183594 C 169.738281 246.0625 167.257812 244.691406 164.808594 243.152344 C 158.761719 239.347656 154.046875 234.398438 151.546875 227.597656 C 149.21875 221.265625 149.984375 214.976562 152.042969 208.742188 C 152.703125 206.734375 153.632812 204.839844 154.6875 203.003906 C 155.652344 201.328125 156.847656 199.886719 158.417969 198.726562 C 159.410156 197.996094 160.519531 197.304688 160.855469 195.953125 C 160.933594 195.628906 161.304688 195.648438 161.566406 195.574219 C 162.738281 195.238281 163.914062 194.929688 165.078125 194.5625 C 165.714844 194.363281 166.5625 194.238281 166.527344 193.339844 C 166.488281 192.359375 165.558594 192.578125 164.570312 192.332031 C 166.195312 192.015625 167.46875 191.769531 168.742188 191.511719 C 169.140625 191.433594 169.535156 191.347656 169.917969 191.222656 C 170.355469 191.078125 170.796875 190.84375 170.75 190.3125 C 170.710938 189.8125 170.3125 189.570312 169.828125 189.484375 C 169.4375 189.414062 169.050781 189.324219 168.664062 189.097656 C 169.074219 189.074219 169.492188 189.070312 169.902344 189.023438 C 170.480469 188.957031 171.242188 189.167969 171.441406 188.382812 C 171.636719 187.632812 170.789062 187.589844 170.410156 187.195312 C 170.789062 186.90625 171.519531 187.261719 171.605469 186.632812 C 171.691406 185.972656 171.058594 185.785156 170.589844 185.582031 C 168.96875 184.898438 167.222656 184.710938 165.507812 184.382812 C 164.550781 184.203125 163.597656 184.015625 162.628906 183.886719 C 162.285156 183.835938 161.707031 183.402344 161.601562 183.996094 C 161.492188 184.613281 162.207031 184.503906 162.59375 184.574219 C 164.148438 184.859375 165.71875 185.089844 167.273438 185.363281 C 168.222656 185.539062 169.183594 185.703125 170.078125 186.328125 Z M 165.648438 193.417969 C 163.078125 194.382812 160.507812 195.3125 157.765625 195.59375 C 157.132812 195.664062 156.917969 195.246094 156.929688 194.671875 C 156.941406 194.125 157.148438 193.636719 157.394531 193.171875 C 157.863281 192.308594 157.789062 191.503906 157.339844 190.632812 C 156.285156 188.597656 156.761719 187.675781 159.074219 187.296875 C 161.699219 186.867188 164.335938 186.917969 166.960938 187.273438 C 168.128906 187.429688 169.328125 187.519531 170.484375 188.015625 C 170.199219 188.433594 169.890625 188.316406 169.632812 188.335938 C 167.566406 188.492188 165.503906 188.605469 163.441406 188.792969 C 162.851562 188.84375 161.859375 188.675781 161.890625 189.527344 C 161.925781 190.429688 162.890625 190.105469 163.476562 190.101562 C 164.976562 190.09375 166.480469 190 167.984375 189.976562 C 168.613281 189.964844 169.285156 189.875 169.84375 190.355469 C 169.425781 190.890625 168.796875 190.765625 168.265625 190.875 C 166.035156 191.324219 163.808594 191.765625 161.628906 192.410156 C 161.214844 192.53125 160.613281 192.585938 160.707031 193.171875 C 160.816406 193.851562 161.453125 193.632812 161.910156 193.621094 C 162.230469 193.617188 162.546875 193.507812 162.871094 193.472656 C 163.78125 193.382812 164.675781 193.046875 165.648438 193.417969 Z M 175.527344 246.203125 C 176.257812 245.472656 176.722656 244.976562 177.21875 244.515625 C 179.507812 242.402344 181.714844 240.175781 184.550781 238.765625 C 185.679688 238.210938 186.839844 237.703125 188.148438 237.835938 C 189.53125 237.972656 189.972656 238.695312 189.507812 240.019531 C 189.132812 241.09375 188.394531 241.90625 187.492188 242.542969 C 184 245.003906 180.007812 245.859375 175.527344 246.203125 Z M 175.527344 246.203125 " fill-opacity="1" fill-rule="nonzero"/></g></svg>