<svg xmlns="http://www.w3.org/2000/svg" xmlns:xlink="http://www.w3.org/1999/xlink" width="500" zoomAndPan="magnify" viewBox="0 0 375 374.999991" height="500" preserveAspectRatio="xMidYMid meet" version="1.0"><defs><clipPath id="c302d75f17"><path d="M 49.136719 44.410156 L 325.808594 44.410156 L 325.808594 330.582031 L 49.136719 330.582031 Z M 49.136719 44.410156 " clip-rule="nonzero"/></clipPath><clipPath id="e24578d2ec"><path d="M 115 106 L 258 106 L 258 269.566406 L 115 269.566406 Z M 115 106 " clip-rule="nonzero"/></clipPath></defs><g clip-path="url(#c302d75f17)"><path fill="#f1edee" d="M 283.578125 290.511719 C 282.949219 291.140625 282.054688 291.527344 281.242188 291.894531 C 280.917969 292.03125 280.484375 291.792969 280.097656 291.726562 C 280.292969 291.355469 280.378906 290.882812 280.695312 290.636719 C 281.589844 289.960938 282.535156 289.320312 283.507812 288.511719 C 284.363281 288.941406 284.503906 289.640625 283.578125 290.511719 Z M 283.988281 294.3125 L 283.292969 294.324219 L 283.675781 293.347656 L 284.117188 293.324219 Z M 221.253906 312.695312 C 222.195312 312.347656 222.789062 312.125 223.726562 311.777344 C 223.3125 312.894531 222.640625 313.0625 221.253906 312.695312 Z M 201.875 314.996094 L 201.574219 314.554688 L 203.160156 313.902344 L 203.539062 314.375 Z M 195.523438 314.292969 L 195.511719 313.976562 L 197.179688 313.855469 L 197.195312 314.230469 Z M 133.460938 301.308594 C 134.152344 301.355469 134.839844 301.402344 135.765625 301.460938 C 135.136719 302.609375 134.296875 302.207031 133.460938 301.308594 Z M 132.558594 299.902344 C 132.40625 300.128906 131.667969 300.171875 131.230469 300.058594 C 131 300 130.855469 299.453125 130.59375 298.960938 C 131.25 298.875 131.730469 298.808594 132.207031 298.746094 C 132.34375 299.144531 132.71875 299.667969 132.558594 299.902344 Z M 88.015625 278.992188 Z M 76.554688 112.183594 C 76.734375 112.539062 76.882812 112.839844 77.03125 113.136719 C 76.792969 114.183594 76.523438 115.191406 76.34375 116.253906 C 74.371094 115.710938 74.261719 114.960938 76.554688 112.183594 Z M 75.964844 118.726562 C 76.257812 118.597656 76.699219 118.289062 76.8125 118.386719 C 76.980469 118.527344 76.992188 118.871094 77.039062 119.164062 L 76.226562 119.894531 Z M 130.5625 68.046875 C 132.8125 65.835938 135.824219 64.550781 138.984375 63.835938 C 140.136719 63.578125 140.683594 64.125 140.746094 64.890625 C 140.871094 66.359375 139.929688 67.640625 138.792969 68.929688 C 138.136719 69.699219 137.339844 69.632812 136.820312 69.097656 C 136.449219 68.707031 136.289062 68.179688 135.949219 67.769531 C 135.3125 67 135.285156 67.011719 132.894531 67.675781 C 132.71875 68.890625 132.5625 69.960938 132.40625 71.035156 C 131.40625 71.65625 130.5625 71.609375 130.113281 70.949219 C 129.519531 70.09375 129.519531 69.09375 130.5625 68.046875 Z M 147.933594 60.75 L 148.277344 61.246094 L 145.929688 62.445312 L 145.613281 62.074219 Z M 157.4375 319.621094 C 156.515625 319.617188 155.933594 319.613281 155.363281 319.609375 C 155.585938 318.929688 156.089844 318.753906 157.4375 319.621094 Z M 186.117188 328.078125 C 185.441406 328.316406 185.007812 328.46875 184.570312 328.621094 C 184.167969 328.089844 183.75 327.542969 183.058594 326.640625 C 184.308594 327.226562 185.101562 327.597656 186.117188 328.078125 Z M 190.765625 327.960938 L 191.632812 328.324219 L 190.613281 328.34375 Z M 70.242188 127.265625 C 68.742188 125.925781 69.039062 123.667969 68.789062 121.765625 C 68.75 121.464844 69.589844 120.746094 69.996094 120.257812 C 71.488281 121.121094 69.882812 122.765625 70.09375 123.8125 C 70.304688 124.84375 71.210938 125.542969 70.242188 127.265625 Z M 67.46875 131.246094 L 67.507812 130.507812 C 67.945312 130.441406 68.386719 130.359375 68.820312 130.332031 C 68.863281 130.332031 68.847656 130.660156 68.855469 130.835938 Z M 324.058594 198.71875 C 324.628906 194.195312 325.457031 189.777344 325.097656 185.339844 C 324.972656 182.683594 324.523438 180.234375 325.859375 178.144531 C 325.003906 177.394531 324.261719 176.878906 323.546875 176.320312 C 323.515625 175.621094 323.359375 174.941406 323.476562 174.578125 C 324.140625 172.488281 323.800781 170.1875 323.136719 167.800781 C 322.902344 167 322.75 166.109375 322.65625 165.296875 C 322.105469 161.660156 320.636719 158.734375 318.96875 156.015625 C 319.046875 155.695312 319.089844 155.328125 319.078125 154.882812 C 319.066406 154.371094 319.277344 153.789062 319.5 153.414062 C 319.882812 152.8125 319.785156 152.421875 319.277344 151.746094 C 318.605469 150.855469 319.140625 150.300781 319.8125 150.222656 C 320.417969 150.15625 321.136719 150.578125 321.753906 150.539062 C 322.359375 150.5 322.863281 150 323.46875 149.945312 C 325.152344 149.800781 325.988281 148.964844 325.46875 147.027344 C 324.90625 144.910156 324.550781 142.242188 321.996094 141.957031 C 321.8125 141.253906 321.628906 140.554688 321.445312 139.867188 C 321.21875 139.199219 320.996094 138.542969 320.773438 137.890625 C 320.320312 136.59375 319.847656 135.316406 319.316406 134.058594 C 318.765625 132.757812 318.128906 131.488281 317.460938 130.230469 C 316.804688 128.960938 316.089844 127.734375 315.28125 126.566406 C 313.730469 124.1875 312.230469 121.796875 311.113281 119.171875 C 311.039062 118.992188 310.921875 118.765625 310.777344 118.667969 C 308.902344 117.320312 307.769531 115.589844 306.898438 113.589844 C 307.226562 113.230469 307.554688 112.871094 307.867188 112.53125 C 305.84375 110.101562 305.875 110.113281 304.667969 107.027344 C 304.25 105.964844 304.28125 105.179688 305.085938 104.75 C 305.867188 104.339844 306.753906 103.636719 305.960938 102.5625 C 305.101562 101.375 304.261719 99.65625 302.488281 99.457031 C 302.394531 100.121094 302.328125 100.574219 302.261719 101.03125 L 301.792969 100.910156 C 301.523438 100.152344 301.253906 99.394531 301 98.667969 C 300.136719 98.269531 299.335938 97.902344 298.597656 97.5625 C 298.394531 96.703125 298.226562 96.015625 298.175781 95.804688 C 296.300781 94.515625 294.722656 93.296875 293.410156 91.910156 C 292.101562 90.523438 291.03125 89.007812 290.011719 87.363281 C 288.777344 87.339844 287.457031 87.585938 286.003906 86.351562 C 287.058594 85.859375 287.972656 85.433594 289.261719 84.828125 C 288.113281 84.5625 287.511719 84.382812 286.550781 84.214844 C 286.449219 83.667969 286.460938 83.152344 286.226562 82.65625 C 285.988281 82.164062 285.597656 81.578125 285.105469 81.253906 C 284.640625 80.941406 283.964844 80.941406 283.390625 80.761719 C 283.238281 80.714844 283.066406 80.503906 282.957031 80.351562 C 280.394531 76.828125 276.730469 74.070312 272.636719 71.984375 C 271.515625 71.371094 270.390625 70.761719 269.277344 70.15625 C 270.535156 67.675781 269.574219 65.945312 265.851562 64.417969 C 264.042969 63.761719 262.710938 62.964844 261.890625 61.488281 C 261.542969 60.859375 260.628906 60.179688 259.808594 59.75 C 258.316406 58.96875 256.710938 58.34375 255.136719 57.699219 C 252.199219 56.507812 249.148438 55.175781 246.042969 55.765625 C 245.792969 55.816406 245.386719 55.703125 245.089844 55.59375 C 242.242188 54.550781 239.453125 53.273438 236.480469 52.621094 C 233.984375 52.003906 231.503906 51.273438 228.992188 50.675781 C 227.734375 50.378906 226.472656 50.117188 225.199219 49.917969 C 223.929688 49.734375 222.632812 49.714844 221.335938 49.742188 C 221.164062 49.746094 220.960938 49.59375 220.570312 49.429688 C 222.214844 48.796875 224.761719 49.484375 226.015625 48.078125 C 223.726562 46.824219 221.175781 46.035156 218.660156 46.148438 C 215.238281 46.367188 211.808594 45.40625 208.457031 45.90625 C 207.507812 46.058594 206.292969 45.605469 205.210938 45.398438 C 204.125 45.1875 203.066406 44.902344 201.976562 44.707031 C 198.105469 44.042969 194.347656 44.632812 190.585938 45.148438 C 188.042969 45.433594 185.523438 46.28125 183.074219 46.242188 C 181.308594 46.226562 179.660156 46.414062 178.089844 46.8125 C 176.511719 47.246094 175.007812 47.789062 173.5 48.304688 C 171.140625 49.109375 168.832031 49.558594 166.375 49.859375 C 163.609375 50.132812 160.890625 50.828125 158.160156 51.40625 C 156.863281 51.707031 155.566406 52.007812 153.964844 52.375 C 152.988281 50.253906 150.484375 51.171875 148.121094 51.601562 C 144.902344 52.328125 144.894531 54.027344 144.710938 55.625 C 143.417969 55.714844 142.375 55.789062 141.234375 55.867188 C 140.6875 56.894531 140.46875 58.304688 139.71875 58.585938 C 137.632812 59.386719 137.492188 60.667969 136.855469 61.757812 C 135.753906 62.070312 134.835938 62.40625 134.070312 62.652344 C 132.933594 62.347656 131.9375 62.078125 131.351562 61.921875 C 129.867188 63.378906 128.777344 64.449219 127.945312 65.269531 C 127.480469 67.320312 127.097656 69.1875 126.757812 70.988281 C 125.902344 71.230469 125.316406 71.398438 124.589844 71.675781 C 125.035156 72.839844 125.605469 73.835938 125.792969 74.949219 C 125.945312 75.847656 125.667969 76.890625 125.527344 77.871094 C 125.507812 77.996094 125.054688 78.167969 124.863281 78.28125 C 122.839844 76.808594 119.257812 76.976562 118.679688 74.4375 C 120.28125 73.238281 122.191406 71.949219 123.964844 70.527344 C 125.699219 69.167969 125.695312 68.464844 124 67.683594 C 122.25 66.902344 119.121094 68.03125 117.722656 69.933594 C 115.949219 72.402344 114.289062 74.65625 110.59375 75.410156 C 110.183594 75.503906 109.445312 76.027344 109.371094 76.3125 C 109 77.671875 107.683594 78.472656 106.558594 79.335938 C 107.648438 80.8125 108.964844 80.691406 111.050781 79.011719 C 112.277344 78 113.449219 76.929688 114.816406 76.125 C 116.21875 75.253906 117.445312 75.386719 118.054688 76.367188 C 118.644531 77.3125 119.175781 78.289062 119.675781 79.28125 C 120.332031 80.601562 120.007812 82.355469 118.820312 82.847656 C 117.257812 83.4375 115.503906 84.390625 114.136719 84.351562 C 112.046875 84.296875 110.511719 85.195312 108.828125 86.273438 C 109.253906 87.175781 109.621094 87.953125 110.152344 89.082031 C 108.082031 88.835938 106.742188 88.5 106.292969 87.113281 C 106.070312 86.414062 105.679688 85.886719 104.253906 86.6875 C 105.050781 87.976562 105.8125 89.210938 106.585938 90.464844 C 103.457031 92.109375 103.464844 92.160156 101.75 90.574219 C 101.273438 90.136719 100.808594 90.027344 99.921875 91.117188 C 100.652344 92.105469 101.429688 93.164062 102.226562 94.246094 C 101.867188 96.128906 99.714844 96.449219 98.46875 97.144531 C 96.972656 97.96875 95.007812 97.808594 93.507812 98.175781 C 94.164062 99.554688 94.871094 101.03125 95.570312 102.5 C 94.847656 103.203125 94.226562 103.816406 93.640625 104.386719 C 93.152344 104.285156 92.765625 104.207031 92.367188 104.125 C 91.886719 105.109375 91.472656 105.945312 91.089844 106.722656 C 90.007812 106.976562 89.0625 107.195312 87.960938 107.453125 C 88.140625 108.855469 89.945312 109.578125 88.125 111.300781 C 87.289062 111.527344 86.453125 111.757812 85.535156 112.007812 C 86.828125 114.699219 86.828125 114.699219 83.371094 116.238281 C 81.351562 116.070312 83.160156 113.980469 82.421875 112.882812 C 81.914062 113.5 81.445312 113.957031 81.121094 114.476562 C 80.445312 115.585938 79.855469 116.714844 79.242188 117.84375 C 78.734375 118.898438 78.042969 119.394531 77.121094 119.148438 C 77.871094 117.792969 78.105469 116.542969 77.617188 115.378906 C 77.316406 114.695312 77.234375 113.859375 77.070312 113.082031 C 77.851562 110.695312 78.160156 108.140625 81.003906 106.308594 C 81.800781 105.804688 82.703125 104.269531 82.203125 103.207031 C 81.746094 102.246094 80.667969 102.527344 79.617188 103.074219 C 79.070312 103.34375 78.386719 103.925781 78.003906 103.863281 C 75.832031 103.488281 74.1875 105.496094 72.28125 106.816406 C 72.539062 107.988281 72.757812 109.011719 72.976562 110.007812 C 71.433594 111.113281 70.1875 112.078125 69.070312 113.085938 C 69.125 113.613281 69.148438 113.886719 69.175781 114.152344 C 69.335938 116.335938 69.300781 116.394531 67.117188 117.476562 C 67.027344 117.519531 66.9375 117.527344 66.847656 117.578125 C 64.96875 118.566406 64.664062 119.308594 65.050781 121.085938 C 65.398438 122.558594 65.386719 124.101562 65.765625 126.046875 C 67.578125 126.042969 67.410156 127.945312 67.023438 130.070312 C 66.847656 131.019531 66.964844 131.953125 66.753906 132.886719 C 66.507812 133.976562 66.042969 135.070312 65.59375 136.453125 C 64.859375 135.996094 64.433594 135.734375 63.953125 135.433594 C 63.449219 136.054688 62.953125 136.667969 62.40625 137.34375 C 62.902344 138.371094 64.664062 138.171875 63.933594 140.003906 C 63.5 141.089844 62.679688 142.039062 62.023438 143.085938 C 61.398438 142.664062 60.96875 142.371094 60.449219 142.019531 C 60.039062 142.699219 59.699219 143.261719 59.355469 143.824219 C 60.074219 144.597656 61.496094 144.335938 60.953125 146.300781 C 60.464844 146.382812 59.941406 146.46875 59.425781 146.558594 C 59.28125 147.472656 59.160156 148.242188 59.039062 148.992188 C 57.925781 149.234375 56.957031 149.449219 56.058594 149.644531 C 54.605469 147.375 54.617188 147.347656 53.277344 148.203125 C 53.429688 149.480469 55.410156 149.148438 54.738281 151.324219 C 54.089844 151.640625 53.433594 151.964844 52.824219 152.265625 C 52.652344 155.953125 56.0625 152.523438 56.320312 154.855469 C 55.765625 156.078125 55.292969 157.125 54.847656 158.105469 C 55.558594 158.839844 56.101562 159.402344 56.804688 160.132812 C 55.859375 161.109375 55.21875 162.183594 54.855469 163.34375 C 54.570312 164.523438 54.558594 165.789062 54.785156 167.132812 C 52.699219 165.8125 52.484375 165.839844 51.285156 167.789062 C 52.171875 168.378906 53.058594 168.972656 54.027344 169.617188 C 53.011719 171.886719 51.96875 173.453125 50.242188 173.582031 C 49.953125 175.882812 49.539062 178.105469 51.148438 179.800781 C 50.359375 180.226562 49.875 180.484375 49.171875 180.863281 C 49.71875 181.308594 49.964844 181.582031 50.242188 181.714844 C 51.933594 182.546875 51.96875 182.53125 51.703125 184.90625 C 51.453125 187.414062 50.417969 189.917969 51.386719 192.5 C 51.480469 192.773438 51.265625 193.226562 51.195312 193.582031 C 50.390625 193.378906 50.09375 191.722656 49.136719 192.5 C 49.988281 194.667969 49.992188 194.65625 49.617188 196.304688 C 51.492188 196.496094 51.378906 198.425781 51.402344 200.09375 C 52.183594 200.46875 52.816406 200.769531 53.648438 201.167969 C 53.035156 203.636719 52.832031 205.949219 52.511719 208.484375 C 52.902344 209.128906 53.363281 209.882812 53.851562 210.6875 C 52.980469 212.554688 52.988281 214.59375 53.980469 216.628906 C 52.054688 217.578125 51.898438 217.640625 52.550781 219.890625 C 53.234375 222.1875 52.9375 224.847656 54.683594 226.804688 C 54.902344 230.546875 58.179688 233.027344 58.640625 236.832031 C 58.820312 238.25 60.242188 239.757812 61.042969 241.242188 C 61.644531 242.433594 62.394531 243.570312 62.949219 244.769531 C 63.59375 246.15625 64.0625 247.609375 64.664062 249.132812 C 64.261719 249.800781 63.8125 250.546875 63.273438 251.4375 C 64.308594 252.761719 65.324219 254.128906 66.425781 255.398438 C 67.6875 256.734375 68.722656 258.628906 70.660156 258.382812 C 70.980469 258.347656 71.894531 259.242188 72.128906 259.789062 C 72.546875 260.761719 72.992188 260.933594 73.800781 261.140625 C 74.957031 261.4375 75.269531 262.238281 74.773438 263.203125 C 74.511719 263.71875 74.207031 264.199219 73.808594 264.90625 C 76.128906 266.117188 77.820312 267.253906 77.570312 269.757812 C 78.492188 269.800781 79.152344 269.832031 79.671875 269.859375 C 80.738281 270.726562 79.925781 272.011719 81.453125 272.671875 C 83.222656 273.414062 83.898438 275.0625 84.410156 276.777344 C 85.820312 277.058594 87.265625 277.296875 87.996094 279.015625 C 87.992188 279.023438 87.984375 279.027344 87.980469 279.03125 C 87.984375 279.035156 87.992188 279.035156 87.996094 279.039062 C 88 279.023438 88.015625 278.992188 88.015625 278.992188 C 88.328125 279.578125 88.632812 280.144531 88.957031 280.753906 C 90.050781 282.859375 91.195312 284.9375 93.460938 286.523438 C 95.457031 287.941406 97.894531 289.289062 98.597656 291.824219 C 99.003906 291.867188 99.300781 291.960938 99.523438 291.914062 C 101.222656 291.570312 102.710938 292.132812 104.21875 292.875 C 105.75 293.578125 107.246094 294.542969 108.78125 295.171875 C 109.769531 297.445312 111.914062 297.660156 113.890625 298.105469 C 114.140625 298.160156 114.390625 298.582031 114.652344 298.828125 C 115.058594 299.242188 115.8125 299.636719 115.886719 299.96875 C 116.132812 301.15625 117.503906 301.160156 117.96875 301.15625 C 119.699219 301.136719 120.90625 302.121094 122.378906 302.785156 C 120.46875 304.464844 120.453125 304.460938 121.039062 305.730469 C 121.78125 305.617188 122.550781 305.234375 123.246094 305.433594 C 124.898438 305.894531 126.582031 306.515625 128.125 307.222656 C 129.4375 307.871094 130.472656 308.984375 131.65625 309.890625 C 132.96875 310.890625 131.234375 311.160156 131.445312 311.898438 C 131.523438 312.183594 131.566406 312.464844 131.671875 312.960938 C 132.457031 312.65625 132.976562 312.453125 133.660156 312.1875 C 133.394531 312.910156 133.195312 313.449219 132.917969 314.183594 C 134.125 314.582031 135.261719 315.167969 136.25 315.203125 C 137.183594 315.234375 137.949219 314.703125 138.960938 314.285156 C 139.40625 315.503906 139.824219 316.640625 140.363281 318.125 C 141.320312 317.210938 141.929688 316.625 142.421875 316.15625 C 144.410156 316.457031 146.191406 316.730469 148 317.003906 C 149.867188 317.257812 151.265625 318.542969 151.152344 319.902344 C 151.136719 320.285156 151.117188 320.667969 151.082031 321.414062 C 151.964844 320.945312 152.492188 320.75 152.839844 320.441406 C 153.183594 320.136719 153.34375 319.714844 153.621094 319.285156 C 154.273438 319.441406 154.773438 319.558594 155.265625 319.679688 C 155.378906 320.300781 155.492188 320.925781 155.609375 321.570312 C 157.644531 321.132812 159.617188 321.632812 161.136719 322.457031 C 162.726562 323.320312 163.777344 323.230469 164.878906 322.746094 C 165.199219 323.167969 165.441406 323.796875 165.878906 323.90625 C 166.710938 324.09375 167.164062 323.773438 166.96875 323.019531 C 166.632812 321.707031 167.789062 322.230469 168.84375 322.429688 C 168.5625 324.871094 170.375 326.46875 173.492188 327.5 C 176.242188 328.394531 179.027344 329.367188 181.847656 329.96875 C 182.007812 330.007812 182.238281 329.910156 182.503906 329.859375 C 182.351562 329.414062 182.195312 328.964844 182.007812 328.417969 C 183.039062 328.53125 183.816406 328.613281 184.589844 328.699219 C 185.625 330.308594 187.917969 330.167969 189.730469 330.582031 C 190.492188 329.769531 191.140625 329.078125 191.789062 328.390625 C 192.730469 328.535156 193.707031 328.664062 194.605469 328.851562 C 197.03125 329.367188 198.179688 329.144531 199.519531 327.660156 C 200.015625 327.109375 200.28125 326.464844 200.570312 325.984375 C 202.667969 325.894531 204.550781 325.875 206.402344 325.679688 C 208.90625 325.410156 209.171875 324.554688 207.421875 323.039062 C 206.570312 323.441406 208.316406 324.894531 205.941406 324.734375 C 205.1875 323.1875 204.921875 321.433594 203.421875 320.535156 C 198.773438 320.710938 194.582031 321.121094 190.398438 320.75 C 188.785156 320.65625 187.195312 320.238281 185.394531 319.914062 C 184.683594 321.289062 183.441406 319.246094 182.320312 319.773438 C 181.972656 320.265625 182.6875 321.433594 180.765625 321.097656 C 180.246094 320.40625 181.484375 319.101562 179.355469 318.875 C 178.378906 320.40625 178.515625 320.070312 176.523438 319.476562 C 174.722656 318.9375 175.488281 317.5 173.882812 317.078125 C 173.664062 317.5 173.429688 317.941406 173.164062 318.449219 C 171.933594 318.332031 170.746094 318.214844 169.402344 318.085938 C 169.96875 316.714844 169.042969 316 167.621094 315.476562 C 167.496094 315.921875 167.371094 316.363281 167.214844 316.902344 C 165.917969 316.679688 164.859375 316.300781 163.855469 316.054688 C 163.402344 315.304688 163 314.640625 162.324219 313.519531 C 161.914062 314.417969 161.714844 314.847656 161.59375 315.105469 C 160.960938 314.886719 160.34375 314.527344 159.742188 314.488281 C 156.554688 314.277344 156.535156 314.292969 156.109375 312.167969 C 155.277344 312.277344 154.441406 312.386719 153.804688 312.46875 C 152.691406 311.335938 151.753906 310.242188 150.921875 309.320312 C 149.964844 309.394531 149.335938 309.441406 148.488281 309.511719 C 148.484375 308.886719 148.480469 308.421875 148.476562 307.722656 C 147.375 307.871094 146.511719 307.984375 145.433594 308.125 C 146.054688 306.304688 144.269531 305.320312 142.367188 303.917969 C 144.179688 303.945312 145.523438 303.628906 146.464844 304.039062 C 147.359375 304.421875 148.070312 304.441406 148.890625 304.492188 C 150.605469 304.589844 152.3125 304.6875 154.171875 304.796875 C 154.378906 305.460938 154.609375 306.195312 154.8125 306.847656 C 157.109375 307.828125 158.453125 306.023438 160.542969 306.285156 C 160.5625 307.644531 161.203125 308.675781 163.214844 308.796875 C 163.53125 308.816406 163.832031 309.25 164.1875 309.339844 C 165.488281 309.65625 166.773438 310.140625 168.089844 310.390625 C 169.414062 310.621094 170.753906 310.734375 172.121094 310.519531 C 173.332031 310.328125 174.449219 310.351562 175.335938 311.167969 C 176.757812 312.46875 178.480469 312.730469 180.390625 312.328125 C 180.628906 312.285156 180.9375 312.363281 181.175781 312.378906 C 181.734375 312.929688 182.257812 313.445312 182.828125 314.007812 C 184.390625 313.804688 185.820312 313.574219 187.261719 313.425781 C 187.898438 313.359375 188.851562 313.257812 189.164062 313.519531 C 189.878906 314.113281 190.519531 314.207031 191.492188 314.132812 C 191.894531 314.101562 192.710938 314.691406 192.835938 315.078125 C 193.203125 316.179688 194.109375 316.347656 195.316406 316.128906 C 196.382812 315.972656 197.425781 315.820312 198.421875 315.675781 C 200.53125 317.5625 203.628906 317.902344 205.800781 316.515625 C 207.101562 315.707031 208.042969 314.398438 210.179688 315.007812 C 213.523438 313.589844 216.886719 314.011719 220.335938 314.175781 C 221.269531 314.238281 222.109375 314.28125 222.472656 315.019531 C 222.503906 315.082031 222.832031 315.035156 223.019531 315.042969 C 223.472656 314.628906 223.925781 314.21875 224.457031 313.734375 C 225.363281 314.195312 226.125 314.582031 226.890625 314.96875 C 229.535156 313.082031 230.3125 312.976562 233.535156 314.007812 C 234.0625 313.726562 234.601562 313.222656 235.050781 313.234375 C 236.378906 313.191406 237.675781 313.324219 239.445312 313.398438 C 240.375 312.328125 241.460938 311.082031 242.761719 309.585938 C 243.015625 309.566406 244.015625 309.269531 244.3125 309.5 C 245.96875 310.777344 247.875 309.53125 249.023438 308.753906 C 251.726562 307.070312 253.40625 304.6875 254.433594 302.1875 C 255.941406 303.039062 255.960938 303.082031 257.753906 302.484375 C 259.964844 301.792969 261.597656 302.148438 263.511719 302.859375 C 264.757812 301.136719 265.867188 299.566406 267.242188 297.554688 C 267.421875 298.324219 267.546875 298.527344 267.5 298.738281 C 267.117188 300.34375 268.929688 300.046875 269.859375 300.226562 C 270.917969 300.429688 271.449219 299.390625 271.871094 298.53125 C 272.441406 297.355469 273.148438 296.128906 273.6875 295.117188 C 276.53125 294.238281 276.523438 296.347656 277.761719 297.148438 C 280.296875 295.324219 282.164062 295.710938 283.65625 297.03125 C 283.972656 296.75 284.164062 296.628906 284.261719 296.484375 C 285.90625 294.082031 285.917969 291.3125 287.785156 288.8125 C 288.058594 288.441406 288 287.730469 287.789062 287.382812 C 287.207031 286.429688 287.589844 285.363281 288.433594 284.496094 C 289.789062 283.046875 291.144531 281.636719 292.441406 280.125 C 293.757812 278.644531 295.207031 277.28125 297.042969 276.214844 C 298.3125 275.472656 299.1875 275.171875 300.234375 275.871094 C 301.402344 276.660156 302.808594 275.71875 303.242188 274.054688 C 303.449219 273.113281 303.820312 272.164062 304.15625 271.070312 C 303.894531 270.449219 303.566406 269.671875 303.1875 268.78125 C 303.964844 268.242188 304.644531 267.496094 305.046875 267.53125 C 306.675781 267.667969 307.140625 266.523438 307.597656 265.273438 C 307.859375 264.566406 308.117188 263.871094 308.382812 263.152344 C 309.054688 262.941406 309.597656 262.710938 310.09375 262.585938 C 311.527344 262.25 312.328125 261.183594 312.273438 259.832031 C 312.195312 257.882812 313.09375 256.25 314.121094 254.640625 C 315.15625 253.039062 316.316406 251.457031 316.558594 249.617188 C 316.582031 249.433594 316.945312 249.109375 317.160156 249.039062 C 318.296875 248.664062 318.578125 247.496094 319.164062 246.566406 C 319.964844 245.296875 320.894531 244.101562 321.757812 242.855469 C 322.164062 242.269531 322.601562 241.691406 322.945312 241.0625 C 323.804688 239.203125 323.773438 238.796875 322.285156 238.328125 C 321.070312 237.941406 320.75 237.125 321.03125 235.648438 C 321.199219 234.777344 321.25 233.90625 321.414062 233.046875 C 321.828125 230.917969 321.613281 229.035156 321.078125 227.207031 C 320.847656 226.484375 320.660156 225.71875 320.421875 224.992188 C 321.203125 223.488281 321.988281 221.964844 322.804688 220.386719 C 322.640625 217.636719 322.703125 217.699219 323.996094 214.625 C 325.011719 211.671875 325.585938 208.769531 325.664062 206.074219 C 325.691406 204.726562 325.644531 203.433594 325.371094 202.203125 C 325.0625 200.964844 324.625 199.800781 324.058594 198.71875 " fill-opacity="1" fill-rule="nonzero"/></g><g clip-path="url(#e24578d2ec)"><path fill="#634e4e" d="M 254.355469 139.640625 C 248.125 127.402344 237.445312 126.289062 231.289062 127.253906 C 228.375 127.710938 225.515625 129.152344 222.945312 131.144531 C 220.902344 124.796875 217.359375 116.15625 213.859375 113.460938 C 209.335938 109.972656 200.363281 105.300781 188.941406 107.082031 C 187.421875 107.316406 185.957031 107.816406 184.554688 108.433594 C 179.144531 110.820312 174.464844 114.917969 170.410156 119.144531 C 168.417969 121.21875 166.539062 123.410156 164.832031 125.726562 C 162.589844 128.773438 160.894531 132.4375 159.925781 136.082031 C 159.277344 138.523438 158.65625 140.976562 158.144531 143.453125 C 157.15625 148.238281 156.183594 153.671875 157.570312 158.476562 C 158.390625 161.320312 159.386719 163.324219 160.550781 164.785156 C 160.199219 164.558594 159.800781 164.335938 159.347656 164.113281 C 155.984375 162.472656 152.066406 161.832031 148.71875 161.78125 C 149.226562 159.890625 149.691406 157.324219 150.078125 153.65625 C 151.117188 143.792969 151.042969 140.824219 148.296875 136.449219 C 145.554688 132.074219 139.472656 132.074219 137.25 136.746094 C 135.023438 141.417969 134.355469 144.683594 134.578125 146.019531 C 134.800781 147.351562 134.800781 147.351562 134.800781 147.351562 C 134.800781 147.351562 132.796875 144.980469 129.089844 144.535156 C 125.382812 144.089844 123.230469 143.570312 121.230469 145.574219 C 119.226562 147.574219 118.855469 151.433594 121.007812 154.324219 C 123.15625 157.214844 127.382812 159.8125 130.425781 160.480469 C 133.464844 161.148438 136.730469 160.628906 137.398438 160.257812 C 137.398438 160.257812 130.425781 160.777344 125.53125 157.511719 C 120.636719 154.25 119.226562 150.097656 121.007812 146.980469 C 122.785156 143.867188 126.199219 144.460938 128.496094 145.128906 C 130.796875 145.796875 132.722656 145.5 134.28125 147.5 C 135.839844 149.503906 135.914062 151.0625 136.582031 151.65625 C 137.25 152.246094 137.25 151.804688 136.878906 150.46875 C 136.507812 149.132812 135.542969 148.6875 135.46875 146.242188 C 135.394531 143.792969 135.914062 139.714844 137.839844 137.339844 C 139.769531 134.96875 142.441406 133.113281 145.332031 135.265625 C 148.222656 137.414062 149.484375 140.828125 149.78125 144.757812 C 150.066406 148.507812 149.199219 156.898438 147.574219 161.789062 C 145.226562 161.851562 143.261719 162.203125 142.144531 162.707031 C 139.324219 163.964844 136.878906 165.078125 134.726562 166.265625 C 132.574219 167.453125 128.644531 170.34375 127.234375 171.679688 C 125.828125 173.015625 123.898438 176.722656 123.453125 178.355469 C 123.042969 179.859375 122.371094 182.882812 122.3125 184.5 C 122.296875 183.464844 122.300781 182.429688 122.339844 181.394531 C 122.414062 179.46875 123.378906 177.019531 120.933594 176.648438 C 118.484375 176.277344 117.371094 179.6875 116.703125 183.546875 C 116.035156 187.402344 114.394531 193.78125 116.105469 199.269531 C 117.792969 204.683594 120.417969 209.222656 123.515625 213.925781 C 124.429688 215.316406 125.683594 216.5625 126.699219 217.890625 C 128.078125 219.699219 129.503906 221.542969 130.648438 223.519531 C 131.464844 224.929688 133.09375 227.230469 133.09375 227.230469 C 133.09375 227.230469 132.5 225.078125 129.015625 220.183594 C 125.53125 215.289062 120.339844 206.832031 118.929688 204.089844 C 117.519531 201.34375 116.183594 196.894531 116.109375 193.484375 C 116.035156 190.070312 116.851562 184.585938 117.667969 181.914062 C 118.039062 180.695312 118.625 179.304688 119.464844 178.335938 C 120.015625 177.703125 120.992188 177.3125 121.496094 178.222656 C 121.894531 178.9375 121.574219 179.570312 121.515625 180.296875 C 121.367188 182.109375 121.507812 183.886719 121.597656 185.695312 C 121.894531 191.480469 122.191406 197.488281 125.011719 200.679688 C 126.675781 202.558594 128.398438 204.445312 130.363281 206.03125 C 131.902344 207.277344 136.484375 209.988281 136.359375 205.945312 C 136.285156 203.570312 135.320312 199.492188 135.171875 196.523438 C 135.023438 193.558594 135.914062 191.109375 137.171875 190.21875 C 138.433594 189.332031 139.324219 188.738281 139.398438 190.664062 C 139.449219 191.96875 139.585938 193.53125 139.84375 194.800781 C 140.078125 195.964844 140.726562 197.125 141.03125 198.304688 C 141.699219 200.898438 144.070312 208.316406 144.21875 213.285156 C 144.367188 218.253906 145.183594 221.964844 146.519531 224.335938 C 147.851562 226.710938 150.375 230.863281 153.191406 233.976562 C 156.011719 237.09375 160.460938 242.433594 171.511719 247.699219 C 182.5625 252.964844 191.164062 255.261719 194.949219 257.191406 C 196.75 258.109375 198.570312 259.015625 200.222656 260.003906 C 200.6875 262.113281 201.460938 265.152344 202.289062 266.535156 C 203.625 268.761719 205.035156 269.652344 206.589844 269.28125 C 208.148438 268.910156 208.59375 267.054688 205.996094 263.792969 C 204.675781 262.128906 203.019531 260.734375 201.03125 259.484375 C 200.773438 257.988281 200.535156 256.425781 200.214844 254.890625 C 199.101562 249.625 197.765625 237.683594 198.136719 233.679688 C 198.457031 230.234375 199.488281 224.214844 201.046875 219.957031 C 202.640625 220.957031 204.121094 221.84375 205.480469 222.554688 C 209.855469 224.855469 216.53125 228.042969 222.089844 227.597656 C 224.246094 227.425781 226.410156 227.226562 228.527344 226.765625 C 234.425781 225.476562 239.5 220.832031 240.410156 214.769531 C 241.078125 210.320312 240.410156 211.800781 240.410156 211.800781 C 240.410156 211.800781 239.074219 218.699219 236.183594 221.371094 C 233.289062 224.039062 228.765625 225.375 225.652344 225.894531 C 222.535156 226.414062 216.332031 227.078125 208.445312 222.628906 C 206.246094 221.390625 203.917969 220.003906 201.59375 218.589844 C 201.675781 218.402344 201.757812 218.210938 201.84375 218.03125 C 203.847656 213.878906 211.410156 202.085938 214.082031 197.785156 C 216.75 193.484375 219.570312 188.886719 221.054688 184.136719 C 222.535156 179.390625 224.390625 172.125 221.644531 165.96875 C 218.902344 159.8125 215.195312 157.144531 213.042969 156.550781 C 212.960938 156.527344 212.875 156.507812 212.792969 156.488281 C 212.941406 155.421875 212.976562 154.261719 212.808594 153.015625 C 213.75 153.085938 214.632812 153.105469 215.417969 153.0625 C 219.570312 152.839844 223.722656 151.136719 225.058594 148.019531 C 226.394531 144.90625 225.652344 141.492188 224.316406 135.933594 C 224.0625 134.878906 223.691406 133.542969 223.230469 132.046875 C 225.738281 129.832031 228.390625 128.722656 233.289062 128.070312 C 241.671875 126.957031 250.050781 133.78125 253.09375 139.714844 C 256.132812 145.648438 257.246094 150.988281 254.574219 157.367188 C 251.90625 163.742188 246.195312 166.265625 241.597656 167.675781 C 237.4375 168.949219 232.253906 169.308594 229.378906 168.101562 C 229.449219 167.507812 229.539062 166.832031 229.65625 166.042969 C 230.25 162.039062 230.324219 157.511719 227.875 156.996094 C 225.429688 156.476562 222.832031 160.40625 224.613281 164.261719 C 225.625 166.457031 226.472656 168.050781 228.367188 168.949219 C 228.15625 171.058594 228.078125 173.480469 228.765625 174.941406 C 229.878906 177.316406 230.769531 178.875 233.882812 179.242188 C 237 179.613281 240.1875 179.984375 240.707031 179.242188 C 240.707031 179.242188 236.109375 178.871094 233.808594 178.28125 C 231.511719 177.6875 229.730469 175.90625 229.433594 173.535156 C 229.238281 171.972656 229.140625 170.953125 229.265625 169.296875 C 230.625 169.722656 232.441406 169.878906 234.996094 169.75 C 242.339844 169.378906 248.125 167.082031 251.609375 163.296875 C 255.09375 159.515625 260.582031 151.878906 254.355469 139.640625 Z M 204.8125 263.71875 C 207.035156 266.460938 208.222656 269.648438 204.8125 267.722656 C 202.652344 266.5 201.832031 263.792969 201.238281 260.636719 C 202.632812 261.554688 203.871094 262.554688 204.8125 263.71875 Z M 158.3125 154.175781 C 157.648438 146.078125 161.957031 132.078125 166.171875 125.621094 C 168.238281 122.460938 171.003906 119.699219 173.828125 117.210938 C 177.320312 114.132812 181.199219 111.351562 185.46875 109.457031 C 186.671875 108.921875 187.925781 108.507812 189.207031 108.199219 C 192.949219 107.296875 196.835938 107.667969 200.582031 108.519531 C 204.625 109.4375 208.738281 110.800781 212.058594 113.359375 C 213.882812 114.761719 215.394531 116.53125 216.457031 118.578125 C 218.382812 122.292969 220.585938 127.046875 222.21875 131.726562 C 219.664062 133.859375 217.433594 136.519531 215.789062 139.269531 C 214.171875 141.972656 212.558594 145.105469 210.996094 147.929688 C 210.703125 147.421875 210.378906 146.910156 210.003906 146.386719 C 206.371094 141.34375 201.179688 140.75 199.621094 142.902344 C 198.0625 145.054688 197.839844 148.242188 201.03125 150.023438 C 202.71875 150.964844 205.488281 151.820312 208.339844 152.386719 C 207.554688 153.554688 206.796875 154.507812 206.074219 155.140625 C 203.179688 157.660156 200.882812 160.480469 192.722656 163.816406 C 184.566406 167.15625 175.21875 169.824219 168.398438 168.195312 C 161.574219 166.5625 158.976562 162.273438 158.3125 154.175781 Z M 210.992188 149.511719 C 211.378906 150.34375 211.683594 151.175781 211.894531 151.9375 C 211.214844 151.878906 210.535156 151.804688 209.867188 151.707031 C 210.28125 150.972656 210.640625 150.246094 210.992188 149.511719 Z M 208.882812 151.546875 C 207.011719 151.222656 205.257812 150.757812 203.847656 150.246094 C 199.351562 148.609375 198.507812 146.019531 200.214844 143.71875 C 201.917969 141.417969 204.738281 142.878906 207.703125 145.128906 C 208.859375 146.003906 209.832031 147.308594 210.574219 148.683594 C 210.003906 149.703125 209.4375 150.671875 208.882812 151.546875 Z M 165.949219 189.171875 C 166.285156 188.875 166.730469 188.613281 167.160156 188.484375 C 167.371094 188.417969 167.589844 188.414062 167.804688 188.359375 C 168.535156 188.171875 169.253906 188.167969 169.984375 188.023438 C 170.398438 187.945312 170.742188 187.867188 171.140625 187.726562 C 171.496094 187.605469 171.84375 187.472656 172.1875 187.308594 C 172.910156 186.96875 173.398438 186.246094 173.632812 185.496094 C 173.734375 185.164062 173.875 184.636719 173.683594 184.292969 C 173.421875 183.828125 172.742188 184.144531 172.4375 184.390625 C 171.914062 184.808594 171.371094 185.105469 170.945312 185.648438 C 170.90625 185.695312 170.167969 186.597656 170.488281 186.648438 C 171.015625 186.734375 171.554688 186.109375 171.875 185.777344 C 172.03125 185.613281 173.039062 184.597656 172.996094 185.148438 C 172.96875 185.5 172.683594 185.707031 172.429688 185.902344 C 172.175781 186.097656 171.984375 186.308594 171.691406 186.460938 C 171.039062 186.796875 170.316406 186.949219 169.617188 187.148438 C 169.25 187.253906 168.890625 187.246094 168.527344 187.359375 C 168.109375 187.492188 167.675781 187.566406 167.261719 187.703125 C 166.953125 187.804688 166.492188 187.9375 166.371094 188.28125 C 166.355469 188.042969 166.402344 187.738281 166.53125 187.535156 C 166.675781 187.308594 166.945312 187.164062 167.132812 186.976562 C 167.398438 186.707031 167.726562 186.488281 168.003906 186.214844 C 168.234375 185.980469 168.492188 185.738281 168.75 185.527344 C 169.484375 184.925781 170.183594 184.296875 170.902344 183.675781 C 171.285156 183.34375 171.640625 182.96875 171.921875 182.542969 C 172.0625 182.332031 172.167969 182.121094 172.25 181.882812 C 172.289062 181.765625 172.5 181.414062 172.503906 181.320312 C 172.964844 181.878906 173.488281 182.351562 173.980469 182.875 C 174.367188 183.285156 174.773438 183.507812 175.246094 183.816406 C 175.625 184.066406 175.996094 184.175781 176.433594 184.238281 C 176.804688 184.289062 177.289062 184.199219 177.644531 184.335938 C 178.476562 184.65625 178.714844 185.539062 178.558594 186.363281 C 178.539062 186.464844 178.496094 186.5625 178.441406 186.65625 C 178.304688 186.554688 178.160156 186.464844 178.003906 186.421875 C 177.234375 186.207031 175.636719 186.300781 175.285156 187.167969 C 175.09375 187.648438 175.152344 188.222656 175.414062 188.664062 C 175.863281 189.417969 176.710938 189.433594 177.339844 188.902344 C 177.644531 188.648438 178.082031 188.398438 178.3125 188.070312 C 178.449219 187.871094 178.554688 187.625 178.648438 187.378906 C 178.84375 187.621094 179.007812 187.898438 179.179688 188.132812 C 179.5625 188.660156 179.839844 189.261719 179.964844 189.917969 C 179.757812 190.011719 179.570312 190.289062 179.347656 190.789062 C 178.8125 192.003906 178.734375 193.441406 178.78125 194.742188 C 178.78125 194.800781 178.785156 194.855469 178.785156 194.910156 C 178.785156 195.078125 178.789062 195.246094 178.8125 195.414062 C 178.867188 196.425781 179.003906 197.375 179.546875 198.304688 C 179.894531 198.894531 180.089844 199.761719 179.671875 200.703125 C 179.25 201.640625 178.730469 202.28125 176.605469 203.320312 C 175.21875 204 173.636719 203.96875 172.132812 204.007812 C 170.328125 204.050781 168.804688 203.589844 167.058594 203.171875 C 165.070312 202.695312 163.050781 202.070312 161.003906 201.945312 C 159.941406 201.878906 158.875 201.941406 157.816406 202.046875 C 156.921875 202.136719 155.78125 202.484375 154.921875 202.394531 C 153.335938 202.230469 151.285156 201.671875 149.78125 200.007812 C 149 199.140625 148.664062 198.34375 148.636719 197.628906 C 148.78125 197.605469 148.9375 197.582031 149.117188 197.5625 C 150.96875 197.339844 153.9375 197.339844 154.605469 197.339844 C 155.273438 197.339844 157.199219 197.117188 156.679688 195.632812 C 156.160156 194.148438 153.566406 193.554688 151.636719 193.777344 C 149.707031 194 148.375 195.484375 148.152344 196.300781 C 148.089844 196.519531 148.027344 196.808594 147.996094 197.148438 C 147.457031 197.261719 146.960938 197.414062 146.59375 197.636719 C 145.480469 198.304688 143.851562 199.636719 143.703125 200.15625 C 143.980469 199.175781 144.007812 198.273438 144.542969 197.339844 C 144.957031 196.621094 145.535156 195.867188 146.097656 195.261719 C 147.757812 193.476562 150.457031 192.703125 152.824219 192.816406 C 155.9375 192.964844 157.496094 193.410156 158.386719 192.445312 C 159.277344 191.480469 160.089844 189.996094 159.5 187.699219 C 158.90625 185.398438 158.238281 184.953125 157.199219 183.394531 C 155.730469 181.191406 155.027344 175.875 157.570312 174.125 C 158.757812 173.308594 160.164062 172.492188 161.128906 171.679688 C 161.671875 171.222656 163 169.855469 162.972656 168.210938 C 163.210938 168.429688 163.492188 168.601562 163.800781 168.785156 C 165.050781 169.53125 166.328125 170.28125 167.371094 171.3125 C 168.164062 172.09375 168.800781 173.023438 169.367188 173.980469 C 169.621094 174.40625 169.871094 174.828125 170.121094 175.246094 C 170.410156 175.734375 170.695312 176.21875 170.96875 176.71875 C 171.3125 177.347656 171.625 178 171.84375 178.683594 C 172.011719 179.210938 172.28125 179.847656 172.234375 180.402344 C 172.132812 181.574219 171.410156 182.835938 170.472656 183.542969 C 169.621094 184.191406 168.828125 184.703125 168.085938 185.53125 C 167.476562 186.210938 166.292969 186.832031 165.929688 187.621094 C 165.746094 188.015625 165.664062 188.804688 165.949219 189.171875 Z M 178.21875 186.992188 C 178.152344 187.074219 178.085938 187.15625 178.019531 187.234375 C 177.628906 187.703125 176.191406 189.476562 175.621094 188.261719 C 175.453125 187.902344 175.617188 187.507812 175.765625 187.179688 C 175.910156 186.855469 176.347656 186.726562 176.671875 186.710938 C 176.855469 186.703125 177 186.761719 177.175781 186.785156 C 177.433594 186.816406 177.679688 186.78125 177.941406 186.859375 C 178.042969 186.890625 178.132812 186.9375 178.21875 186.992188 Z M 180.070312 191.53125 C 179.925781 192.015625 179.726562 192.445312 179.492188 192.886719 C 179.460938 192.949219 179.421875 193.015625 179.382812 193.078125 C 179.386719 192.949219 179.398438 192.808594 179.421875 192.667969 C 179.515625 192.164062 179.597656 191.507812 179.769531 190.960938 C 179.847656 190.714844 179.972656 190.59375 180.082031 190.53125 C 180.144531 190.859375 180.175781 191.1875 180.070312 191.53125 Z M 180.628906 194.378906 C 180.683594 194.527344 180.683594 194.839844 180.636719 194.992188 C 180.511719 195.371094 179.910156 195.296875 179.714844 194.972656 C 179.570312 194.734375 179.667969 194.261719 179.78125 193.9375 C 180.113281 194.0625 180.464844 193.933594 180.628906 194.378906 Z M 148.691406 197.019531 C 149.023438 195.511719 150.75 194.507812 152.15625 194.300781 C 154.355469 193.972656 156.273438 195.304688 155.714844 196.300781 C 155.15625 197.300781 152.453125 196.597656 151.191406 196.746094 C 150.523438 196.824219 149.589844 196.886719 148.691406 197.019531 Z M 134.875 167.699219 C 136.710938 166.183594 138.933594 165.070312 141.105469 164.113281 C 142.726562 163.398438 144.84375 162.871094 147.230469 162.742188 C 145.453125 167.34375 142.835938 170.441406 140.289062 171.605469 C 138.269531 172.527344 133.835938 173.605469 133.160156 170.304688 C 132.945312 169.234375 134.164062 168.28125 134.875 167.699219 Z M 144.070312 205.648438 C 143.292969 203.234375 142.515625 200.820312 141.824219 198.382812 C 141.449219 197.050781 140.835938 195.78125 140.578125 194.425781 C 140.328125 193.09375 140.335938 191.664062 140.140625 190.367188 C 139.917969 188.886719 139.175781 187.921875 137.101562 188.886719 C 135.023438 189.847656 134.207031 192.445312 134.355469 195.929688 C 134.46875 198.566406 134.878906 201.085938 135.25 203.679688 C 135.453125 205.097656 135.644531 207.878906 133.390625 206.832031 C 131.3125 205.867188 126.644531 201.195312 125.753906 200.082031 C 124.664062 198.722656 123.769531 197.046875 123.542969 195.304688 C 123.351562 193.878906 123.011719 192.460938 122.804688 191.023438 C 122.65625 190.011719 122.554688 188.992188 122.472656 187.972656 C 122.960938 183.675781 123.746094 179.390625 125.605469 175.460938 C 126.109375 174.390625 127.046875 173.398438 127.757812 172.46875 C 128.527344 171.464844 129.664062 170.644531 130.722656 169.972656 C 131.171875 169.6875 131.636719 169.410156 132.054688 169.082031 C 132.148438 169.007812 133.164062 168.328125 133.15625 168.351562 C 132.8125 169.492188 131.925781 170.191406 132.628906 171.460938 C 134.234375 174.378906 137.082031 173.703125 139.769531 172.863281 C 142.144531 172.125 144.738281 169.601562 146.074219 167.523438 C 146.828125 166.355469 147.671875 165.230469 148.453125 162.707031 C 149.410156 162.710938 150.398438 162.78125 151.414062 162.925781 C 153.789062 163.273438 156.21875 163.738281 158.445312 164.664062 C 159.738281 165.199219 161.359375 166.003906 162.105469 167.25 C 162.914062 168.601562 162.011719 170.375 160.832031 171.160156 C 159.273438 172.199219 156.085938 173.308594 155.566406 175.386719 C 154.992188 177.691406 154.886719 180.324219 155.816406 182.554688 C 156.597656 184.4375 158.605469 185.519531 158.832031 187.699219 C 159.054688 189.847656 158.976562 192.148438 157.199219 192.222656 C 155.417969 192.296875 151.636719 191.40625 147.558594 193.335938 C 143.476562 195.261719 142.21875 201.566406 143.402344 202.308594 C 143.402344 202.308594 143.699219 202.457031 144.070312 201.566406 C 144.441406 200.675781 144.367188 200.230469 145.851562 199.191406 C 146.9375 198.433594 147.191406 198.03125 147.976562 197.78125 C 148.011719 198.617188 148.292969 199.621094 149.1875 200.601562 C 150.722656 202.28125 151.464844 202.523438 152.761719 202.742188 C 150.871094 203.125 149.105469 203.71875 147.78125 204.605469 C 145.542969 206.105469 144.859375 207.429688 144.722656 208.371094 C 144.53125 207.300781 144.3125 206.394531 144.070312 205.648438 Z M 197.617188 241.765625 C 199.027344 252.445312 199.769531 257.785156 199.769531 257.785156 C 199.769531 257.785156 199.84375 258.199219 199.980469 258.859375 C 198.316406 257.902344 196.449219 257.019531 194.355469 256.152344 C 189.164062 254 178.410156 250.21875 175.074219 248.511719 C 173.878906 247.902344 172.671875 247.324219 171.484375 246.703125 C 167.894531 244.835938 164.417969 242.730469 161.210938 240.253906 C 155.601562 235.917969 150.964844 230.203125 147.390625 224.109375 C 146.109375 221.929688 145.765625 219.707031 145.628906 217.214844 C 145.46875 214.257812 145.246094 211.800781 144.957031 209.796875 L 144.957031 209.800781 C 144.957031 209.800781 144.515625 206.171875 150.523438 204.3125 C 156.535156 202.453125 160.980469 202.382812 168.324219 204.3125 C 175.664062 206.238281 181.96875 208.019531 188.71875 212.097656 C 192.96875 214.664062 196.773438 217.230469 200.101562 219.355469 C 198.71875 223.183594 196.269531 231.550781 197.617188 241.765625 Z M 210.375 201.640625 C 207.824219 205.023438 202.449219 213.917969 200.636719 218.007812 C 194.953125 214.539062 189.394531 211.003906 185.898438 209.132812 C 183.136719 207.648438 177.710938 205.972656 172.882812 204.664062 C 173.183594 204.628906 173.484375 204.636719 173.789062 204.632812 C 174.585938 204.625 175.320312 204.402344 176.105469 204.21875 C 176.734375 204.070312 177.214844 203.820312 177.785156 203.558594 C 178.347656 203.304688 178.894531 202.949219 179.324219 202.5 C 179.738281 202.066406 180.195312 201.4375 180.40625 200.875 C 180.734375 199.980469 180.730469 198.621094 180.089844 197.859375 C 179.882812 197.609375 179.816406 197.292969 179.8125 196.972656 C 180.128906 196.960938 180.464844 196.695312 180.765625 196.515625 C 181.210938 196.25 181.628906 195.851562 181.796875 195.34375 C 181.984375 194.765625 181.816406 194.261719 181.449219 193.78125 C 181.207031 193.457031 180.945312 193.167969 180.527344 193.175781 C 180.4375 193.179688 180.332031 193.175781 180.226562 193.179688 C 180.34375 193.011719 180.460938 192.839844 180.53125 192.644531 C 180.625 192.386719 180.585938 192.207031 180.609375 191.941406 C 180.632812 191.722656 180.707031 191.503906 180.710938 191.28125 C 180.710938 190.609375 180.695312 189.839844 180.34375 189.25 C 179.9375 188.5625 179.632812 187.84375 179.078125 187.257812 C 178.988281 187.164062 178.894531 187.066406 178.792969 186.964844 C 179.035156 186.269531 179.335938 185.398438 178.929688 184.707031 C 178.5 183.976562 177.65625 183.796875 176.882812 183.664062 C 176.664062 183.625 176.417969 183.609375 176.203125 183.550781 C 175.980469 183.488281 175.8125 183.328125 175.601562 183.242188 C 175.429688 183.175781 175.292969 183.164062 175.132812 183.0625 C 174.757812 182.824219 174.421875 182.488281 174.152344 182.136719 C 173.683594 181.515625 173.300781 180.773438 172.996094 180.058594 C 172.726562 179.429688 172.535156 178.773438 172.273438 178.140625 C 172.25 178.085938 171.890625 177.140625 171.988281 177.144531 C 172.148438 177.15625 172.527344 177.46875 172.804688 177.574219 C 172.882812 178.164062 173.25 178.640625 174.035156 178.722656 C 175.199219 178.851562 176.386719 178.527344 177.59375 178.648438 C 177.902344 178.679688 178.210938 178.691406 178.519531 178.707031 C 179.59375 179.203125 180.960938 180.1875 181.671875 182.136719 C 182.960938 185.644531 183.257812 186.632812 183.355469 187.671875 C 183.453125 188.710938 183.304688 190.144531 183.949219 191.085938 C 184.589844 192.023438 185.925781 192.273438 187.0625 191.875 C 188.199219 191.480469 189.089844 190.246094 189.4375 189.875 C 189.476562 189.828125 189.515625 189.773438 189.550781 189.714844 C 189.910156 189.957031 190.308594 190.132812 190.769531 190.195312 C 192.253906 190.390625 192.453125 190.441406 192.453125 190.441406 C 192.453125 190.441406 191.765625 191.480469 192.703125 192.320312 C 193.640625 193.160156 194.28125 193.0625 194.824219 193.0625 C 195.371094 193.0625 195.914062 192.863281 195.914062 192.863281 C 195.914062 192.863281 195.714844 194.449219 196.753906 194.84375 C 197.792969 195.238281 198.039062 194.941406 198.582031 194.644531 C 199.125 194.347656 198.832031 194.148438 199.125 194.347656 C 199.425781 194.546875 201.15625 195.039062 202.539062 196.078125 C 203.921875 197.117188 205.753906 198.402344 207.484375 198.796875 C 209.214844 199.191406 209.757812 199.339844 210.84375 198.796875 C 211.554688 198.441406 212.621094 197.773438 213.277344 197.355469 C 212.25 198.996094 211.25 200.484375 210.375 201.640625 Z M 187.753906 186.09375 C 187.703125 184.90625 188.398438 183.875 189.832031 184.507812 C 190.703125 184.894531 191.480469 186.117188 191.152344 187.089844 C 190.933594 187.730469 190.585938 187.625 190.066406 187.707031 C 189.886719 187.738281 189.765625 187.785156 189.65625 187.855469 C 189.5625 187.917969 189.476562 188.003906 189.375 188.113281 C 188.613281 188.917969 187.78125 186.730469 187.753906 186.09375 Z M 197.867188 189.371094 C 197.480469 189.875 197.046875 190.339844 196.652344 190.839844 C 195.714844 192.023438 193.933594 192.171875 193.292969 191.679688 C 192.648438 191.183594 192.996094 190.789062 193.738281 190.441406 C 194.480469 190.097656 195.269531 190.046875 196.605469 189.15625 C 197.214844 188.75 197.855469 188.460938 198.488281 188.089844 C 198.292969 188.203125 198.058594 189.117188 197.867188 189.371094 Z M 198.382812 191.433594 C 198.3125 191.996094 198.335938 192.59375 198.082031 193.117188 C 197.972656 193.335938 197.640625 194.0625 197.390625 194.078125 C 196.738281 194.121094 196.667969 193.132812 196.726562 192.683594 C 196.851562 191.726562 197.613281 190.972656 198.34375 190.4375 C 198.40625 190.761719 198.425781 191.101562 198.382812 191.433594 Z M 215.269531 158.921875 C 217.9375 161.296875 221.203125 166.933594 221.871094 170.34375 C 222.539062 173.753906 221.425781 181.765625 219.273438 186.4375 C 218.121094 188.941406 216.433594 192.085938 214.695312 195.023438 C 213.667969 196.023438 211.910156 197.539062 210.25 198.058594 C 207.707031 198.847656 206.542969 197.183594 205.753906 196.976562 C 204.960938 196.769531 203.128906 195.140625 201.847656 194.546875 C 200.558594 193.953125 200.015625 194.050781 199.523438 193.457031 C 199.027344 192.863281 199.175781 192.816406 199.324219 190.988281 C 199.433594 189.652344 199.386719 188.316406 199.488281 186.984375 C 199.503906 186.75 199.679688 186.410156 199.550781 186.191406 C 199.105469 185.441406 198.0625 186.890625 197.734375 187.148438 C 197.308594 187.472656 196.835938 187.777344 196.402344 188.101562 C 195.722656 188.601562 194.890625 189.332031 194.035156 189.503906 C 193.195312 189.671875 192.199219 189.691406 191.363281 189.496094 C 190.988281 189.410156 189.820312 188.839844 190.476562 188.359375 C 190.726562 188.179688 191.121094 188.230469 191.386719 188.007812 C 191.636719 187.796875 191.765625 187.503906 191.824219 187.1875 C 191.949219 186.5 191.554688 185.734375 191.265625 185.144531 C 190.425781 183.421875 188.546875 183.71875 187.753906 184.261719 C 186.964844 184.804688 186.914062 185.941406 187.65625 187.328125 C 188.046875 188.054688 188.480469 188.75 189.019531 189.28125 C 188.726562 189.605469 188.335938 189.953125 187.855469 190.195312 C 186.765625 190.738281 186.023438 190.789062 185.382812 190.640625 C 184.738281 190.492188 184.738281 191.085938 184.492188 189.601562 C 184.246094 188.117188 183.898438 185.496094 183.304688 183.914062 C 182.710938 182.332031 182.019531 181.074219 181.476562 180.15625 C 181.304688 179.867188 180.972656 179.511719 180.539062 179.183594 C 180.671875 179.214844 180.800781 179.238281 180.933594 179.242188 C 183.253906 179.296875 183.492188 175.417969 185.070312 174.355469 C 184.957031 175.398438 184.746094 176.398438 184.214844 177.332031 C 183.820312 178.023438 182.964844 178.628906 183.332031 179.511719 C 183.574219 179.074219 184.078125 178.832031 184.421875 178.480469 C 184.914062 177.96875 185.3125 177.335938 185.695312 176.738281 C 186.539062 175.441406 186.695312 173.316406 186.363281 171.839844 C 185.949219 172.261719 185.679688 172.832031 185.222656 173.261719 C 184.589844 173.859375 183.859375 174.347656 183.359375 175.070312 C 182.804688 175.871094 181.953125 178.121094 180.933594 178.382812 C 180.40625 178.519531 179.457031 178.023438 178.910156 177.933594 C 178.179688 177.808594 177.441406 177.746094 176.707031 177.683594 C 175.988281 177.621094 174.398438 178.191406 173.996094 177.394531 C 173.351562 176.121094 175.28125 174.40625 176.09375 173.683594 C 177.613281 172.335938 179.75 171.769531 181.691406 171.324219 C 182.546875 171.125 183.425781 170.796875 184.261719 170.65625 C 183.089844 170.578125 181.851562 170.84375 180.707031 171.007812 C 178.71875 171.289062 176.835938 171.746094 175.285156 173.132812 C 174.394531 173.933594 173.609375 175.132812 173.070312 176.199219 C 172.972656 176.386719 172.910156 176.585938 172.859375 176.785156 C 172.375 176.160156 171.382812 175.386719 171.125 175.03125 C 169.917969 173.378906 169.328125 171.53125 167.710938 170.214844 C 166.707031 169.394531 165.511719 168.648438 164.417969 167.875 C 164.347656 167.828125 164.253906 167.742188 164.148438 167.648438 C 165.054688 168.089844 166.027344 168.421875 167.0625 168.710938 C 171.289062 169.898438 177.445312 170.9375 188.496094 166.414062 C 199.546875 161.886719 203.832031 159.730469 207.851562 154.695312 C 208.429688 153.96875 208.917969 153.269531 209.351562 152.574219 C 210.296875 152.738281 211.230469 152.867188 212.132812 152.957031 C 212.230469 153.519531 212.269531 154.015625 212.230469 154.398438 C 212.175781 154.929688 212.09375 155.628906 211.972656 156.367188 C 210.222656 156.253906 208.667969 157.09375 208.296875 159.070312 C 207.851562 161.441406 208.667969 162.109375 209.410156 162.035156 C 210.152344 161.960938 211.414062 161.886719 212.304688 158.773438 C 212.421875 158.351562 212.535156 157.90625 212.628906 157.445312 C 213.429688 157.632812 214.320312 158.078125 215.269531 158.921875 Z M 211.796875 157.339844 C 211.445312 159.054688 210.871094 160.730469 209.929688 161 C 208.390625 161.433594 208.445312 159.21875 209.410156 158.253906 C 209.90625 157.757812 210.742188 157.324219 211.796875 157.339844 Z M 224.464844 140.53125 C 225.320312 147.3125 224.769531 148.832031 220.535156 150.914062 C 218.492188 151.914062 215.589844 152.171875 212.625 151.988281 C 212.386719 150.929688 211.992188 149.816406 211.390625 148.648438 C 212.691406 145.824219 213.992188 142.773438 217.347656 138.675781 C 219.429688 136.128906 220.996094 134.183594 222.546875 132.683594 C 223.460938 135.425781 224.160156 138.121094 224.464844 140.53125 Z M 228.765625 165.671875 C 228.710938 166.175781 228.613281 166.867188 228.515625 167.652344 C 225.9375 165.925781 224.46875 161.070312 225.28125 159.886719 C 226.097656 158.699219 228.027344 157.515625 228.839844 159.21875 C 229.65625 160.925781 228.988281 163.667969 228.765625 165.671875 Z M 189.628906 187.796875 L 189.734375 187.722656 C 189.667969 187.734375 189.640625 187.757812 189.628906 187.796875 Z M 189.628906 187.796875 " fill-opacity="1" fill-rule="nonzero"/></g></svg>