<svg width="212" height="50" viewBox="0 0 212 50" fill="none" xmlns="http://www.w3.org/2000/svg">
<path d="M54.0156 20.9545C55.8698 20.9545 57.4964 21.3169 58.8955 22.0418C60.3114 22.7666 61.3986 23.8032 62.1571 25.1517C62.9325 26.4834 63.3202 28.0342 63.3202 29.8041C63.3202 31.574 62.9325 33.1247 62.1571 34.4564C61.3986 35.7712 60.3114 36.791 58.8955 37.5158C57.4964 38.2406 55.8698 38.603 54.0156 38.603H47.8462V20.9545H54.0156ZM53.8892 35.5942C55.7433 35.5942 57.1761 35.0885 58.1875 34.0771C59.1989 33.0657 59.7046 31.6414 59.7046 29.8041C59.7046 27.9667 59.1989 26.5339 58.1875 25.5057C57.1761 24.4606 55.7433 23.9381 53.8892 23.9381H51.386V35.5942H53.8892ZM65.0597 31.5487C65.0597 30.1328 65.3378 28.877 65.8941 27.7813C66.4672 26.6857 67.2342 25.8428 68.195 25.2529C69.1726 24.6629 70.2599 24.3679 71.4567 24.3679C72.5017 24.3679 73.412 24.5786 74.1874 25C74.9796 25.4214 75.6117 25.9524 76.0837 26.5929V24.5955H79.6488V38.603H76.0837V36.555C75.6286 37.2124 74.9965 37.7602 74.1874 38.1985C73.3951 38.6199 72.4765 38.8306 71.4314 38.8306C70.2514 38.8306 69.1726 38.5272 68.195 37.9203C67.2342 37.3135 66.4672 36.4623 65.8941 35.3666C65.3378 34.2541 65.0597 32.9815 65.0597 31.5487ZM76.0837 31.5993C76.0837 30.7396 75.9151 30.0063 75.578 29.3995C75.2409 28.7758 74.7858 28.3039 74.2127 27.9836C73.6395 27.6465 73.0243 27.4779 72.3669 27.4779C71.7095 27.4779 71.1027 27.638 70.5464 27.9583C69.9902 28.2786 69.535 28.7505 69.1811 29.3742C68.8439 29.9811 68.6754 30.7059 68.6754 31.5487C68.6754 32.3915 68.8439 33.1332 69.1811 33.7737C69.535 34.3974 69.9902 34.8778 70.5464 35.2149C71.1195 35.552 71.7264 35.7206 72.3669 35.7206C73.0243 35.7206 73.6395 35.5605 74.2127 35.2402C74.7858 34.9031 75.2409 34.4311 75.578 33.8243C75.9151 33.2006 76.0837 32.4589 76.0837 31.5993ZM86.6459 26.7699C87.101 26.0283 87.6909 25.4467 88.4158 25.0253C89.1574 24.6039 90.0002 24.3932 90.9442 24.3932V28.11H90.0087C88.8962 28.11 88.0534 28.3713 87.4802 28.8938C86.924 29.4164 86.6459 30.3266 86.6459 31.6245V38.603H83.106V24.5955H86.6459V26.7699ZM98.443 31.5487C98.443 30.1328 98.7211 28.877 99.2774 27.7813C99.8505 26.6857 100.617 25.8428 101.578 25.2529C102.556 24.6629 103.643 24.3679 104.84 24.3679C105.885 24.3679 106.795 24.5786 107.571 25C108.363 25.4214 108.995 25.9524 109.467 26.5929V24.5955H113.032V38.603H109.467V36.555C109.012 37.2124 108.38 37.7602 107.571 38.1985C106.778 38.6199 105.86 38.8306 104.815 38.8306C103.635 38.8306 102.556 38.5272 101.578 37.9203C100.617 37.3135 99.8505 36.4623 99.2774 35.3666C98.7211 34.2541 98.443 32.9815 98.443 31.5487ZM109.467 31.5993C109.467 30.7396 109.298 30.0063 108.961 29.3995C108.624 28.7758 108.169 28.3039 107.596 27.9836C107.023 27.6465 106.408 27.4779 105.75 27.4779C105.093 27.4779 104.486 27.638 103.93 27.9583C103.373 28.2786 102.918 28.7505 102.564 29.3742C102.227 29.9811 102.059 30.7059 102.059 31.5487C102.059 32.3915 102.227 33.1332 102.564 33.7737C102.918 34.3974 103.373 34.8778 103.93 35.2149C104.503 35.552 105.11 35.7206 105.75 35.7206C106.408 35.7206 107.023 35.5605 107.596 35.2402C108.169 34.9031 108.624 34.4311 108.961 33.8243C109.298 33.2006 109.467 32.4589 109.467 31.5993ZM120.029 19.8926V38.603H116.489V19.8926H120.029ZM134.298 28.0847V31.0683H123.577V28.0847H134.298ZM149.165 20.9545V23.8117H141.807V28.3376H147.446V31.1441H141.807V38.603H138.267V20.9545H149.165ZM150.765 31.5487C150.765 30.1328 151.043 28.877 151.599 27.7813C152.172 26.6857 152.939 25.8428 153.9 25.2529C154.878 24.6629 155.965 24.3679 157.162 24.3679C158.207 24.3679 159.117 24.5786 159.893 25C160.685 25.4214 161.317 25.9524 161.789 26.5929V24.5955H165.354V38.603H161.789V36.555C161.334 37.2124 160.702 37.7602 159.893 38.1985C159.1 38.6199 158.182 38.8306 157.137 38.8306C155.957 38.8306 154.878 38.5272 153.9 37.9203C152.939 37.3135 152.172 36.4623 151.599 35.3666C151.043 34.2541 150.765 32.9815 150.765 31.5487ZM161.789 31.5993C161.789 30.7396 161.62 30.0063 161.283 29.3995C160.946 28.7758 160.491 28.3039 159.918 27.9836C159.345 27.6465 158.729 27.4779 158.072 27.4779C157.415 27.4779 156.808 27.638 156.252 27.9583C155.695 28.2786 155.24 28.7505 154.886 29.3742C154.549 29.9811 154.381 30.7059 154.381 31.5487C154.381 32.3915 154.549 33.1332 154.886 33.7737C155.24 34.3974 155.695 34.8778 156.252 35.2149C156.825 35.552 157.432 35.7206 158.072 35.7206C158.729 35.7206 159.345 35.5605 159.918 35.2402C160.491 34.9031 160.946 34.4311 161.283 33.8243C161.62 33.2006 161.789 32.4589 161.789 31.5993ZM176.7 24.3932C177.762 24.3932 178.706 24.6292 179.532 25.1012C180.358 25.5563 180.998 26.239 181.453 27.1492C181.925 28.0426 182.161 29.1214 182.161 30.3856V38.603H178.622V30.866C178.622 29.7535 178.343 28.9023 177.787 28.3123C177.231 27.7055 176.472 27.402 175.512 27.402C174.534 27.402 173.759 27.7055 173.185 28.3123C172.629 28.9023 172.351 29.7535 172.351 30.866V38.603H168.811V19.8926H172.351V26.3401C172.806 25.7333 173.413 25.2613 174.171 24.9242C174.93 24.5702 175.773 24.3932 176.7 24.3932ZM202.923 24.3932C204.643 24.3932 206.025 24.9242 207.07 25.9861C208.132 27.0312 208.663 28.4977 208.663 30.3856V38.603H205.123V30.866C205.123 29.7704 204.845 28.936 204.289 28.3629C203.732 27.7729 202.974 27.4779 202.013 27.4779C201.052 27.4779 200.285 27.7729 199.712 28.3629C199.156 28.936 198.878 29.7704 198.878 30.866V38.603H195.338V30.866C195.338 29.7704 195.06 28.936 194.503 28.3629C193.947 27.7729 193.189 27.4779 192.228 27.4779C191.25 27.4779 190.475 27.7729 189.902 28.3629C189.345 28.936 189.067 29.7704 189.067 30.866V38.603H185.528V24.5955H189.067V26.2895C189.522 25.6996 190.104 25.236 190.812 24.8989C191.537 24.5618 192.329 24.3932 193.189 24.3932C194.284 24.3932 195.262 24.6292 196.122 25.1012C196.981 25.5563 197.647 26.2137 198.119 27.0733C198.574 26.2642 199.232 25.6153 200.091 25.1265C200.968 24.6376 201.912 24.3932 202.923 24.3932Z" fill="#611D2C"/>
<g clip-path="url(#clip0_678_3)">
<path d="M19.3586 8.79311C19.2082 8.71216 19.0298 8.66064 18.9133 8.54583C17.7989 7.44782 16.6932 6.33951 15.5876 5.23119C15.3222 4.96626 15.3429 4.55266 15.6068 4.29214C16.4751 3.43846 17.3374 2.57889 18.2028 1.7208C18.4195 1.5059 18.6377 1.29101 18.8559 1.07612C19.1875 0.749364 19.6416 0.752308 19.9689 1.07906C21.0096 2.11967 22.0504 3.15881 23.0897 4.19794C23.4184 4.52617 23.4081 4.99128 23.0602 5.34158C22.304 6.09959 21.5448 6.85466 20.787 7.61267C20.4745 7.92471 20.1635 8.23674 19.8553 8.55319C19.7241 8.68861 19.5723 8.76073 19.3821 8.74601C19.3748 8.7622 19.3659 8.77839 19.3586 8.79458V8.79311Z" fill="url(#paint0_linear_678_3)"/>
<path d="M24.3767 49.4747H24.2352C24.1688 49.463 24.1025 49.4409 24.0361 49.4409C16.422 49.4394 8.80933 49.4394 1.19518 49.4409C1.12147 49.4409 1.04924 49.463 0.975531 49.4747H0.763249C0.282666 49.304 0.076281 49.0656 0.0792293 48.4606C0.0939711 45.4904 0.0866002 42.5202 0.0866002 39.55C0.0866002 34.3778 0.0866002 29.2072 0.0866002 24.035C0.0866002 22.9179 0.0851261 21.7993 0.0733326 20.6821C0.0689101 20.217 0.226647 19.8373 0.558338 19.509C1.71852 18.3625 2.87133 17.21 4.02561 16.0575C6.79707 13.2919 9.56705 10.5248 12.3356 7.75619C12.3798 7.71204 12.4004 7.64286 12.4314 7.58398C13.7758 8.89983 15.0672 10.1642 16.3778 11.4462C16.3188 11.4933 16.2657 11.5315 16.22 11.5757C14.7857 13.0049 13.3498 14.434 11.9169 15.8647C9.82946 17.9489 7.74349 20.033 5.65458 22.1157C5.56023 22.2099 5.51896 22.3026 5.51896 22.438C5.5219 29.5692 5.5219 36.7004 5.5219 43.8316V44.045H23.6381V39.9768H9.59949V39.8487C9.59949 34.6177 9.59949 29.3882 9.60391 24.1572C9.60391 24.0718 9.65403 23.9658 9.71595 23.904C12.822 20.7984 15.9311 17.6972 19.0401 14.5945C19.0858 14.5489 19.133 14.5047 19.1772 14.4576C19.2878 14.3413 19.4043 14.3531 19.5163 14.4488C19.593 14.5135 19.6578 14.5901 19.7286 14.6607C22.7713 17.6957 25.8125 20.7336 28.8582 23.7657C29.0395 23.9467 29.1176 24.1425 29.1132 24.3927C29.0999 25.2861 29.0882 26.1795 29.0896 27.073C29.0926 29.4618 29.1044 31.8492 29.1117 34.238C29.1117 34.3469 29.1117 34.4558 29.1117 34.5662H33.1407C33.1495 34.4382 33.1628 34.3175 33.1643 34.1953C33.1657 33.4947 33.1643 32.7956 33.1643 32.095C33.1643 28.8701 33.1643 25.6467 33.1613 22.4219C33.1613 22.338 33.1333 22.2305 33.0773 22.1746C29.5746 18.6686 26.0661 15.1656 22.559 11.6625C22.4941 11.5978 22.4308 11.5315 22.3408 11.4403C23.6411 10.1701 24.9354 8.90719 26.2386 7.63403C26.2563 7.65463 26.2872 7.69732 26.3255 7.73411C30.2041 11.6066 34.0827 15.4805 37.9657 19.3471C38.2664 19.6459 38.5332 19.9491 38.5937 20.3848C38.5937 20.5261 38.5892 20.6659 38.5892 20.8072C38.5892 25.5098 38.5892 30.2124 38.5892 34.915C38.5892 34.9916 38.5922 35.0681 38.5937 35.1447C38.5804 35.2874 38.576 35.4317 38.5539 35.5744C38.4345 36.3295 38.1883 37.0375 37.7622 37.6777C37.177 38.5579 36.3971 39.2026 35.4212 39.6044C34.9097 39.8149 34.376 39.9562 33.8232 39.9753C33.1996 39.9974 32.5746 39.9842 31.951 39.9856C31.0503 39.9856 30.1496 39.9856 29.2488 39.9856C29.1545 39.9856 29.0793 39.9812 29.0793 40.1181C29.0867 41.0292 29.0911 41.9403 29.0852 42.8514C29.0808 43.5387 29.069 44.2261 29.0425 44.9134C29.0203 45.4875 28.8552 46.035 28.6046 46.5472C27.8823 48.0205 26.7103 48.9449 25.1167 49.3334C24.8735 49.3923 24.6258 49.4291 24.3796 49.4762L24.3767 49.4747ZM19.3556 21.9921C18.9812 22.3497 18.62 22.6853 18.2691 23.0342C17.2313 24.0615 16.2009 25.0933 15.163 26.1207C15.0761 26.2075 15.0392 26.2914 15.0436 26.4121C15.051 26.6299 15.0407 26.8478 15.0407 27.0641C15.0407 29.294 15.0407 31.5224 15.0407 33.7523C15.0407 34.0202 15.0407 34.2895 15.0407 34.5456H23.6425C23.6425 34.4558 23.6425 34.3925 23.6425 34.3278C23.647 33.2283 23.6543 32.1288 23.6529 31.0293C23.6514 29.5236 23.644 28.0179 23.6352 26.5136C23.6352 26.3385 23.5836 26.1766 23.4494 26.0441C22.4558 25.058 21.4652 24.0674 20.4716 23.0813C20.0957 22.7089 19.7153 22.3424 19.3571 21.9935L19.3556 21.9921Z" fill="#611D2C"/>
</g>
<defs>
<linearGradient id="paint0_linear_678_3" x1="22.0194" y1="1.74234" x2="15.3769" y2="8.751" gradientUnits="userSpaceOnUse">
<stop stop-color="#EE984F"/>
<stop offset="1" stop-color="#88572D"/>
</linearGradient>
<clipPath id="clip0_678_3">
<rect width="38.5852" height="48.5887" fill="white" transform="translate(0 0.858398)"/>
</clipPath>
</defs>
</svg>
